STARTFONT 2.1
COMMENT Font converted from OTF to BDF.
FONT -FreeType-TeXGyreHeros-Medium-R-Normal--29-220-96-96-P-140-ISO10646-1
SIZE 22 96 96
FONTBOUNDINGBOX 55 43 -15 -9
STARTPROPERTIES 19
POINT_SIZE 220
PIXEL_SIZE 29
RESOLUTION_X 96
RESOLUTION_Y 96
FONT_ASCENT 33
FONT_DESCENT 8
AVERAGE_WIDTH 140
SPACING "P"
FOUNDRY "FreeType"
FAMILY_NAME "TeXGyreHeros"
CHARSET_REGISTRY "ISO10646"
CHARSET_ENCODING "1"
WEIGHT_NAME "Medium"
SLANT "R"
SETWIDTH_NAME "Normal"
COPYRIGHT "Copyright 2006, 2009 for TeX Gyre extensions by B. Jackowski and J.M. Nowacki (on behalf of TeX users groups). This work is released under the GUST Font License --  see http://tug.org/fonts/licenses/GUST-FONT-LICENSE.txt for details."
_TTF_PSNAME "TeXGyreHeros-Regular"
_OTF_FONTFILE "texgyreheros-regular.otf"
_GBDFED_INFO "Edited with gbdfed 1.6."
ENDPROPERTIES
CHARS 1053
STARTCHAR char32
ENCODING 32
SWIDTH 24 0
DWIDTH 8 0
BBX 0 0 0 0
BITMAP
ENDCHAR
STARTCHAR char33
ENCODING 33
SWIDTH 24 0
DWIDTH 8 0
BBX 2 22 3 0
BITMAP
C0
C0
C0
C0
C0
C0
C0
C0
C0
C0
C0
C0
C0
C0
C0
C0
C0
00
00
C0
C0
C0
ENDCHAR
STARTCHAR char34
ENCODING 34
SWIDTH 30 0
DWIDTH 10 0
BBX 7 7 2 13
BITMAP
CE
CE
CE
CE
CE
C4
C4
ENDCHAR
STARTCHAR char35
ENCODING 35
SWIDTH 17 0
DWIDTH 16 0
BBX 16 20 0 0
BITMAP
030C
030C
031C
0718
0618
7FFF
7FFF
0638
0E38
0C30
0C30
0C30
FFFE
FFFE
1C60
1860
1860
1860
18E0
38C0
ENDCHAR
STARTCHAR char36
ENCODING 36
SWIDTH 17 0
DWIDTH 16 0
BBX 14 27 1 -4
BITMAP
0300
0300
1FE0
3FF0
7338
6318
E318
E31C
E300
6300
7B00
3F80
1FE0
03F8
033C
031C
030C
C30C
C30C
E31C
E31C
7B78
3FF0
0FC0
0300
0300
0300
ENDCHAR
STARTCHAR char37
ENCODING 37
SWIDTH 17 0
DWIDTH 26 0
BBX 24 20 1 0
BITMAP
000040
1E00C0
7F8180
E18180
C0C300
C0C300
C0C600
E18400
7F8C00
1E1800
001800
003078
0031FE
006187
00C303
00C303
018303
018187
0300FE
030078
ENDCHAR
STARTCHAR char38
ENCODING 38
SWIDTH 30 0
DWIDTH 20 0
BBX 16 20 2 -1
BITMAP
0780
1FE0
38E0
3070
3070
38F0
3DE0
1FE0
0FC0
0F00
7B00
F18E
E0CE
C0EC
C07C
C03C
C078
F1EC
7FC6
1F03
ENDCHAR
STARTCHAR char39
ENCODING 39
SWIDTH 18 0
DWIDTH 6 0
BBX 3 7 1 13
BITMAP
E0
E0
E0
E0
60
60
40
ENDCHAR
STARTCHAR char40
ENCODING 40
SWIDTH 30 0
DWIDTH 10 0
BBX 6 28 2 -6
BITMAP
04
0C
18
18
30
30
70
60
60
60
E0
E0
E0
E0
E0
E0
E0
E0
60
60
60
70
30
30
18
18
0C
04
ENDCHAR
STARTCHAR char41
ENCODING 41
SWIDTH 30 0
DWIDTH 10 0
BBX 6 28 1 -6
BITMAP
C0
60
60
30
30
18
18
18
1C
0C
0C
0C
0C
0C
0C
0C
0C
0C
0C
1C
18
18
18
30
30
60
60
C0
ENDCHAR
STARTCHAR char42
ENCODING 42
SWIDTH 2 0
DWIDTH 11 0
BBX 9 9 1 13
BITMAP
0800
0800
0880
FF80
7F00
1C00
3600
3700
2200
ENDCHAR
STARTCHAR char43
ENCODING 43
SWIDTH 21 0
DWIDTH 17 0
BBX 13 13 2 1
BITMAP
0300
0300
0300
0300
0300
0300
FFF8
FFF8
0300
0300
0300
0300
0300
ENDCHAR
STARTCHAR char44
ENCODING 44
SWIDTH 24 0
DWIDTH 8 0
BBX 3 7 3 -4
BITMAP
E0
E0
E0
60
60
40
C0
ENDCHAR
STARTCHAR char45
ENCODING 45
SWIDTH 30 0
DWIDTH 10 0
BBX 7 2 1 7
BITMAP
FE
FE
ENDCHAR
STARTCHAR char46
ENCODING 46
SWIDTH 24 0
DWIDTH 8 0
BBX 3 3 3 0
BITMAP
E0
E0
E0
ENDCHAR
STARTCHAR char47
ENCODING 47
SWIDTH 24 0
DWIDTH 8 0
BBX 8 22 0 0
BITMAP
01
03
03
02
06
06
04
0C
0C
08
18
18
10
30
30
20
60
60
40
40
C0
C0
ENDCHAR
STARTCHAR char48
ENCODING 48
SWIDTH 17 0
DWIDTH 16 0
BBX 14 20 1 0
BITMAP
0FC0
1FE0
3CF0
7038
7038
6018
601C
E01C
E01C
E01C
E01C
E01C
E01C
E01C
6018
7038
7038
3CF0
1FE0
07C0
ENDCHAR
STARTCHAR char49
ENCODING 49
SWIDTH 17 0
DWIDTH 16 0
BBX 7 20 3 0
BITMAP
06
06
0E
1E
FE
FE
06
06
06
06
06
06
06
06
06
06
06
06
06
06
ENDCHAR
STARTCHAR char50
ENCODING 50
SWIDTH 17 0
DWIDTH 16 0
BBX 14 20 1 0
BITMAP
0FC0
1FF0
3C78
7038
701C
601C
E01C
001C
0038
0078
01F0
03C0
0F00
1C00
3800
7000
6000
FFFC
FFFC
FFFC
ENDCHAR
STARTCHAR char51
ENCODING 51
SWIDTH 17 0
DWIDTH 16 0
BBX 14 20 1 0
BITMAP
0FC0
3FF0
78F0
7038
6038
E018
0038
0070
07E0
07E0
0078
0018
001C
E01C
E01C
E01C
7038
78F8
3FF0
0FC0
ENDCHAR
STARTCHAR char52
ENCODING 52
SWIDTH 17 0
DWIDTH 16 0
BBX 14 20 1 0
BITMAP
0060
00E0
01E0
01E0
0360
0760
0E60
0C60
1860
3860
7060
6060
C060
FFFC
FFFC
0060
0060
0060
0060
0060
ENDCHAR
STARTCHAR char53
ENCODING 53
SWIDTH 17 0
DWIDTH 16 0
BBX 14 20 1 0
BITMAP
3FF8
3FF8
3FF8
3000
3000
7000
7000
7FE0
7FF0
7878
603C
001C
001C
001C
001C
E01C
7038
78F8
3FF0
0FC0
ENDCHAR
STARTCHAR char54
ENCODING 54
SWIDTH 17 0
DWIDTH 16 0
BBX 14 20 1 0
BITMAP
07C0
1FF0
3C78
3838
7018
7000
6000
E000
E7E0
FFF0
F838
F01C
E01C
E01C
601C
601C
7038
3C78
1FF0
0FC0
ENDCHAR
STARTCHAR char55
ENCODING 55
SWIDTH 17 0
DWIDTH 16 0
BBX 14 20 1 0
BITMAP
FFFC
FFFC
FFFC
0018
0030
0070
0060
00C0
01C0
0180
0380
0300
0700
0700
0600
0E00
0E00
0C00
1C00
1C00
ENDCHAR
STARTCHAR char56
ENCODING 56
SWIDTH 17 0
DWIDTH 16 0
BBX 14 20 1 0
BITMAP
0FC0
1FF0
3CF0
7038
7018
6018
7038
3870
1FE0
1FE0
7878
7038
E01C
E01C
E01C
E01C
7038
78F8
3FF0
0FC0
ENDCHAR
STARTCHAR char57
ENCODING 57
SWIDTH 17 0
DWIDTH 16 0
BBX 14 20 1 0
BITMAP
0FC0
3FE0
78F0
7038
E018
E01C
E01C
E01C
E03C
787C
3FFC
1FDC
001C
0018
0018
6038
7070
38F0
3FE0
0F80
ENDCHAR
STARTCHAR char58
ENCODING 58
SWIDTH 24 0
DWIDTH 8 0
BBX 3 16 3 0
BITMAP
E0
E0
E0
00
00
00
00
00
00
00
00
00
00
E0
E0
E0
ENDCHAR
STARTCHAR char59
ENCODING 59
SWIDTH 24 0
DWIDTH 8 0
BBX 3 20 3 -4
BITMAP
E0
E0
E0
00
00
00
00
00
00
00
00
00
00
E0
E0
E0
60
60
40
C0
ENDCHAR
STARTCHAR char60
ENCODING 60
SWIDTH 21 0
DWIDTH 17 0
BBX 10 19 3 -2
BITMAP
0040
00C0
01C0
0380
0700
0E00
1C00
3800
7000
E000
7000
3800
1C00
0E00
0700
0380
01C0
00C0
0040
ENDCHAR
STARTCHAR char61
ENCODING 61
SWIDTH 21 0
DWIDTH 17 0
BBX 13 7 2 4
BITMAP
FFF8
FFF8
0000
0000
0000
FFF8
FFF8
ENDCHAR
STARTCHAR char62
ENCODING 62
SWIDTH 21 0
DWIDTH 17 0
BBX 10 19 3 -2
BITMAP
8000
C000
E000
7000
3800
1E00
0700
0380
01C0
00C0
01C0
0380
0700
1E00
3800
7000
E000
C000
8000
ENDCHAR
STARTCHAR char63
ENCODING 63
SWIDTH 17 0
DWIDTH 16 0
BBX 13 22 2 0
BITMAP
1F80
3FE0
78F0
6070
E038
E038
E038
0030
0070
00E0
01C0
0380
0700
0700
0600
0600
0000
0000
0000
0600
0600
0600
ENDCHAR
STARTCHAR char64
ENCODING 64
SWIDTH 29 0
DWIDTH 30 0
BBX 27 26 1 -4
BITMAP
001FC000
00FFF800
03F0FC00
07801F00
0E000780
1C000380
380F01C0
303FB9C0
7070F0E0
60E070E0
E0C070E0
E1C060E0
E1C060E0
C180E0C0
E180E0C0
E180C1C0
E1C1C380
E1E3C700
70FEFE00
707C7C00
38000000
1C000000
0F000000
07C06000
03FFF000
007FE000
ENDCHAR
STARTCHAR char65
ENCODING 65
SWIDTH 30 0
DWIDTH 20 0
BBX 18 22 1 0
BITMAP
01E000
01E000
03F000
03F000
037000
073800
073800
063800
0E1C00
0E1C00
1C1C00
1C0E00
1C0E00
3FFE00
3FFF00
380700
700700
700380
700380
E00380
E001C0
E001C0
ENDCHAR
STARTCHAR char66
ENCODING 66
SWIDTH 30 0
DWIDTH 20 0
BBX 16 22 2 0
BITMAP
FFF0
FFFC
E07C
E01E
E00E
E006
E006
E00E
E00E
E07C
FFF8
FFFC
E01E
E007
E007
E007
E007
E007
E007
E03E
FFFC
FFF0
ENDCHAR
STARTCHAR char67
ENCODING 67
SWIDTH 2 0
DWIDTH 21 0
BBX 19 22 1 0
BITMAP
01F800
07FE00
0F9F00
1C0380
3801C0
3001C0
7001C0
700000
600000
E00000
E00000
E00000
E00000
600000
7000E0
7000E0
7001C0
3801C0
1C0380
1F9F80
07FF00
01FC00
ENDCHAR
STARTCHAR char68
ENCODING 68
SWIDTH 2 0
DWIDTH 21 0
BBX 17 22 3 0
BITMAP
FFE000
FFF800
C0FC00
C01E00
C00E00
C00700
C00700
C00700
C00300
C00300
C00380
C00380
C00300
C00300
C00700
C00700
C00700
C00E00
C01E00
C07C00
FFF800
FFE000
ENDCHAR
STARTCHAR char69
ENCODING 69
SWIDTH 30 0
DWIDTH 20 0
BBX 15 22 3 0
BITMAP
FFFC
FFFC
C000
C000
C000
C000
C000
C000
C000
C000
FFFC
FFFC
C000
C000
C000
C000
C000
C000
C000
C000
FFFE
FFFE
ENDCHAR
STARTCHAR char70
ENCODING 70
SWIDTH 24 0
DWIDTH 18 0
BBX 14 22 3 0
BITMAP
FFFC
FFFC
C000
C000
C000
C000
C000
C000
C000
C000
FFF8
FFF8
C000
C000
C000
C000
C000
C000
C000
C000
C000
C000
ENDCHAR
STARTCHAR char71
ENCODING 71
SWIDTH 8 0
DWIDTH 23 0
BBX 20 22 1 0
BITMAP
01FC00
07FF00
0FDF80
1E03C0
3801E0
3800E0
700060
700000
600000
E00000
E00000
E01FF0
E01FF0
E00070
600070
700070
700070
3800F0
1C01F0
1F9FB0
07FE30
01F800
ENDCHAR
STARTCHAR char72
ENCODING 72
SWIDTH 2 0
DWIDTH 21 0
BBX 17 22 2 0
BITMAP
E00380
E00380
E00380
E00380
E00380
E00380
E00380
E00380
E00380
E00380
FFFF80
FFFF80
E00380
E00380
E00380
E00380
E00380
E00380
E00380
E00380
E00380
E00380
ENDCHAR
STARTCHAR char73
ENCODING 73
SWIDTH 24 0
DWIDTH 8 0
BBX 3 22 3 0
BITMAP
E0
E0
E0
E0
E0
E0
E0
E0
E0
E0
E0
E0
E0
E0
E0
E0
E0
E0
E0
E0
E0
E0
ENDCHAR
STARTCHAR char74
ENCODING 74
SWIDTH 14 0
DWIDTH 15 0
BBX 11 22 1 0
BITMAP
0060
0060
0060
0060
0060
0060
0060
0060
0060
0060
0060
0060
0060
0060
0060
C060
C060
E0E0
E0E0
F1E0
7FC0
1F00
ENDCHAR
STARTCHAR char75
ENCODING 75
SWIDTH 30 0
DWIDTH 20 0
BBX 17 22 2 0
BITMAP
E00780
E00F00
E01E00
E03C00
E07800
E0F000
E1E000
E1C000
E38000
E78000
EFC000
FDC000
F8E000
F0F000
E07000
E03800
E03C00
E01C00
E00E00
E00F00
E00700
E00380
ENDCHAR
STARTCHAR char76
ENCODING 76
SWIDTH 17 0
DWIDTH 16 0
BBX 14 22 2 0
BITMAP
E000
E000
E000
E000
E000
E000
E000
E000
E000
E000
E000
E000
E000
E000
E000
E000
E000
E000
E000
E000
FFFC
FFFC
ENDCHAR
STARTCHAR char77
ENCODING 77
SWIDTH 11 0
DWIDTH 24 0
BBX 20 22 2 0
BITMAP
F000F0
F000F0
F800F0
F801F0
F801B0
FC01B0
EC03B0
EC0330
EE0330
E60730
E60630
E70630
E30E30
E30C30
E38C30
E19C30
E19C30
E1D830
E0D830
E0F830
E0F030
E07030
ENDCHAR
STARTCHAR char78
ENCODING 78
SWIDTH 2 0
DWIDTH 21 0
BBX 17 22 2 0
BITMAP
F00380
F00380
F80380
F80380
FC0380
EE0380
EE0380
E70380
E70380
E38380
E1C380
E1C380
E0E380
E07380
E07380
E03B80
E03B80
E01F80
E00F80
E00F80
E00780
E00380
ENDCHAR
STARTCHAR char79
ENCODING 79
SWIDTH 8 0
DWIDTH 23 0
BBX 21 22 1 0
BITMAP
01FC00
07FF00
0FDF80
1E03C0
3800E0
7000E0
700070
600070
E00030
E00038
E00038
E00038
E00038
E00038
E00030
700070
700070
3800E0
3C03C0
1F9F80
07FF00
01FC00
ENDCHAR
STARTCHAR char80
ENCODING 80
SWIDTH 30 0
DWIDTH 20 0
BBX 15 22 3 0
BITMAP
FFF0
FFF8
C07C
C01E
C00E
C00E
C00E
C00E
C00E
C03C
FFFC
FFF0
C000
C000
C000
C000
C000
C000
C000
C000
C000
C000
ENDCHAR
STARTCHAR char81
ENCODING 81
SWIDTH 8 0
DWIDTH 23 0
BBX 21 23 1 -1
BITMAP
01FC00
07FF00
0FDF80
1E03C0
3800E0
7000E0
700070
600070
E00030
E00038
E00038
E00038
E00038
E00038
E00030
700070
700CF0
380FE0
3C03C0
1F9FC0
07FFE0
01FC70
000030
ENDCHAR
STARTCHAR char82
ENCODING 82
SWIDTH 2 0
DWIDTH 21 0
BBX 17 22 3 0
BITMAP
FFF800
FFFC00
C03E00
C00F00
C00700
C00700
C00700
C00700
C00700
C00E00
FFFC00
FFFC00
C03E00
C00E00
C00600
C00700
C00700
C00700
C00700
C00700
C00700
C00780
ENDCHAR
STARTCHAR char83
ENCODING 83
SWIDTH 30 0
DWIDTH 20 0
BBX 17 22 1 0
BITMAP
07F000
1FFC00
3E3E00
380700
700700
700300
700300
700000
780000
3F0000
1FF000
07FE00
007F00
000780
000380
E00380
600380
700380
780780
3F3F00
1FFE00
07F800
ENDCHAR
STARTCHAR char84
ENCODING 84
SWIDTH 24 0
DWIDTH 18 0
BBX 16 22 1 0
BITMAP
FFFF
FFFF
0180
0180
0180
0180
0180
0180
0180
0180
0180
0180
0180
0180
0180
0180
0180
0180
0180
0180
0180
0180
ENDCHAR
STARTCHAR char85
ENCODING 85
SWIDTH 2 0
DWIDTH 21 0
BBX 17 22 2 0
BITMAP
E00380
E00380
E00380
E00380
E00380
E00380
E00380
E00380
E00380
E00380
E00380
E00380
E00380
E00380
E00380
E00380
600380
700700
780F00
3F7E00
1FFC00
07F000
ENDCHAR
STARTCHAR char86
ENCODING 86
SWIDTH 30 0
DWIDTH 20 0
BBX 18 22 1 0
BITMAP
E001C0
E00180
700380
700380
700300
380700
380700
380600
1C0E00
1C0E00
0C0C00
0E1C00
0E1C00
061800
073800
073800
033000
03F000
03F000
01E000
01E000
01E000
ENDCHAR
STARTCHAR char87
ENCODING 87
SWIDTH 23 0
DWIDTH 28 0
BBX 26 22 1 0
BITMAP
E01E01C0
E01E01C0
E01E01C0
E01E0380
703F0380
70370380
70330380
70730300
38738700
38638700
38618700
38E1C600
1CE1CE00
1CC1CE00
1CC0CE00
1DC0EC00
0DC0EC00
0F807C00
0F807C00
0F807800
07007800
07003800
ENDCHAR
STARTCHAR char88
ENCODING 88
SWIDTH 30 0
DWIDTH 20 0
BBX 18 22 1 0
BITMAP
F00380
700780
380700
3C0E00
1C0E00
0E1C00
0F3800
073800
03F000
03E000
01E000
01E000
03F000
077000
073800
0E3C00
1C1C00
1C0E00
380F00
780700
700380
E003C0
ENDCHAR
STARTCHAR char89
ENCODING 89
SWIDTH 30 0
DWIDTH 20 0
BBX 18 22 1 0
BITMAP
E001C0
F00380
700380
380700
380700
1C0E00
1E1C00
0E1C00
073800
073800
03F000
03E000
01E000
00C000
00C000
00C000
00C000
00C000
00C000
00C000
00C000
00C000
ENDCHAR
STARTCHAR char90
ENCODING 90
SWIDTH 24 0
DWIDTH 18 0
BBX 16 22 1 0
BITMAP
7FFF
7FFF
0007
000E
001E
003C
0038
0070
00F0
01E0
01C0
0380
0780
0F00
0E00
1C00
3C00
7800
7000
E000
FFFF
FFFF
ENDCHAR
STARTCHAR char91
ENCODING 91
SWIDTH 24 0
DWIDTH 8 0
BBX 5 28 2 -6
BITMAP
F8
F8
C0
C0
C0
C0
C0
C0
C0
C0
C0
C0
C0
C0
C0
C0
C0
C0
C0
C0
C0
C0
C0
C0
C0
C0
F8
F8
ENDCHAR
STARTCHAR char92
ENCODING 92
SWIDTH 24 0
DWIDTH 8 0
BBX 8 22 0 0
BITMAP
C0
C0
40
40
60
60
20
30
30
10
18
18
08
0C
0C
04
06
06
02
03
03
01
ENDCHAR
STARTCHAR char93
ENCODING 93
SWIDTH 24 0
DWIDTH 8 0
BBX 5 28 1 -6
BITMAP
F8
F8
18
18
18
18
18
18
18
18
18
18
18
18
18
18
18
18
18
18
18
18
18
18
18
18
F8
F8
ENDCHAR
STARTCHAR char94
ENCODING 94
SWIDTH 11 0
DWIDTH 14 0
BBX 11 11 1 9
BITMAP
0600
0F00
0F00
1B00
1980
1980
30C0
30C0
60C0
6060
E060
ENDCHAR
STARTCHAR char95
ENCODING 95
SWIDTH 17 0
DWIDTH 16 0
BBX 18 1 -1 -5
BITMAP
FFFFC0
ENDCHAR
STARTCHAR char96
ENCODING 96
SWIDTH 30 0
DWIDTH 10 0
BBX 5 4 0 18
BITMAP
E0
70
38
18
ENDCHAR
STARTCHAR char97
ENCODING 97
SWIDTH 17 0
DWIDTH 16 0
BBX 15 16 1 0
BITMAP
0FC0
3FF0
7878
7038
6038
0038
0078
0FF8
3FB8
7038
E038
E038
E078
70F8
7FDE
1F0E
ENDCHAR
STARTCHAR char98
ENCODING 98
SWIDTH 17 0
DWIDTH 16 0
BBX 13 22 2 0
BITMAP
C000
C000
C000
C000
C000
C000
CF80
DFE0
F9F0
E070
E038
C038
C018
C018
C018
C018
C038
E038
F070
F9F0
DFE0
CF80
ENDCHAR
STARTCHAR char99
ENCODING 99
SWIDTH 14 0
DWIDTH 15 0
BBX 13 16 1 0
BITMAP
0F80
3FE0
3CF0
7030
E038
E038
E000
C000
C000
E000
E038
E038
7030
7CF0
3FE0
0FC0
ENDCHAR
STARTCHAR char100
ENCODING 100
SWIDTH 17 0
DWIDTH 16 0
BBX 14 22 1 0
BITMAP
001C
001C
001C
001C
001C
001C
0F9C
3FDC
7CFC
703C
E03C
E01C
C01C
C01C
C01C
C01C
E01C
E03C
703C
7CFC
3FDC
0F9C
ENDCHAR
STARTCHAR char101
ENCODING 101
SWIDTH 17 0
DWIDTH 16 0
BBX 14 16 1 0
BITMAP
07C0
1FF0
3CF8
7038
601C
E01C
E01C
FFFC
FFFC
E000
E000
601C
7038
3C78
1FF0
0FC0
ENDCHAR
STARTCHAR char102
ENCODING 102
SWIDTH 24 0
DWIDTH 8 0
BBX 7 22 1 0
BITMAP
1E
3E
38
30
30
30
FE
FE
30
30
30
30
30
30
30
30
30
30
30
30
30
30
ENDCHAR
STARTCHAR char103
ENCODING 103
SWIDTH 17 0
DWIDTH 16 0
BBX 13 22 1 -6
BITMAP
0F98
3FD8
7CF8
7078
E038
E038
C018
C018
C018
C018
E018
E038
7038
78F8
3FD8
0F98
0018
E018
6038
7070
3FE0
0FC0
ENDCHAR
STARTCHAR char104
ENCODING 104
SWIDTH 17 0
DWIDTH 16 0
BBX 12 22 2 0
BITMAP
C000
C000
C000
C000
C000
C000
C7C0
DFE0
D8F0
F070
E030
E030
E030
C030
C030
C030
C030
C030
C030
C030
C030
C030
ENDCHAR
STARTCHAR char105
ENCODING 105
SWIDTH 21 0
DWIDTH 7 0
BBX 3 20 2 0
BITMAP
E0
E0
E0
00
C0
C0
C0
C0
C0
C0
C0
C0
C0
C0
C0
C0
C0
C0
C0
C0
ENDCHAR
STARTCHAR char106
ENCODING 106
SWIDTH 21 0
DWIDTH 7 0
BBX 6 26 -1 -6
BITMAP
1C
1C
1C
00
18
18
18
18
18
18
18
18
18
18
18
18
18
18
18
18
18
18
18
18
F8
F0
ENDCHAR
STARTCHAR char107
ENCODING 107
SWIDTH 14 0
DWIDTH 15 0
BBX 12 22 2 0
BITMAP
C000
C000
C000
C000
C000
C000
C0E0
C1C0
C380
C700
CE00
DC00
FE00
F700
E700
C380
C380
C1C0
C0E0
C0E0
C070
C070
ENDCHAR
STARTCHAR char108
ENCODING 108
SWIDTH 21 0
DWIDTH 7 0
BBX 2 22 2 0
BITMAP
C0
C0
C0
C0
C0
C0
C0
C0
C0
C0
C0
C0
C0
C0
C0
C0
C0
C0
C0
C0
C0
C0
ENDCHAR
STARTCHAR char109
ENCODING 109
SWIDTH 11 0
DWIDTH 24 0
BBX 20 16 2 0
BITMAP
C787C0
DFEFE0
F0F870
E07030
E07030
E06030
E06030
E06030
E06030
E06030
E06030
E06030
E06030
E06030
E06030
E06030
ENDCHAR
STARTCHAR char110
ENCODING 110
SWIDTH 17 0
DWIDTH 16 0
BBX 12 16 2 0
BITMAP
C7C0
DFE0
D070
E030
E030
E030
C030
C030
C030
C030
C030
C030
C030
C030
C030
C030
ENDCHAR
STARTCHAR char111
ENCODING 111
SWIDTH 17 0
DWIDTH 16 0
BBX 14 16 1 0
BITMAP
0FC0
3FE0
3CF0
7038
6018
E01C
E01C
E01C
E01C
E01C
E01C
6018
7038
3CF0
1FE0
0FC0
ENDCHAR
STARTCHAR char112
ENCODING 112
SWIDTH 17 0
DWIDTH 16 0
BBX 13 22 2 -6
BITMAP
CF80
DFE0
F070
E030
E038
C038
C018
C018
C018
C018
C038
E038
E070
F9F0
DFE0
CF80
C000
C000
C000
C000
C000
C000
ENDCHAR
STARTCHAR char113
ENCODING 113
SWIDTH 17 0
DWIDTH 16 0
BBX 14 22 1 -6
BITMAP
0F9C
3FFC
7CFC
703C
E03C
E01C
C01C
C01C
C01C
C01C
E01C
E03C
703C
7CFC
3FDC
0F9C
001C
001C
001C
001C
001C
001C
ENDCHAR
STARTCHAR char114
ENCODING 114
SWIDTH 30 0
DWIDTH 10 0
BBX 7 16 2 0
BITMAP
CE
DE
DC
F0
E0
E0
E0
C0
C0
C0
C0
C0
C0
C0
C0
C0
ENDCHAR
STARTCHAR char115
ENCODING 115
SWIDTH 14 0
DWIDTH 15 0
BBX 12 16 1 0
BITMAP
1F80
3FE0
78E0
6070
E070
E000
7800
3F80
1FE0
01F0
0030
E030
E030
70F0
7FE0
1F80
ENDCHAR
STARTCHAR char116
ENCODING 116
SWIDTH 24 0
DWIDTH 8 0
BBX 7 20 0 0
BITMAP
38
38
38
38
FE
FE
38
38
38
38
38
38
38
38
38
38
38
38
1E
0E
ENDCHAR
STARTCHAR char117
ENCODING 117
SWIDTH 17 0
DWIDTH 16 0
BBX 12 16 2 0
BITMAP
C030
C030
C030
C030
C030
C030
C030
C030
C030
C030
C070
C070
E0F0
F1F0
7FB0
3E30
ENDCHAR
STARTCHAR char118
ENCODING 118
SWIDTH 14 0
DWIDTH 15 0
BBX 14 16 0 0
BITMAP
E01C
701C
7018
7038
3038
3830
3870
1860
1C60
1CE0
0CC0
0EC0
0FC0
0780
0780
0380
ENDCHAR
STARTCHAR char119
ENCODING 119
SWIDTH 2 0
DWIDTH 21 0
BBX 21 16 0 0
BITMAP
E07038
607030
60F870
70F870
70D860
30D860
39DCE0
399CE0
198CC0
198CC0
1F8DC0
1F0FC0
0F0780
0F0780
0F0780
0F0700
ENDCHAR
STARTCHAR char120
ENCODING 120
SWIDTH 14 0
DWIDTH 15 0
BBX 13 16 1 0
BITMAP
E030
7070
70E0
38C0
19C0
1F80
0F00
0700
0F00
0F80
1D80
39C0
30E0
70E0
E070
E038
ENDCHAR
STARTCHAR char121
ENCODING 121
SWIDTH 14 0
DWIDTH 15 0
BBX 13 22 1 -6
BITMAP
C038
E030
E030
6070
7060
70E0
30E0
38C0
39C0
19C0
1D80
1F80
0F80
0F00
0F00
0700
0600
0E00
0C00
1C00
7C00
7800
ENDCHAR
STARTCHAR char122
ENCODING 122
SWIDTH 14 0
DWIDTH 15 0
BBX 12 16 1 0
BITMAP
7FF0
7FF0
0070
00E0
01C0
0380
0380
0700
0E00
1C00
1800
3800
7000
E000
FFF0
FFF0
ENDCHAR
STARTCHAR char123
ENCODING 123
SWIDTH 30 0
DWIDTH 10 0
BBX 7 28 1 -6
BITMAP
0E
1E
18
18
18
18
18
18
18
18
38
38
70
E0
E0
70
38
38
38
18
18
18
18
18
18
18
1E
0E
ENDCHAR
STARTCHAR char124
ENCODING 124
SWIDTH 24 0
DWIDTH 8 0
BBX 2 28 3 -6
BITMAP
C0
C0
C0
C0
C0
C0
C0
C0
C0
C0
C0
C0
C0
C0
C0
C0
C0
C0
C0
C0
C0
C0
C0
C0
C0
C0
C0
C0
ENDCHAR
STARTCHAR char125
ENCODING 125
SWIDTH 30 0
DWIDTH 10 0
BBX 7 28 1 -6
BITMAP
E0
F0
30
30
30
30
30
30
30
30
38
38
1C
0E
0E
1C
38
38
30
30
30
30
30
30
30
30
F0
E0
ENDCHAR
STARTCHAR char126
ENCODING 126
SWIDTH 21 0
DWIDTH 17 0
BBX 13 5 2 8
BITMAP
3800
7E18
C718
C3F0
00E0
ENDCHAR
STARTCHAR char160
ENCODING 160
SWIDTH 24 0
DWIDTH 8 0
BBX 0 0 0 0
BITMAP
ENDCHAR
STARTCHAR char161
ENCODING 161
SWIDTH 24 0
DWIDTH 8 0
BBX 2 21 3 -5
BITMAP
C0
C0
C0
00
00
C0
C0
C0
C0
C0
C0
C0
C0
C0
C0
C0
C0
C0
C0
C0
C0
ENDCHAR
STARTCHAR char162
ENCODING 162
SWIDTH 17 0
DWIDTH 16 0
BBX 13 22 2 -4
BITMAP
0200
0200
0200
1FC0
3FE0
7270
E230
E238
C200
C200
C200
C200
C200
C238
E238
E230
7AF0
3FE0
0FC0
0200
0200
0200
ENDCHAR
STARTCHAR char163
ENCODING 163
SWIDTH 17 0
DWIDTH 16 0
BBX 15 22 1 0
BITMAP
07C0
1FF0
3C78
7038
701C
601C
601C
7000
7000
3800
FFC0
FFC0
1C00
0C00
0C00
0C00
1800
1800
3004
7FFC
FFFE
61F8
ENDCHAR
STARTCHAR char164
ENCODING 164
SWIDTH 17 0
DWIDTH 16 0
BBX 14 15 1 3
BITMAP
47CC
FFFC
7878
7038
E01C
C00C
C00C
C00C
C00C
C00C
E01C
7018
7878
FFEC
4FC4
ENDCHAR
STARTCHAR char165
ENCODING 165
SWIDTH 17 0
DWIDTH 16 0
BBX 15 20 1 0
BITMAP
C00E
E00C
601C
7038
3830
1870
1C60
0CE0
0EC0
0780
7FFC
7FFC
0380
0380
7FFC
0380
0380
0380
0380
0380
ENDCHAR
STARTCHAR char166
ENCODING 166
SWIDTH 24 0
DWIDTH 8 0
BBX 2 28 3 -6
BITMAP
C0
C0
C0
C0
C0
C0
C0
C0
C0
C0
C0
00
00
00
00
00
00
C0
C0
C0
C0
C0
C0
C0
C0
C0
C0
C0
ENDCHAR
STARTCHAR char167
ENCODING 167
SWIDTH 17 0
DWIDTH 16 0
BBX 14 28 1 -6
BITMAP
07C0
0FE0
1CF0
3830
3838
3838
3C00
1E00
1F80
3FC0
63F0
E0F8
E078
E03C
F01C
781C
3C1C
1E18
0FB8
03F0
01E0
0070
7070
7030
7070
38F0
3FE0
0FC0
ENDCHAR
STARTCHAR char168
ENCODING 168
SWIDTH 30 0
DWIDTH 10 0
BBX 8 3 1 17
BITMAP
E7
E7
E7
ENDCHAR
STARTCHAR char169
ENCODING 169
SWIDTH 5 0
DWIDTH 22 0
BBX 20 20 1 0
BITMAP
03FC00
0E0700
180180
3000C0
61F840
439C20
C60620
860630
8C0010
8C0010
8C0010
8C0610
860630
C60620
43FC60
60F840
3000C0
180380
0F0E00
01F800
ENDCHAR
STARTCHAR char170
ENCODING 170
SWIDTH 2 0
DWIDTH 11 0
BBX 9 13 1 9
BITMAP
3E00
7F00
C300
0300
3F00
7300
C300
C300
FF00
7980
0000
0000
FF00
ENDCHAR
STARTCHAR char171
ENCODING 171
SWIDTH 17 0
DWIDTH 16 0
BBX 10 10 3 3
BITMAP
1040
3040
71C0
E380
C300
C300
E380
71C0
30C0
1040
ENDCHAR
STARTCHAR char172
ENCODING 172
SWIDTH 21 0
DWIDTH 17 0
BBX 13 6 2 5
BITMAP
FFF8
FFF8
0018
0018
0018
0018
ENDCHAR
STARTCHAR char173
ENCODING 173
SWIDTH 30 0
DWIDTH 10 0
BBX 7 2 1 7
BITMAP
FE
FE
ENDCHAR
STARTCHAR char174
ENCODING 174
SWIDTH 5 0
DWIDTH 22 0
BBX 20 20 1 0
BITMAP
03FC00
0E0700
180180
3000C0
67F840
47FC20
C40C20
840430
840C10
87F810
87FC10
840C10
840C30
C40C20
440C60
640640
3000C0
180380
0F0E00
01F800
ENDCHAR
STARTCHAR char175
ENCODING 175
SWIDTH 30 0
DWIDTH 10 0
BBX 8 2 1 18
BITMAP
FF
FF
ENDCHAR
STARTCHAR char176
ENCODING 176
SWIDTH 5 0
DWIDTH 12 0
BBX 8 8 2 12
BITMAP
3C
E6
C3
81
81
83
C6
7C
ENDCHAR
STARTCHAR char177
ENCODING 177
SWIDTH 21 0
DWIDTH 17 0
BBX 13 16 2 0
BITMAP
0300
0300
0300
0300
0300
0300
FFF8
FFF8
0300
0300
0300
0300
0000
0000
FFF8
FFF8
ENDCHAR
STARTCHAR char178
ENCODING 178
SWIDTH 30 0
DWIDTH 10 0
BBX 8 11 1 9
BITMAP
3C
66
C3
C3
06
0E
38
60
C0
FF
FF
ENDCHAR
STARTCHAR char179
ENCODING 179
SWIDTH 30 0
DWIDTH 10 0
BBX 8 11 1 9
BITMAP
3C
6E
C2
C2
0E
1C
03
C3
C3
66
3C
ENDCHAR
STARTCHAR char180
ENCODING 180
SWIDTH 30 0
DWIDTH 10 0
BBX 5 4 5 18
BITMAP
78
70
E0
C0
ENDCHAR
STARTCHAR char181
ENCODING 181
SWIDTH 17 0
DWIDTH 16 0
BBX 14 22 2 -6
BITMAP
C030
C030
C030
C030
C030
C030
C030
C030
C030
C030
C070
C070
E0F0
F1F0
FFB8
DF1C
C004
C000
C000
C000
C000
C000
ENDCHAR
STARTCHAR char182
ENCODING 182
SWIDTH 17 0
DWIDTH 16 0
BBX 14 27 1 -5
BITMAP
0FFC
1FFC
3F18
7F18
7F18
7F18
FF18
FF18
FF18
7F18
7F18
3F18
1F18
0F18
0318
0318
0318
0318
0318
0318
0318
0318
0318
0318
0318
0318
0318
ENDCHAR
STARTCHAR char183
ENCODING 183
SWIDTH 24 0
DWIDTH 8 0
BBX 3 3 3 6
BITMAP
C0
E0
C0
ENDCHAR
STARTCHAR char184
ENCODING 184
SWIDTH 30 0
DWIDTH 10 0
BBX 7 7 1 -7
BITMAP
18
10
1E
06
06
CE
7C
ENDCHAR
STARTCHAR char185
ENCODING 185
SWIDTH 30 0
DWIDTH 10 0
BBX 4 11 2 9
BITMAP
10
30
F0
10
10
10
10
10
10
10
10
ENDCHAR
STARTCHAR char186
ENCODING 186
SWIDTH 2 0
DWIDTH 11 0
BBX 8 13 1 9
BITMAP
3C
7F
63
C1
C1
C1
C1
63
7F
3C
00
00
FF
ENDCHAR
STARTCHAR char187
ENCODING 187
SWIDTH 17 0
DWIDTH 16 0
BBX 10 10 3 3
BITMAP
8400
C300
E380
71C0
30C0
30C0
71C0
E380
C300
8400
ENDCHAR
STARTCHAR char188
ENCODING 188
SWIDTH 11 0
DWIDTH 24 0
BBX 20 21 2 -1
BITMAP
1800C0
180180
F80100
180300
180600
180600
180C00
180800
181800
183060
002060
0060E0
00C1E0
008360
018660
030460
030FF0
060060
040060
0C0060
180000
ENDCHAR
STARTCHAR char189
ENCODING 189
SWIDTH 11 0
DWIDTH 24 0
BBX 20 21 2 -1
BITMAP
180100
180300
F80600
180400
180C00
181800
181800
183000
182000
186000
18C3E0
008630
018410
030010
030070
0600E0
040380
0C0600
180400
100FF0
300000
ENDCHAR
STARTCHAR char190
ENCODING 190
SWIDTH 11 0
DWIDTH 24 0
BBX 20 21 2 -1
BITMAP
3C0040
6E00C0
C20180
C20100
0E0300
1C0600
020400
830C00
C31800
E61800
3C30C0
0020C0
0061C0
00C340
008640
018C40
030FF0
030040
060040
040040
0C0000
ENDCHAR
STARTCHAR char191
ENCODING 191
SWIDTH 17 0
DWIDTH 16 0
BBX 12 22 2 -6
BITMAP
0600
0600
0600
0000
0000
0000
0600
0600
0600
0E00
1C00
3C00
7000
F000
E000
C030
C030
C070
E070
F0E0
7FE0
3F80
ENDCHAR
STARTCHAR char192
ENCODING 192
SWIDTH 30 0
DWIDTH 20 0
BBX 18 27 1 0
BITMAP
1E0000
070000
018000
000000
000000
01E000
01E000
03F000
03F000
037000
073800
073800
063800
0E1C00
0E1C00
1C1C00
1C0E00
1C0E00
3FFE00
3FFF00
380700
700700
700380
700380
E00380
E001C0
E001C0
ENDCHAR
STARTCHAR char193
ENCODING 193
SWIDTH 30 0
DWIDTH 20 0
BBX 18 28 1 0
BITMAP
001E00
003800
007000
00E000
000000
000000
01E000
01E000
03F000
03F000
037000
073800
073800
063800
0E1C00
0E1C00
1C1C00
1C0E00
1C0E00
3FFE00
3FFF00
380700
700700
700380
700380
E00380
E001C0
E001C0
ENDCHAR
STARTCHAR char194
ENCODING 194
SWIDTH 30 0
DWIDTH 20 0
BBX 18 28 1 0
BITMAP
01E000
03F000
073800
0E1C00
000000
000000
01E000
01E000
03F000
03F000
037000
073800
073800
063800
0E1C00
0E1C00
1C1C00
1C0E00
1C0E00
3FFE00
3FFF00
380700
700700
700380
700380
E00380
E001C0
E001C0
ENDCHAR
STARTCHAR char195
ENCODING 195
SWIDTH 30 0
DWIDTH 20 0
BBX 18 27 1 0
BITMAP
079800
07F800
0C7000
000000
000000
01E000
01E000
03F000
03F000
037000
073800
073800
063800
0E1C00
0E1C00
1C1C00
1C0E00
1C0E00
3FFE00
3FFF00
380700
700700
700380
700380
E00380
E001C0
E001C0
ENDCHAR
STARTCHAR char196
ENCODING 196
SWIDTH 30 0
DWIDTH 20 0
BBX 18 27 1 0
BITMAP
073800
073800
073800
000000
000000
01E000
01E000
03F000
03F000
037000
073800
073800
063800
0E1C00
0E1C00
1C1C00
1C0E00
1C0E00
3FFE00
3FFF00
380700
700700
700380
700380
E00380
E001C0
E001C0
ENDCHAR
STARTCHAR char197
ENCODING 197
SWIDTH 30 0
DWIDTH 20 0
BBX 18 28 1 0
BITMAP
01E000
032000
023000
033000
01E000
000000
01E000
01E000
03F000
03F000
037000
073800
073800
063800
0E1C00
0E1C00
1C1C00
1C0E00
1C0E00
3FFE00
3FFF00
380700
700700
700380
700380
E00380
E001C0
E001C0
ENDCHAR
STARTCHAR char198
ENCODING 198
SWIDTH 26 0
DWIDTH 29 0
BBX 27 22 1 0
BITMAP
00FFFFC0
01FFFFC0
01C60000
01860000
03860000
03860000
07060000
07060000
06060000
0E060000
0E07FFC0
1C07FFC0
1C060000
1FFE0000
3FFE0000
38060000
70060000
70060000
70060000
E0060000
E007FFE0
E007FFE0
ENDCHAR
STARTCHAR char199
ENCODING 199
SWIDTH 2 0
DWIDTH 21 0
BBX 19 28 1 -6
BITMAP
01F800
07FE00
0F9F00
1C0380
3801C0
3001C0
7001C0
700000
600000
E00000
E00000
E00000
E00000
600000
7000E0
7000E0
7001C0
3801C0
1C0380
1F9F80
07FF00
01F800
004000
007000
003800
001800
031800
01F000
ENDCHAR
STARTCHAR char200
ENCODING 200
SWIDTH 30 0
DWIDTH 20 0
BBX 15 27 3 0
BITMAP
3800
1C00
0700
0000
0000
FFFC
FFFC
C000
C000
C000
C000
C000
C000
C000
C000
FFFC
FFFC
C000
C000
C000
C000
C000
C000
C000
C000
FFFE
FFFE
ENDCHAR
STARTCHAR char201
ENCODING 201
SWIDTH 30 0
DWIDTH 20 0
BBX 15 28 3 0
BITMAP
0078
00E0
01C0
0380
0000
0000
FFFC
FFFC
C000
C000
C000
C000
C000
C000
C000
C000
FFFC
FFFC
C000
C000
C000
C000
C000
C000
C000
C000
FFFE
FFFE
ENDCHAR
STARTCHAR char202
ENCODING 202
SWIDTH 30 0
DWIDTH 20 0
BBX 15 28 3 0
BITMAP
0780
0FC0
1CE0
3870
0000
0000
FFFC
FFFC
C000
C000
C000
C000
C000
C000
C000
C000
FFFC
FFFC
C000
C000
C000
C000
C000
C000
C000
C000
FFFE
FFFE
ENDCHAR
STARTCHAR char203
ENCODING 203
SWIDTH 30 0
DWIDTH 20 0
BBX 15 27 3 0
BITMAP
1CE0
1CE0
1CE0
0000
0000
FFFC
FFFC
C000
C000
C000
C000
C000
C000
C000
C000
FFFC
FFFC
C000
C000
C000
C000
C000
C000
C000
C000
FFFE
FFFE
ENDCHAR
STARTCHAR char204
ENCODING 204
SWIDTH 24 0
DWIDTH 8 0
BBX 7 27 -1 0
BITMAP
F0
38
0C
00
00
0E
0E
0E
0E
0E
0E
0E
0E
0E
0E
0E
0E
0E
0E
0E
0E
0E
0E
0E
0E
0E
0E
ENDCHAR
STARTCHAR char205
ENCODING 205
SWIDTH 24 0
DWIDTH 8 0
BBX 7 28 3 0
BITMAP
1E
38
70
E0
00
00
E0
E0
E0
E0
E0
E0
E0
E0
E0
E0
E0
E0
E0
E0
E0
E0
E0
E0
E0
E0
E0
E0
ENDCHAR
STARTCHAR char206
ENCODING 206
SWIDTH 24 0
DWIDTH 8 0
BBX 9 28 0 0
BITMAP
3C00
7E00
6700
C180
0000
0000
1C00
1C00
1C00
1C00
1C00
1C00
1C00
1C00
1C00
1C00
1C00
1C00
1C00
1C00
1C00
1C00
1C00
1C00
1C00
1C00
1C00
1C00
ENDCHAR
STARTCHAR char207
ENCODING 207
SWIDTH 24 0
DWIDTH 8 0
BBX 7 27 1 0
BITMAP
CE
CE
CE
00
00
38
38
38
38
38
38
38
38
38
38
38
38
38
38
38
38
38
38
38
38
38
38
ENDCHAR
STARTCHAR char208
ENCODING 208
SWIDTH 2 0
DWIDTH 21 0
BBX 19 22 1 0
BITMAP
3FF800
3FFE00
303F00
300780
300380
3001C0
3001C0
3001C0
3000C0
3000C0
FF80E0
FF80E0
3000C0
3000C0
3001C0
3001C0
3001C0
300380
300780
301F00
3FFE00
3FF800
ENDCHAR
STARTCHAR char209
ENCODING 209
SWIDTH 2 0
DWIDTH 21 0
BBX 17 27 2 0
BITMAP
071800
0FF800
0CF000
000000
000000
F00380
F00380
F80380
F80380
FC0380
EE0380
EE0380
E70380
E70380
E38380
E1C380
E1C380
E0E380
E07380
E07380
E03B80
E03B80
E01F80
E00F80
E00F80
E00780
E00380
ENDCHAR
STARTCHAR char210
ENCODING 210
SWIDTH 8 0
DWIDTH 23 0
BBX 21 27 1 0
BITMAP
078000
038000
01C000
006000
000000
01FC00
07FF00
0FDF80
1E03C0
3800E0
7000E0
700070
600070
E00030
E00038
E00038
E00038
E00038
E00038
E00030
700070
700070
3800E0
3C03C0
1F9F80
07FF00
01FC00
ENDCHAR
STARTCHAR char211
ENCODING 211
SWIDTH 8 0
DWIDTH 23 0
BBX 21 27 1 0
BITMAP
000F00
001E00
001800
003000
000000
01FC00
07FF00
0FDF80
1E03C0
3800E0
7000E0
700070
600070
E00030
E00038
E00038
E00038
E00038
E00038
E00030
700070
700070
3800E0
3C03C0
1F9F80
07FF00
01FC00
ENDCHAR
STARTCHAR char212
ENCODING 212
SWIDTH 8 0
DWIDTH 23 0
BBX 21 27 1 0
BITMAP
00F800
01F800
018C00
030600
000000
01FC00
07FF00
0FDF80
1E03C0
3800E0
7000E0
700070
600070
E00030
E00038
E00038
E00038
E00038
E00038
E00030
700070
700070
3800E0
3C03C0
1F9F80
07FF00
01FC00
ENDCHAR
STARTCHAR char213
ENCODING 213
SWIDTH 8 0
DWIDTH 23 0
BBX 21 27 1 0
BITMAP
018600
03C400
033C00
000000
000000
01FC00
07FF00
0FDF80
1E03C0
3800E0
7000E0
700070
600070
E00030
E00038
E00038
E00038
E00038
E00038
E00030
700070
700070
3800E0
3C03C0
1F9F80
07FF00
01FC00
ENDCHAR
STARTCHAR char214
ENCODING 214
SWIDTH 8 0
DWIDTH 23 0
BBX 21 27 1 0
BITMAP
019C00
019C00
019C00
000000
000000
01FC00
07FF00
0FDF80
1E03C0
3800E0
7000E0
700070
600070
E00030
E00038
E00038
E00038
E00038
E00038
E00030
700070
700070
3800E0
3C03C0
1F9F80
07FF00
01FC00
ENDCHAR
STARTCHAR char215
ENCODING 215
SWIDTH 21 0
DWIDTH 17 0
BBX 11 11 3 2
BITMAP
4040
E0E0
71C0
3B80
1F00
0E00
1F00
3B80
71C0
E0E0
4040
ENDCHAR
STARTCHAR char216
ENCODING 216
SWIDTH 8 0
DWIDTH 23 0
BBX 21 22 1 0
BITMAP
01FC10
07FF30
0FCFF0
1E03E0
3801E0
7003F0
700370
600670
E00C30
E01838
E03038
E06038
E0C038
E18038
E30030
760070
7C0070
3800E0
3C03C0
7F9F80
E7FF00
41FC00
ENDCHAR
STARTCHAR char217
ENCODING 217
SWIDTH 2 0
DWIDTH 21 0
BBX 17 27 2 0
BITMAP
1E0000
070000
018000
000000
000000
E00380
E00380
E00380
E00380
E00380
E00380
E00380
E00380
E00380
E00380
E00380
E00380
E00380
E00380
E00380
E00380
600380
700700
780F00
3F7E00
1FFC00
07F000
ENDCHAR
STARTCHAR char218
ENCODING 218
SWIDTH 2 0
DWIDTH 21 0
BBX 17 28 2 0
BITMAP
001C00
003800
007000
00C000
000000
000000
E00380
E00380
E00380
E00380
E00380
E00380
E00380
E00380
E00380
E00380
E00380
E00380
E00380
E00380
E00380
E00380
600380
700700
780F00
3F7E00
1FFC00
07F000
ENDCHAR
STARTCHAR char219
ENCODING 219
SWIDTH 2 0
DWIDTH 21 0
BBX 17 28 2 0
BITMAP
03E000
03F000
063000
0C1800
000000
000000
E00380
E00380
E00380
E00380
E00380
E00380
E00380
E00380
E00380
E00380
E00380
E00380
E00380
E00380
E00380
E00380
600380
700700
780F00
3F7E00
1FFC00
07F000
ENDCHAR
STARTCHAR char220
ENCODING 220
SWIDTH 2 0
DWIDTH 21 0
BBX 17 27 2 0
BITMAP
073000
073000
073000
000000
000000
E00380
E00380
E00380
E00380
E00380
E00380
E00380
E00380
E00380
E00380
E00380
E00380
E00380
E00380
E00380
E00380
600380
700700
780F00
3F7E00
1FFC00
07F000
ENDCHAR
STARTCHAR char221
ENCODING 221
SWIDTH 30 0
DWIDTH 20 0
BBX 18 28 1 0
BITMAP
001E00
003800
007000
00E000
000000
000000
E001C0
F00380
700380
380700
380700
1C0E00
1E1C00
0E1C00
073800
073800
03F000
03E000
01E000
00C000
00C000
00C000
00C000
00C000
00C000
00C000
00C000
00C000
ENDCHAR
STARTCHAR char222
ENCODING 222
SWIDTH 30 0
DWIDTH 20 0
BBX 15 22 3 0
BITMAP
C000
C000
C000
C000
FFF0
FFF8
C03C
C01E
C00E
C00E
C00E
C00E
C01E
C03C
FFFC
FFF0
C000
C000
C000
C000
C000
C000
ENDCHAR
STARTCHAR char223
ENCODING 223
SWIDTH 24 0
DWIDTH 18 0
BBX 15 22 2 0
BITMAP
0F80
3FE0
78F0
E038
E018
C018
C018
C038
C1F0
C1E0
C1F0
C038
C01C
C00C
C00E
C00E
C00C
C01C
C01C
C0F8
C3F0
03E0
ENDCHAR
STARTCHAR char224
ENCODING 224
SWIDTH 17 0
DWIDTH 16 0
BBX 15 22 1 0
BITMAP
3800
1C00
0E00
0600
0000
0000
0FC0
3FF0
7878
7038
6038
0038
0078
0FF8
3FB8
7038
E038
E038
E078
70F8
7FDE
1F0E
ENDCHAR
STARTCHAR char225
ENCODING 225
SWIDTH 17 0
DWIDTH 16 0
BBX 15 22 1 0
BITMAP
0070
00E0
01C0
0180
0000
0000
0FC0
3FF0
7878
7038
6038
0038
0078
0FF8
3FB8
7038
E038
E038
E078
70F8
7FDE
1F0E
ENDCHAR
STARTCHAR char226
ENCODING 226
SWIDTH 17 0
DWIDTH 16 0
BBX 15 22 1 0
BITMAP
0780
0780
0EC0
0CC0
1860
0000
0FC0
3FF0
7878
7038
6038
0038
0078
0FF8
3FB8
7038
E038
E038
E078
70F8
7FDE
1F0E
ENDCHAR
STARTCHAR char227
ENCODING 227
SWIDTH 17 0
DWIDTH 16 0
BBX 15 20 1 0
BITMAP
1E20
1FE0
31C0
0000
0FC0
3FF0
7878
7038
6038
0038
0078
0FF8
3FB8
7038
E038
E038
E078
70F8
7FDE
1F0E
ENDCHAR
STARTCHAR char228
ENCODING 228
SWIDTH 17 0
DWIDTH 16 0
BBX 15 20 1 0
BITMAP
1CE0
1CE0
1CE0
0000
0FC0
3FF0
7878
7038
6038
0038
0078
0FF8
3FB8
7038
E038
E038
E078
70F8
7FDE
1F0E
ENDCHAR
STARTCHAR char229
ENCODING 229
SWIDTH 17 0
DWIDTH 16 0
BBX 15 22 1 0
BITMAP
0780
0CC0
0CC0
0CC0
0780
0000
0FC0
3FF0
7878
7038
6038
0038
0078
0FF8
3FB8
7038
E038
E038
E078
70F8
7FDE
1F0E
ENDCHAR
STARTCHAR char230
ENCODING 230
SWIDTH 17 0
DWIDTH 26 0
BBX 24 16 1 0
BITMAP
0FC3F0
3FE7F8
78FF3C
703C0E
603806
003807
003807
0FFFFF
7FFFFF
F83000
E03800
E03806
E07C0E
F1EE3C
7F8FF8
3F03F0
ENDCHAR
STARTCHAR char231
ENCODING 231
SWIDTH 14 0
DWIDTH 15 0
BBX 13 22 1 -6
BITMAP
0F80
3FE0
3CF0
7030
E038
E038
E000
C000
C000
E000
E038
E038
7030
7CF0
3FE0
0F80
0200
0780
01C0
00C0
11C0
1F80
ENDCHAR
STARTCHAR char232
ENCODING 232
SWIDTH 17 0
DWIDTH 16 0
BBX 14 22 1 0
BITMAP
3C00
1C00
0E00
0700
0000
0000
07C0
1FF0
3CF8
7038
601C
E01C
E01C
FFFC
FFFC
E000
E000
601C
7038
3C78
1FF0
0FC0
ENDCHAR
STARTCHAR char233
ENCODING 233
SWIDTH 17 0
DWIDTH 16 0
BBX 14 22 1 0
BITMAP
0070
00E0
00C0
0180
0000
0000
07C0
1FF0
3CF8
7038
601C
E01C
E01C
FFFC
FFFC
E000
E000
601C
7038
3C78
1FF0
0FC0
ENDCHAR
STARTCHAR char234
ENCODING 234
SWIDTH 17 0
DWIDTH 16 0
BBX 14 22 1 0
BITMAP
0380
0780
0EC0
0CE0
1860
0000
07C0
1FF0
3CF8
7038
601C
E01C
E01C
FFFC
FFFC
E000
E000
601C
7038
3C78
1FF0
0FC0
ENDCHAR
STARTCHAR char235
ENCODING 235
SWIDTH 17 0
DWIDTH 16 0
BBX 14 20 1 0
BITMAP
1CE0
1CE0
1CE0
0000
07C0
1FF0
3CF8
7038
601C
E01C
E01C
FFFC
FFFC
E000
E000
601C
7038
3C78
1FF0
0FC0
ENDCHAR
STARTCHAR char236
ENCODING 236
SWIDTH 24 0
DWIDTH 8 0
BBX 5 22 0 0
BITMAP
E0
60
30
18
00
00
18
18
18
18
18
18
18
18
18
18
18
18
18
18
18
18
ENDCHAR
STARTCHAR char237
ENCODING 237
SWIDTH 24 0
DWIDTH 8 0
BBX 6 22 3 0
BITMAP
3C
38
70
E0
00
00
C0
C0
C0
C0
C0
C0
C0
C0
C0
C0
C0
C0
C0
C0
C0
C0
ENDCHAR
STARTCHAR char238
ENCODING 238
SWIDTH 24 0
DWIDTH 8 0
BBX 8 22 0 0
BITMAP
3C
3E
66
C3
00
00
18
18
18
18
18
18
18
18
18
18
18
18
18
18
18
18
ENDCHAR
STARTCHAR char239
ENCODING 239
SWIDTH 24 0
DWIDTH 8 0
BBX 8 20 0 0
BITMAP
E7
E7
E7
00
18
18
18
18
18
18
18
18
18
18
18
18
18
18
18
18
ENDCHAR
STARTCHAR char240
ENCODING 240
SWIDTH 17 0
DWIDTH 16 0
BBX 14 22 1 0
BITMAP
3000
3DC0
0F00
3F00
33C0
01E0
0FE0
3FF0
7CF8
7038
6018
E01C
E01C
E01C
E01C
E01C
E01C
6018
7038
3CF0
3FF0
0FC0
ENDCHAR
STARTCHAR char241
ENCODING 241
SWIDTH 17 0
DWIDTH 16 0
BBX 12 20 2 0
BITMAP
1C60
3FC0
63C0
0000
C7C0
DFE0
D070
E030
E030
E030
C030
C030
C030
C030
C030
C030
C030
C030
C030
C030
ENDCHAR
STARTCHAR char242
ENCODING 242
SWIDTH 17 0
DWIDTH 16 0
BBX 14 22 1 0
BITMAP
3C00
1C00
0E00
0600
0100
0000
0FC0
3FE0
3CF0
7038
6018
E01C
E01C
E01C
E01C
E01C
E01C
6018
7038
3CF0
1FE0
0FC0
ENDCHAR
STARTCHAR char243
ENCODING 243
SWIDTH 17 0
DWIDTH 16 0
BBX 14 22 1 0
BITMAP
0070
00E0
01C0
0180
0000
0000
0FC0
3FE0
3CF0
7038
6018
E01C
E01C
E01C
E01C
E01C
E01C
6018
7038
3CF0
1FE0
0FC0
ENDCHAR
STARTCHAR char244
ENCODING 244
SWIDTH 17 0
DWIDTH 16 0
BBX 14 22 1 0
BITMAP
0780
0780
0EC0
0CE0
1860
0000
0FC0
3FE0
3CF0
7038
6018
E01C
E01C
E01C
E01C
E01C
E01C
6018
7038
3CF0
1FE0
0FC0
ENDCHAR
STARTCHAR char245
ENCODING 245
SWIDTH 17 0
DWIDTH 16 0
BBX 14 20 1 0
BITMAP
0E30
1FE0
31E0
0000
0FC0
3FE0
3CF0
7038
6018
E01C
E01C
E01C
E01C
E01C
E01C
6018
7038
3CF0
1FE0
0FC0
ENDCHAR
STARTCHAR char246
ENCODING 246
SWIDTH 17 0
DWIDTH 16 0
BBX 14 20 1 0
BITMAP
1CE0
1CE0
1CE0
0000
0FC0
3FE0
3CF0
7038
6018
E01C
E01C
E01C
E01C
E01C
E01C
6018
7038
3CF0
1FE0
0FC0
ENDCHAR
STARTCHAR char247
ENCODING 247
SWIDTH 21 0
DWIDTH 17 0
BBX 13 14 2 0
BITMAP
0700
0700
0700
0000
0000
0000
FFF8
FFF8
0000
0000
0000
0700
0700
0700
ENDCHAR
STARTCHAR char248
ENCODING 248
SWIDTH 17 0
DWIDTH 16 0
BBX 14 16 1 0
BITMAP
0FC0
3FEC
3CF8
7038
6078
E0DC
E19C
E31C
E31C
E61C
EC1C
7818
7038
7CF0
DFE0
4FC0
ENDCHAR
STARTCHAR char249
ENCODING 249
SWIDTH 17 0
DWIDTH 16 0
BBX 12 22 2 0
BITMAP
7800
3800
1C00
0C00
0200
0000
C030
C030
C030
C030
C030
C030
C030
C030
C030
C030
C070
C070
E0F0
F1F0
7FB0
3E30
ENDCHAR
STARTCHAR char250
ENCODING 250
SWIDTH 17 0
DWIDTH 16 0
BBX 12 22 2 0
BITMAP
00E0
01C0
0380
0300
0000
0000
C030
C030
C030
C030
C030
C030
C030
C030
C030
C030
C070
C070
E0F0
F1F0
7FB0
3E30
ENDCHAR
STARTCHAR char251
ENCODING 251
SWIDTH 17 0
DWIDTH 16 0
BBX 12 22 2 0
BITMAP
0F00
0F80
1980
30C0
0000
0000
C030
C030
C030
C030
C030
C030
C030
C030
C030
C030
C070
C070
E0F0
F1F0
7FB0
3E30
ENDCHAR
STARTCHAR char252
ENCODING 252
SWIDTH 17 0
DWIDTH 16 0
BBX 12 20 2 0
BITMAP
39C0
39C0
39C0
0000
C030
C030
C030
C030
C030
C030
C030
C030
C030
C030
C070
C070
E0F0
F1F0
7FB0
3E30
ENDCHAR
STARTCHAR char253
ENCODING 253
SWIDTH 14 0
DWIDTH 15 0
BBX 13 28 1 -6
BITMAP
00E0
01C0
0180
0300
0000
0000
C038
E030
E030
6070
7060
70E0
30E0
38C0
39C0
19C0
1D80
1F80
0F80
0F00
0F00
0700
0600
0E00
0C00
1C00
7C00
7800
ENDCHAR
STARTCHAR char254
ENCODING 254
SWIDTH 17 0
DWIDTH 16 0
BBX 13 27 2 -6
BITMAP
C000
C000
C000
C000
C000
CF80
DFE0
F9F0
F070
E038
C038
C018
C018
C018
C018
C038
E038
E070
F9F0
DFE0
CF80
C000
C000
C000
C000
C000
C000
ENDCHAR
STARTCHAR char255
ENCODING 255
SWIDTH 14 0
DWIDTH 15 0
BBX 13 26 1 -6
BITMAP
19C0
19C0
19C0
0000
C038
E030
E030
6070
7060
70E0
30E0
38C0
39C0
19C0
1D80
1F80
0F80
0F00
0F00
0700
0600
0E00
0C00
1C00
7C00
7800
ENDCHAR
STARTCHAR char256
ENCODING 256
SWIDTH 30 0
DWIDTH 20 0
BBX 18 27 1 0
BITMAP
07F800
07F800
000000
000000
000000
01E000
01E000
03F000
03F000
037000
073800
073800
063800
0E1C00
0E1C00
1C1C00
1C0E00
1C0E00
3FFE00
3FFF00
380700
700700
700380
700380
E00380
E001C0
E001C0
ENDCHAR
STARTCHAR char257
ENCODING 257
SWIDTH 17 0
DWIDTH 16 0
BBX 15 20 1 0
BITMAP
1FE0
1FE0
0000
0000
0FC0
3FF0
7878
7038
6038
0038
0078
0FF8
3FB8
7038
E038
E038
E078
70F8
7FDE
1F0E
ENDCHAR
STARTCHAR char258
ENCODING 258
SWIDTH 30 0
DWIDTH 20 0
BBX 18 27 1 0
BITMAP
0C0C00
0FFC00
07F000
000000
000000
01E000
01E000
03F000
03F000
037000
073800
073800
063800
0E1C00
0E1C00
1C1C00
1C0E00
1C0E00
3FFE00
3FFF00
380700
700700
700380
700380
E00380
E001C0
E001C0
ENDCHAR
STARTCHAR char259
ENCODING 259
SWIDTH 17 0
DWIDTH 16 0
BBX 15 21 1 0
BITMAP
1020
1860
1FC0
0780
0000
0FC0
3FF0
7878
7038
6038
0038
0078
0FF8
3FB8
7038
E038
E038
E078
70F8
7FDE
1F0E
ENDCHAR
STARTCHAR char260
ENCODING 260
SWIDTH 30 0
DWIDTH 20 0
BBX 18 29 1 -7
BITMAP
01E000
01E000
03F000
03F000
037000
073800
073800
063800
0E1C00
0E1C00
1C1C00
1C0E00
1C0E00
3FFE00
3FFF00
380700
700700
700380
700380
E00380
E001C0
E001C0
000180
000300
000600
000600
000700
0007C0
0003C0
ENDCHAR
STARTCHAR char261
ENCODING 261
SWIDTH 17 0
DWIDTH 16 0
BBX 15 22 1 -6
BITMAP
0FC0
3FF0
7878
7038
6038
0038
0078
0FF8
3FF8
7038
E038
E038
E078
70F8
7FDE
1F0E
0018
0030
0030
0030
003E
001E
ENDCHAR
STARTCHAR char262
ENCODING 262
SWIDTH 2 0
DWIDTH 21 0
BBX 19 27 1 0
BITMAP
000F00
001C00
003800
006000
000000
01F800
07FE00
0F9F00
1C0380
3801C0
3001C0
7001C0
700000
600000
E00000
E00000
E00000
E00000
600000
7000E0
7000E0
7001C0
3801C0
1C0380
1F9F80
07FF00
01FC00
ENDCHAR
STARTCHAR char263
ENCODING 263
SWIDTH 14 0
DWIDTH 15 0
BBX 13 22 1 0
BITMAP
00E0
00C0
0180
0300
0000
0000
0F80
3FE0
3CF0
7030
E038
E038
E000
C000
C000
E000
E038
E038
7030
7CF0
3FE0
0FC0
ENDCHAR
STARTCHAR char264
ENCODING 264
SWIDTH 2 0
DWIDTH 21 0
BBX 19 27 1 0
BITMAP
00F000
01F800
039C00
070C00
000000
01F800
07FE00
0F9F00
1C0380
3801C0
3001C0
7001C0
700000
600000
E00000
E00000
E00000
E00000
600000
7000E0
7000E0
7001C0
3801C0
1C0380
1F9F80
07FF00
01FC00
ENDCHAR
STARTCHAR char265
ENCODING 265
SWIDTH 14 0
DWIDTH 15 0
BBX 13 22 1 0
BITMAP
0700
0F80
0DC0
18C0
1860
0000
0F80
3FE0
3CF0
7030
E038
E038
E000
C000
C000
E000
E038
E038
7030
7CF0
3FE0
0FC0
ENDCHAR
STARTCHAR char266
ENCODING 266
SWIDTH 2 0
DWIDTH 21 0
BBX 19 27 1 0
BITMAP
00E000
00E000
00E000
000000
000000
01F800
07FE00
0F9F00
1C0380
3801C0
3001C0
7001C0
700000
600000
E00000
E00000
E00000
E00000
600000
7000E0
7000E0
7001C0
3801C0
1C0380
1F9F80
07FF00
01FC00
ENDCHAR
STARTCHAR char267
ENCODING 267
SWIDTH 14 0
DWIDTH 15 0
BBX 13 20 1 0
BITMAP
0700
0700
0700
0000
0F80
3FE0
3CF0
7030
E038
E038
E000
C000
C000
E000
E038
E038
7030
7CF0
3FE0
0FC0
ENDCHAR
STARTCHAR char268
ENCODING 268
SWIDTH 2 0
DWIDTH 21 0
BBX 19 27 1 0
BITMAP
070E00
039C00
01F800
00F000
000000
01F800
07FE00
0F9F00
1C0380
3801C0
3001C0
7001C0
700000
600000
E00000
E00000
E00000
E00000
600000
7000E0
7000E0
7001C0
3801C0
1C0380
1F9F80
07FF00
01FC00
ENDCHAR
STARTCHAR char269
ENCODING 269
SWIDTH 14 0
DWIDTH 15 0
BBX 13 22 1 0
BITMAP
1860
18C0
0DC0
0F80
0700
0000
0F80
3FE0
3CF0
7030
E038
E038
E000
C000
C000
E000
E038
E038
7030
7CF0
3FE0
0FC0
ENDCHAR
STARTCHAR char270
ENCODING 270
SWIDTH 2 0
DWIDTH 21 0
BBX 17 28 3 0
BITMAP
183000
0C6000
0FC000
07C000
000000
000000
FFE000
FFF800
C0FC00
C01E00
C00E00
C00700
C00700
C00700
C00300
C00300
C00380
C00380
C00300
C00300
C00700
C00700
C00700
C00E00
C01E00
C07C00
FFF800
FFE000
ENDCHAR
STARTCHAR char271
ENCODING 271
SWIDTH 17 0
DWIDTH 16 0
BBX 18 22 1 0
BITMAP
001DC0
001DC0
001DC0
001C40
001C40
001DC0
0F9D00
3FFC00
7CFC00
703C00
E03C00
E01C00
C01C00
C01C00
C01C00
C01C00
E01C00
E03C00
703C00
7CFC00
3FDC00
0F9000
ENDCHAR
STARTCHAR char272
ENCODING 272
SWIDTH 2 0
DWIDTH 21 0
BBX 19 22 1 0
BITMAP
3FF800
3FFE00
303F00
300780
300380
3001C0
3001C0
3001C0
3000C0
3000C0
FF80E0
FF80E0
3000C0
3000C0
3001C0
3001C0
3001C0
300380
300780
301F00
3FFE00
3FF800
ENDCHAR
STARTCHAR char273
ENCODING 273
SWIDTH 17 0
DWIDTH 16 0
BBX 15 22 1 0
BITMAP
0018
0018
01FE
01FE
0018
0018
0F98
3FD8
7DF8
7078
E038
E018
C018
C018
C018
C018
E018
E038
7078
7DF8
3FD8
0F98
ENDCHAR
STARTCHAR char274
ENCODING 274
SWIDTH 30 0
DWIDTH 20 0
BBX 15 27 3 0
BITMAP
1FE0
1FE0
0000
0000
0000
FFFC
FFFC
C000
C000
C000
C000
C000
C000
C000
C000
FFFC
FFFC
C000
C000
C000
C000
C000
C000
C000
C000
FFFE
FFFE
ENDCHAR
STARTCHAR char275
ENCODING 275
SWIDTH 17 0
DWIDTH 16 0
BBX 14 20 1 0
BITMAP
1FE0
1FE0
0000
0000
07C0
1FF0
3CF8
7038
601C
E01C
E01C
FFFC
FFFC
E000
E000
601C
7038
3C78
1FF0
0FC0
ENDCHAR
STARTCHAR char276
ENCODING 276
SWIDTH 30 0
DWIDTH 20 0
BBX 15 27 3 0
BITMAP
3030
3FF0
0FC0
0000
0000
FFFC
FFFC
C000
C000
C000
C000
C000
C000
C000
C000
FFFC
FFFC
C000
C000
C000
C000
C000
C000
C000
C000
FFFE
FFFE
ENDCHAR
STARTCHAR char277
ENCODING 277
SWIDTH 17 0
DWIDTH 16 0
BBX 14 21 1 0
BITMAP
1030
1860
0FE0
0780
0000
07C0
1FF0
3CF8
7038
601C
E01C
E01C
FFFC
FFFC
E000
E000
601C
7038
3C78
1FF0
0FC0
ENDCHAR
STARTCHAR char278
ENCODING 278
SWIDTH 30 0
DWIDTH 20 0
BBX 15 27 3 0
BITMAP
0380
0380
0380
0000
0000
FFFC
FFFC
C000
C000
C000
C000
C000
C000
C000
C000
FFFC
FFFC
C000
C000
C000
C000
C000
C000
C000
C000
FFFE
FFFE
ENDCHAR
STARTCHAR char279
ENCODING 279
SWIDTH 17 0
DWIDTH 16 0
BBX 14 20 1 0
BITMAP
0380
0380
0380
0000
07C0
1FF0
3CF8
7038
601C
E01C
E01C
FFFC
FFFC
E000
E000
601C
7038
3C78
1FF0
0FC0
ENDCHAR
STARTCHAR char280
ENCODING 280
SWIDTH 30 0
DWIDTH 20 0
BBX 15 29 3 -7
BITMAP
FFFC
FFFC
C000
C000
C000
C000
C000
C000
C000
C000
FFFC
FFFC
C000
C000
C000
C000
C000
C000
C000
C000
FFFE
FFFE
000C
0018
0030
0030
0038
003E
001E
ENDCHAR
STARTCHAR char281
ENCODING 281
SWIDTH 17 0
DWIDTH 16 0
BBX 14 22 1 -6
BITMAP
07C0
1FF0
3CF8
7038
601C
E01C
E01C
FFFC
FFFC
E000
E000
601C
7038
3C78
1FF0
0FC0
0180
0300
0300
0700
03C0
03C0
ENDCHAR
STARTCHAR char282
ENCODING 282
SWIDTH 30 0
DWIDTH 20 0
BBX 15 28 3 0
BITMAP
3870
1CE0
0FC0
0780
0000
0000
FFFC
FFFC
C000
C000
C000
C000
C000
C000
C000
C000
FFFC
FFFC
C000
C000
C000
C000
C000
C000
C000
C000
FFFE
FFFE
ENDCHAR
STARTCHAR char283
ENCODING 283
SWIDTH 17 0
DWIDTH 16 0
BBX 14 22 1 0
BITMAP
1860
0CE0
0EC0
0780
0380
0000
07C0
1FF0
3CF8
7038
601C
E01C
E01C
FFFC
FFFC
E000
E000
601C
7038
3C78
1FF0
0FC0
ENDCHAR
STARTCHAR char284
ENCODING 284
SWIDTH 8 0
DWIDTH 23 0
BBX 20 27 1 0
BITMAP
00F800
00F800
018C00
030600
000000
01FC00
07FF00
0FDF80
1E03C0
3801E0
3800E0
700060
700000
600000
E00000
E00000
E01FF0
E01FF0
E00070
600070
700070
700070
3800F0
1C01F0
1F9FB0
07FE30
01F800
ENDCHAR
STARTCHAR char285
ENCODING 285
SWIDTH 17 0
DWIDTH 16 0
BBX 13 28 1 -6
BITMAP
0780
07C0
0CC0
1860
0000
0000
0F98
3FD8
7CF8
7078
E038
E038
C018
C018
C018
C018
E018
E038
7038
78F8
3FD8
0F98
0018
E018
6038
7070
3FE0
0FC0
ENDCHAR
STARTCHAR char286
ENCODING 286
SWIDTH 8 0
DWIDTH 23 0
BBX 20 27 1 0
BITMAP
060300
070600
03FE00
00FC00
000000
01FC00
07FF00
0FDF80
1E03C0
3801E0
3800E0
700060
700000
600000
E00000
E00000
E01FF0
E01FF0
E00070
600070
700070
700070
3800F0
1C01F0
1F9FB0
07FE30
01F800
ENDCHAR
STARTCHAR char287
ENCODING 287
SWIDTH 17 0
DWIDTH 16 0
BBX 13 28 1 -6
BITMAP
1020
1860
0FE0
0780
0000
0000
0F98
3FD8
7CF8
7078
E038
E038
C018
C018
C018
C018
E018
E038
7038
78F8
3FD8
0F98
0018
E018
6038
7070
3FE0
0FC0
ENDCHAR
STARTCHAR char288
ENCODING 288
SWIDTH 8 0
DWIDTH 23 0
BBX 20 27 1 0
BITMAP
007000
007000
007000
000000
000000
01FC00
07FF00
0FDF80
1E03C0
3801E0
3800E0
700060
700000
600000
E00000
E00000
E01FF0
E01FF0
E00070
600070
700070
700070
3800F0
1C01F0
1F9FB0
07FE30
01F800
ENDCHAR
STARTCHAR char289
ENCODING 289
SWIDTH 17 0
DWIDTH 16 0
BBX 13 26 1 -6
BITMAP
0380
0380
0380
0000
0F98
3FD8
7CF8
7078
E038
E038
C018
C018
C018
C018
E018
E038
7038
78F8
3FD8
0F98
0018
E018
6038
7070
3FE0
0FC0
ENDCHAR
STARTCHAR char290
ENCODING 290
SWIDTH 8 0
DWIDTH 23 0
BBX 20 30 1 -8
BITMAP
01FC00
07FF00
0FDF80
1E03C0
3801E0
3800E0
700060
700000
600000
E00000
E00000
E01FF0
E01FF0
E00070
600070
700070
700070
3800F0
1C01F0
1F9FB0
07FE30
01F800
000000
007000
007000
007000
003000
001000
003000
006000
ENDCHAR
STARTCHAR char291
ENCODING 291
SWIDTH 17 0
DWIDTH 16 0
BBX 13 30 1 -6
BITMAP
0180
0300
0200
0200
0380
0380
0380
0000
0F98
3FD8
7CF8
7078
E038
E038
C018
C018
C018
C018
E018
E038
7038
78F8
3FD8
0F98
0018
E018
6038
7070
3FE0
0FC0
ENDCHAR
STARTCHAR char292
ENCODING 292
SWIDTH 2 0
DWIDTH 21 0
BBX 17 28 2 0
BITMAP
03E000
03F000
063000
0C1800
000000
000000
E00380
E00380
E00380
E00380
E00380
E00380
E00380
E00380
E00380
E00380
FFFF80
FFFF80
E00380
E00380
E00380
E00380
E00380
E00380
E00380
E00380
E00380
E00380
ENDCHAR
STARTCHAR char293
ENCODING 293
SWIDTH 17 0
DWIDTH 16 0
BBX 12 28 2 0
BITMAP
0F00
1F80
39C0
70E0
0000
0000
C000
C000
C000
C000
C000
C000
C7C0
DFE0
D8F0
F070
E030
E030
E030
C030
C030
C030
C030
C030
C030
C030
C030
C030
ENDCHAR
STARTCHAR char294
ENCODING 294
SWIDTH 2 0
DWIDTH 21 0
BBX 19 22 1 0
BITMAP
7001C0
7001C0
7001C0
7001C0
FFFFE0
7001C0
7001C0
7001C0
7001C0
7001C0
7FFFC0
7FFFC0
7001C0
7001C0
7001C0
7001C0
7001C0
7001C0
7001C0
7001C0
7001C0
7001C0
ENDCHAR
STARTCHAR char295
ENCODING 295
SWIDTH 21 0
DWIDTH 17 0
BBX 13 22 2 0
BITMAP
7000
7000
7000
7600
7C00
F000
F3E0
77F0
7C78
7838
7018
7018
7018
7018
7018
7018
7018
7018
7018
7018
7018
7018
ENDCHAR
STARTCHAR char296
ENCODING 296
SWIDTH 24 0
DWIDTH 8 0
BBX 9 27 0 0
BITMAP
7180
FF00
8F00
0000
0000
1C00
1C00
1C00
1C00
1C00
1C00
1C00
1C00
1C00
1C00
1C00
1C00
1C00
1C00
1C00
1C00
1C00
1C00
1C00
1C00
1C00
1C00
ENDCHAR
STARTCHAR char297
ENCODING 297
SWIDTH 24 0
DWIDTH 8 0
BBX 9 20 -1 0
BITMAP
3880
7F80
C700
0000
0C00
0C00
0C00
0C00
0C00
0C00
0C00
0C00
0C00
0C00
0C00
0C00
0C00
0C00
0C00
0C00
ENDCHAR
STARTCHAR char298
ENCODING 298
SWIDTH 24 0
DWIDTH 8 0
BBX 8 27 0 0
BITMAP
FF
FF
00
00
00
1C
1C
1C
1C
1C
1C
1C
1C
1C
1C
1C
1C
1C
1C
1C
1C
1C
1C
1C
1C
1C
1C
ENDCHAR
STARTCHAR char299
ENCODING 299
SWIDTH 24 0
DWIDTH 8 0
BBX 8 20 0 0
BITMAP
FF
FF
00
00
18
18
18
18
18
18
18
18
18
18
18
18
18
18
18
18
ENDCHAR
STARTCHAR char300
ENCODING 300
SWIDTH 24 0
DWIDTH 8 0
BBX 10 27 -1 0
BITMAP
C0C0
FFC0
3F80
0000
0000
0E00
0E00
0E00
0E00
0E00
0E00
0E00
0E00
0E00
0E00
0E00
0E00
0E00
0E00
0E00
0E00
0E00
0E00
0E00
0E00
0E00
0E00
ENDCHAR
STARTCHAR char301
ENCODING 301
SWIDTH 24 0
DWIDTH 8 0
BBX 8 22 0 0
BITMAP
81
C3
FF
3C
00
00
18
18
18
18
18
18
18
18
18
18
18
18
18
18
18
18
ENDCHAR
STARTCHAR char302
ENCODING 302
SWIDTH 24 0
DWIDTH 8 0
BBX 5 29 1 -7
BITMAP
38
38
38
38
38
38
38
38
38
38
38
38
38
38
38
38
38
38
38
38
38
38
30
60
60
E0
E0
78
38
ENDCHAR
STARTCHAR char303
ENCODING 303
SWIDTH 24 0
DWIDTH 8 0
BBX 5 27 1 -7
BITMAP
38
38
38
00
30
30
30
30
30
30
30
30
30
30
30
30
30
30
30
30
30
60
E0
C0
E0
F8
38
ENDCHAR
STARTCHAR char304
ENCODING 304
SWIDTH 24 0
DWIDTH 8 0
BBX 3 27 3 0
BITMAP
E0
E0
E0
00
00
E0
E0
E0
E0
E0
E0
E0
E0
E0
E0
E0
E0
E0
E0
E0
E0
E0
E0
E0
E0
E0
E0
ENDCHAR
STARTCHAR char305
ENCODING 305
SWIDTH 21 0
DWIDTH 7 0
BBX 2 16 2 0
BITMAP
C0
C0
C0
C0
C0
C0
C0
C0
C0
C0
C0
C0
C0
C0
C0
C0
ENDCHAR
STARTCHAR char306
ENCODING 306
SWIDTH 2 0
DWIDTH 21 0
BBX 17 22 2 0
BITMAP
E00380
E00380
E00380
E00380
E00380
E00380
E00380
E00380
E00380
E00380
E00380
E00380
E00380
E00380
E00380
E70380
E70380
E70380
E38380
E3CF00
E1FE00
00FC00
ENDCHAR
STARTCHAR char307
ENCODING 307
SWIDTH 8 0
DWIDTH 13 0
BBX 9 26 2 -6
BITMAP
E380
E380
8380
0000
C380
C380
C380
C380
C380
C380
C380
C380
C380
C380
C380
C380
C380
C380
C380
C380
0380
0380
0380
0380
0F80
0F00
ENDCHAR
STARTCHAR char308
ENCODING 308
SWIDTH 14 0
DWIDTH 15 0
BBX 15 28 1 0
BITMAP
00F0
01F8
039C
070E
0000
0000
0060
0060
0060
0060
0060
0060
0060
0060
0060
0060
0060
0060
0060
0060
0060
C060
C060
E0E0
E0E0
F1E0
7FC0
1F00
ENDCHAR
STARTCHAR char309
ENCODING 309
SWIDTH 21 0
DWIDTH 7 0
BBX 8 28 -1 -6
BITMAP
1C
3E
66
C3
00
00
18
18
18
18
18
18
18
18
18
18
18
18
18
18
18
18
18
18
18
18
F8
F0
ENDCHAR
STARTCHAR char310
ENCODING 310
SWIDTH 30 0
DWIDTH 20 0
BBX 17 30 2 -9
BITMAP
E00780
E00F00
E01E00
E03C00
E07800
E0F000
E1E000
E1C000
E38000
E78000
EFC000
FDC000
F8E000
F0F000
E07000
E03800
E03C00
E01C00
E00E00
E00F00
E00700
E00380
000000
000000
01C000
01C000
01C000
004000
00C000
018000
ENDCHAR
STARTCHAR char311
ENCODING 311
SWIDTH 14 0
DWIDTH 15 0
BBX 12 30 2 -9
BITMAP
C000
C000
C000
C000
C000
C000
C0E0
C1C0
C380
C700
CE00
DC00
FE00
F700
E700
C380
C380
C1C0
C0E0
C0E0
C070
C070
0000
0000
0E00
0E00
0E00
0600
0600
0C00
ENDCHAR
STARTCHAR char313
ENCODING 313
SWIDTH 17 0
DWIDTH 16 0
BBX 14 28 2 0
BITMAP
1E00
1C00
3800
6000
0000
0000
E000
E000
E000
E000
E000
E000
E000
E000
E000
E000
E000
E000
E000
E000
E000
E000
E000
E000
E000
E000
FFFC
FFFC
ENDCHAR
STARTCHAR char314
ENCODING 314
SWIDTH 21 0
DWIDTH 7 0
BBX 7 28 2 0
BITMAP
1E
3C
70
E0
00
00
C0
C0
C0
C0
C0
C0
C0
C0
C0
C0
C0
C0
C0
C0
C0
C0
C0
C0
C0
C0
C0
C0
ENDCHAR
STARTCHAR char315
ENCODING 315
SWIDTH 17 0
DWIDTH 16 0
BBX 14 30 2 -9
BITMAP
E000
E000
E000
E000
E000
E000
E000
E000
E000
E000
E000
E000
E000
E000
E000
E000
E000
E000
E000
E000
FFFC
FFFC
0000
0000
0300
0300
0300
0100
0100
0300
ENDCHAR
STARTCHAR char316
ENCODING 316
SWIDTH 21 0
DWIDTH 7 0
BBX 3 30 2 -9
BITMAP
C0
C0
C0
C0
C0
C0
C0
C0
C0
C0
C0
C0
C0
C0
C0
C0
C0
C0
C0
C0
C0
C0
00
00
E0
E0
E0
60
60
C0
ENDCHAR
STARTCHAR char317
ENCODING 317
SWIDTH 17 0
DWIDTH 16 0
BBX 14 22 2 0
BITMAP
E700
E700
E700
E100
E300
E600
E000
E000
E000
E000
E000
E000
E000
E000
E000
E000
E000
E000
E000
E000
FFFC
FFFC
ENDCHAR
STARTCHAR char318
ENCODING 318
SWIDTH 21 0
DWIDTH 7 0
BBX 7 22 2 0
BITMAP
CE
CE
CE
C2
C2
CE
C8
C0
C0
C0
C0
C0
C0
C0
C0
C0
C0
C0
C0
C0
C0
C0
ENDCHAR
STARTCHAR char319
ENCODING 319
SWIDTH 17 0
DWIDTH 16 0
BBX 14 22 2 0
BITMAP
E000
E000
E000
E000
E000
E000
E000
E000
E000
E0E0
E0E0
E0E0
E000
E000
E000
E000
E000
E000
E000
E000
FFFC
FFFC
ENDCHAR
STARTCHAR char320
ENCODING 320
SWIDTH 27 0
DWIDTH 9 0
BBX 7 22 2 0
BITMAP
C0
C0
C0
C0
C0
C0
C0
C0
C0
CE
CE
CE
C0
C0
C0
C0
C0
C0
C0
C0
C0
C0
ENDCHAR
STARTCHAR char321
ENCODING 321
SWIDTH 24 0
DWIDTH 18 0
BBX 15 22 2 0
BITMAP
3000
3000
3000
3000
3000
3000
3100
3300
3700
3E00
3C00
3800
7000
F000
F000
B000
3000
3000
3000
3000
3FFE
3FFE
ENDCHAR
STARTCHAR char322
ENCODING 322
SWIDTH 27 0
DWIDTH 9 0
BBX 7 22 1 0
BITMAP
38
38
38
38
38
3A
3E
3E
3C
38
38
78
F8
F8
B8
38
38
38
38
38
38
38
ENDCHAR
STARTCHAR char323
ENCODING 323
SWIDTH 2 0
DWIDTH 21 0
BBX 17 28 2 0
BITMAP
001C00
003800
007000
00C000
000000
000000
F00380
F00380
F80380
F80380
FC0380
EE0380
EE0380
E70380
E70380
E38380
E1C380
E1C380
E0E380
E07380
E07380
E03B80
E03B80
E01F80
E00F80
E00F80
E00780
E00380
ENDCHAR
STARTCHAR char324
ENCODING 324
SWIDTH 17 0
DWIDTH 16 0
BBX 12 22 2 0
BITMAP
00E0
01C0
0380
0300
0000
0000
C7C0
DFE0
D070
E030
E030
E030
C030
C030
C030
C030
C030
C030
C030
C030
C030
C030
ENDCHAR
STARTCHAR char325
ENCODING 325
SWIDTH 2 0
DWIDTH 21 0
BBX 17 31 2 -9
BITMAP
F00380
F00380
F80380
F80380
FC0380
EE0380
EE0380
E70380
E70380
E38380
E1C380
E1C380
E0E380
E07380
E07380
E03B80
E03B80
E01F80
E00F80
E00F80
E00780
E00380
000000
000000
01C000
01C000
01C000
004000
004000
018000
010000
ENDCHAR
STARTCHAR char326
ENCODING 326
SWIDTH 17 0
DWIDTH 16 0
BBX 12 25 2 -9
BITMAP
C7C0
DFE0
D070
E030
E030
E030
C030
C030
C030
C030
C030
C030
C030
C030
C030
C030
0000
0000
0700
0700
0700
0300
0200
0600
0400
ENDCHAR
STARTCHAR char327
ENCODING 327
SWIDTH 2 0
DWIDTH 21 0
BBX 17 28 2 0
BITMAP
0C1800
063000
03F000
01E000
000000
000000
F00380
F00380
F80380
F80380
FC0380
EE0380
EE0380
E70380
E70380
E38380
E1C380
E1C380
E0E380
E07380
E07380
E03B80
E03B80
E01F80
E00F80
E00F80
E00780
E00380
ENDCHAR
STARTCHAR char328
ENCODING 328
SWIDTH 17 0
DWIDTH 16 0
BBX 12 22 2 0
BITMAP
30C0
1980
0F80
0F00
0000
0000
C7C0
DFE0
D070
E030
E030
E030
C030
C030
C030
C030
C030
C030
C030
C030
C030
C030
ENDCHAR
STARTCHAR char330
ENCODING 330
SWIDTH 2 0
DWIDTH 21 0
BBX 17 29 2 -7
BITMAP
F00380
F00380
F80380
F80380
FC0380
EE0380
EE0380
E70380
E70380
E38380
E1C380
E1C380
E0E380
E07380
E07380
E03B80
E03B80
E01F80
E00F80
E00F80
E00780
E00380
000380
030380
070380
070380
038700
03FF00
01FC00
ENDCHAR
STARTCHAR char331
ENCODING 331
SWIDTH 17 0
DWIDTH 16 0
BBX 12 22 2 -6
BITMAP
C7C0
DFE0
D070
E030
E030
E030
C030
C030
C030
C030
C030
C030
C030
C030
C030
C030
0030
0030
0030
0070
01F0
01E0
ENDCHAR
STARTCHAR char332
ENCODING 332
SWIDTH 8 0
DWIDTH 23 0
BBX 21 26 1 0
BITMAP
03FC00
03FC00
000000
000000
01FC00
07FF00
0FDF80
1E03C0
3800E0
7000E0
700070
600070
E00030
E00038
E00038
E00038
E00038
E00038
E00030
700070
700070
3800E0
3C03C0
1F9F80
07FF00
01FC00
ENDCHAR
STARTCHAR char333
ENCODING 333
SWIDTH 17 0
DWIDTH 16 0
BBX 14 20 1 0
BITMAP
1FE0
1FE0
0000
0000
0FC0
3FE0
3CF0
7038
6018
E01C
E01C
E01C
E01C
E01C
E01C
6018
7038
3CF0
1FE0
0FC0
ENDCHAR
STARTCHAR char334
ENCODING 334
SWIDTH 8 0
DWIDTH 23 0
BBX 21 27 1 0
BITMAP
060700
070600
03FE00
01F800
000000
01FC00
07FF00
0FDF80
1E03C0
3800E0
7000E0
700070
600070
E00030
E00038
E00038
E00038
E00038
E00038
E00030
700070
700070
3800E0
3C03C0
1F9F80
07FF00
01FC00
ENDCHAR
STARTCHAR char335
ENCODING 335
SWIDTH 17 0
DWIDTH 16 0
BBX 14 21 1 0
BITMAP
1020
1860
0FE0
0780
0000
0FC0
3FE0
3CF0
7038
6018
E01C
E01C
E01C
E01C
E01C
E01C
6018
7038
3CF0
1FE0
0FC0
ENDCHAR
STARTCHAR char336
ENCODING 336
SWIDTH 8 0
DWIDTH 23 0
BBX 21 27 1 0
BITMAP
007380
00E700
00C600
018C00
000000
01FC00
07FF00
0FDF80
1E03C0
3800E0
7000E0
700070
600070
E00030
E00038
E00038
E00038
E00038
E00038
E00030
700070
700070
3800E0
3C03C0
1F9F80
07FF00
01FC00
ENDCHAR
STARTCHAR char337
ENCODING 337
SWIDTH 17 0
DWIDTH 16 0
BBX 14 22 1 0
BITMAP
039C
0738
0630
0C60
0000
0000
0FC0
3FE0
3CF0
7038
6018
E01C
E01C
E01C
E01C
E01C
E01C
6018
7038
3CF0
1FE0
0FC0
ENDCHAR
STARTCHAR char338
ENCODING 338
SWIDTH 26 0
DWIDTH 29 0
BBX 27 22 1 0
BITMAP
07FBFFE0
0FFFFFE0
1E1F8000
38078000
70038000
70038000
70038000
60038000
E0038000
E003FFE0
E003FFE0
E003FFE0
E0038000
E0038000
60038000
70038000
70038000
38078000
3C0F8000
1FFFFFE0
0FFBFFE0
01E00000
ENDCHAR
STARTCHAR char339
ENCODING 339
SWIDTH 23 0
DWIDTH 28 0
BBX 25 16 1 0
BITMAP
0FC0F800
1FF3FE00
3CF78F00
703F0700
701E0380
E01C0180
E01C0180
E01FFF80
E00FFF80
E01C0000
E01C0000
601E0380
703E0380
3CF78F00
1FF3FE00
0FC0F800
ENDCHAR
STARTCHAR char340
ENCODING 340
SWIDTH 2 0
DWIDTH 21 0
BBX 17 28 3 0
BITMAP
003800
007000
00E000
018000
000000
000000
FFF800
FFFC00
C03E00
C00F00
C00700
C00700
C00700
C00700
C00700
C00E00
FFFC00
FFFC00
C03E00
C00E00
C00600
C00700
C00700
C00700
C00700
C00700
C00700
C00780
ENDCHAR
STARTCHAR char341
ENCODING 341
SWIDTH 30 0
DWIDTH 10 0
BBX 7 22 2 0
BITMAP
0E
1C
18
30
00
00
CE
DE
DC
F0
E0
E0
E0
C0
C0
C0
C0
C0
C0
C0
C0
C0
ENDCHAR
STARTCHAR char342
ENCODING 342
SWIDTH 2 0
DWIDTH 21 0
BBX 17 31 3 -9
BITMAP
FFF800
FFFC00
C03E00
C00F00
C00700
C00700
C00700
C00700
C00700
C00E00
FFFC00
FFFC00
C03E00
C00E00
C00600
C00700
C00700
C00700
C00700
C00700
C00700
C00780
000000
000000
038000
038000
038000
008000
008000
030000
020000
ENDCHAR
STARTCHAR char343
ENCODING 343
SWIDTH 30 0
DWIDTH 10 0
BBX 7 24 2 -9
BITMAP
CE
DE
DC
F0
E0
E0
E0
C0
C0
C0
C0
C0
C0
C0
C0
C0
00
00
E0
E0
E0
60
60
C0
ENDCHAR
STARTCHAR char344
ENCODING 344
SWIDTH 2 0
DWIDTH 21 0
BBX 17 28 3 0
BITMAP
183000
0C6000
07E000
03C000
000000
000000
FFF800
FFFC00
C03E00
C00F00
C00700
C00700
C00700
C00700
C00700
C00E00
FFFC00
FFFC00
C03E00
C00E00
C00600
C00700
C00700
C00700
C00700
C00700
C00700
C00780
ENDCHAR
STARTCHAR char345
ENCODING 345
SWIDTH 30 0
DWIDTH 10 0
BBX 8 22 1 0
BITMAP
C6
EE
6C
38
00
00
67
6F
6E
78
70
70
70
60
60
60
60
60
60
60
60
60
ENDCHAR
STARTCHAR char346
ENCODING 346
SWIDTH 30 0
DWIDTH 20 0
BBX 17 27 1 0
BITMAP
001C00
003800
007000
00C000
000000
07F000
1FFC00
3E3E00
380700
700700
700300
700300
700000
780000
3F0000
1FF000
07FE00
007F00
000780
000380
E00380
600380
700380
780780
3F3F00
1FFE00
07F800
ENDCHAR
STARTCHAR char347
ENCODING 347
SWIDTH 14 0
DWIDTH 15 0
BBX 12 22 1 0
BITMAP
00E0
01C0
0180
0300
0000
0000
1F80
3FE0
78E0
6070
E070
E000
7800
3F80
1FE0
01F0
0030
E030
E030
70F0
7FE0
1F80
ENDCHAR
STARTCHAR char348
ENCODING 348
SWIDTH 30 0
DWIDTH 20 0
BBX 17 27 1 0
BITMAP
01E000
03F000
073800
0E1800
000000
07F000
1FFC00
3E3E00
380700
700700
700300
700300
700000
780000
3F0000
1FF000
07FE00
007F00
000780
000380
E00380
600380
700380
780780
3F3F00
1FFE00
07F800
ENDCHAR
STARTCHAR char349
ENCODING 349
SWIDTH 14 0
DWIDTH 15 0
BBX 12 22 1 0
BITMAP
0700
0F80
0D80
18C0
30C0
0000
1F80
3FE0
78E0
6070
E070
E000
7800
3F80
1FE0
01F0
0030
E030
E030
70F0
7FE0
1F80
ENDCHAR
STARTCHAR char350
ENCODING 350
SWIDTH 30 0
DWIDTH 20 0
BBX 17 28 1 -6
BITMAP
07F000
1FFC00
3E3E00
380700
700700
700300
700300
700000
780000
3F0000
1FF000
07FE00
007F00
000780
000380
E00380
600380
700380
780780
3F3F00
1FFE00
07F800
008000
00E000
007000
003000
063000
03E000
ENDCHAR
STARTCHAR char351
ENCODING 351
SWIDTH 14 0
DWIDTH 15 0
BBX 12 22 1 -6
BITMAP
1F80
3FE0
78E0
6070
E070
E000
7800
3F80
1FE0
01F0
0030
E030
E030
70F0
7FE0
1F80
0600
0780
0380
0180
1180
1F00
ENDCHAR
STARTCHAR char352
ENCODING 352
SWIDTH 30 0
DWIDTH 20 0
BBX 17 27 1 0
BITMAP
0E1800
073800
03F000
01E000
000000
07F000
1FFC00
3E3E00
380700
700700
700300
700300
700000
780000
3F0000
1FF000
07FE00
007F00
000780
000380
E00380
600380
700380
780780
3F3F00
1FFE00
07F800
ENDCHAR
STARTCHAR char353
ENCODING 353
SWIDTH 14 0
DWIDTH 15 0
BBX 12 22 1 0
BITMAP
30C0
18C0
1D80
0F80
0700
0000
1F80
3FE0
78E0
6070
E070
E000
7800
3F80
1FE0
01F0
0030
E030
E030
70F0
7FE0
1F80
ENDCHAR
STARTCHAR char354
ENCODING 354
SWIDTH 24 0
DWIDTH 18 0
BBX 16 29 1 -7
BITMAP
FFFF
FFFF
0180
0180
0180
0180
0180
0180
0180
0180
0180
0180
0180
0180
0180
0180
0180
0180
0180
0180
0180
0180
0100
0300
03C0
00E0
0060
0CE0
07C0
ENDCHAR
STARTCHAR char355
ENCODING 355
SWIDTH 24 0
DWIDTH 8 0
BBX 8 26 0 -6
BITMAP
38
38
38
38
FE
FE
38
38
38
38
38
38
38
38
38
38
38
38
1E
1E
08
18
1E
07
47
7E
ENDCHAR
STARTCHAR char356
ENCODING 356
SWIDTH 24 0
DWIDTH 18 0
BBX 16 28 1 0
BITMAP
1C38
0E70
07E0
03C0
0000
0000
FFFF
FFFF
0180
0180
0180
0180
0180
0180
0180
0180
0180
0180
0180
0180
0180
0180
0180
0180
0180
0180
0180
0180
ENDCHAR
STARTCHAR char357
ENCODING 357
SWIDTH 24 0
DWIDTH 8 0
BBX 9 24 0 0
BITMAP
0380
0380
0380
0080
3980
3900
3B00
3800
FE00
FE00
3800
3800
3800
3800
3800
3800
3800
3800
3800
3800
3800
3800
1E00
0E00
ENDCHAR
STARTCHAR char360
ENCODING 360
SWIDTH 2 0
DWIDTH 21 0
BBX 17 27 2 0
BITMAP
071800
0FF800
0CF000
000000
000000
E00380
E00380
E00380
E00380
E00380
E00380
E00380
E00380
E00380
E00380
E00380
E00380
E00380
E00380
E00380
E00380
600380
700700
780F00
3F7E00
1FFC00
07F000
ENDCHAR
STARTCHAR char361
ENCODING 361
SWIDTH 17 0
DWIDTH 16 0
BBX 12 20 2 0
BITMAP
1C60
3FC0
63C0
0000
C030
C030
C030
C030
C030
C030
C030
C030
C030
C030
C070
C070
E0F0
F1F0
7FB0
3E30
ENDCHAR
STARTCHAR char362
ENCODING 362
SWIDTH 2 0
DWIDTH 21 0
BBX 17 27 2 0
BITMAP
07F800
07F800
000000
000000
000000
E00380
E00380
E00380
E00380
E00380
E00380
E00380
E00380
E00380
E00380
E00380
E00380
E00380
E00380
E00380
E00380
600380
700700
780F00
3F7E00
1FFC00
07F000
ENDCHAR
STARTCHAR char363
ENCODING 363
SWIDTH 17 0
DWIDTH 16 0
BBX 12 20 2 0
BITMAP
3FC0
3FC0
0000
0000
C030
C030
C030
C030
C030
C030
C030
C030
C030
C030
C070
C070
E0F0
F1F0
7FB0
3E30
ENDCHAR
STARTCHAR char364
ENCODING 364
SWIDTH 2 0
DWIDTH 21 0
BBX 17 27 2 0
BITMAP
1C1C00
0FF800
07F000
000000
000000
E00380
E00380
E00380
E00380
E00380
E00380
E00380
E00380
E00380
E00380
E00380
E00380
E00380
E00380
E00380
E00380
600380
700700
780F00
3F7E00
1FFC00
07F000
ENDCHAR
STARTCHAR char365
ENCODING 365
SWIDTH 17 0
DWIDTH 16 0
BBX 12 22 2 0
BITMAP
2040
30C0
1FC0
0F00
0000
0000
C030
C030
C030
C030
C030
C030
C030
C030
C030
C030
C070
C070
E0F0
F1F0
7FB0
3E30
ENDCHAR
STARTCHAR char366
ENCODING 366
SWIDTH 2 0
DWIDTH 21 0
BBX 17 28 2 0
BITMAP
01C000
036000
022000
032000
03E000
000000
E00380
E00380
E00380
E00380
E00380
E00380
E00380
E00380
E00380
E00380
E00380
E00380
E00380
E00380
E00380
E00380
600380
700700
780F00
3F7E00
1FFC00
07F000
ENDCHAR
STARTCHAR char367
ENCODING 367
SWIDTH 17 0
DWIDTH 16 0
BBX 12 22 2 0
BITMAP
0F00
1980
1880
0F80
0700
0000
C030
C030
C030
C030
C030
C030
C030
C030
C030
C030
C070
C070
E0F0
F1F0
7FB0
3E30
ENDCHAR
STARTCHAR char368
ENCODING 368
SWIDTH 2 0
DWIDTH 21 0
BBX 17 28 2 0
BITMAP
01EE00
01CC00
039800
033000
040000
000000
E00380
E00380
E00380
E00380
E00380
E00380
E00380
E00380
E00380
E00380
E00380
E00380
E00380
E00380
E00380
E00380
600380
700700
780F00
3F7E00
1FFC00
07F000
ENDCHAR
STARTCHAR char369
ENCODING 369
SWIDTH 17 0
DWIDTH 16 0
BBX 13 22 2 0
BITMAP
0738
0E70
0C60
18C0
0000
0000
C030
C030
C030
C030
C030
C030
C030
C030
C030
C030
C070
C070
E0F0
F1F0
7FB0
3E30
ENDCHAR
STARTCHAR char370
ENCODING 370
SWIDTH 2 0
DWIDTH 21 0
BBX 17 28 2 -6
BITMAP
E00380
E00380
E00380
E00380
E00380
E00380
E00380
E00380
E00380
E00380
E00380
E00380
E00380
E00380
E00380
E00380
600380
700700
780F00
3F7E00
1FFC00
07F000
00C000
00C000
018000
01C000
01F000
00F000
ENDCHAR
STARTCHAR char371
ENCODING 371
SWIDTH 17 0
DWIDTH 16 0
BBX 12 22 2 -6
BITMAP
C030
C030
C030
C030
C030
C030
C030
C030
C030
C030
C070
C070
E0F0
F1F0
7FB0
3E30
0060
00C0
01C0
01C0
00F0
00F0
ENDCHAR
STARTCHAR char372
ENCODING 372
SWIDTH 23 0
DWIDTH 28 0
BBX 26 28 1 0
BITMAP
001E0000
003F0000
00738000
00E18000
00000000
00000000
E01E01C0
E01E01C0
E01E01C0
E01E0380
703F0380
70370380
70330380
70730300
38738700
38638700
38618700
38E1C600
1CE1CE00
1CC1CE00
1CC0CE00
1DC0EC00
0DC0EC00
0F807C00
0F807C00
0F807800
07007800
07003800
ENDCHAR
STARTCHAR char373
ENCODING 373
SWIDTH 2 0
DWIDTH 21 0
BBX 21 22 0 0
BITMAP
007000
00F800
01CC00
018C00
000000
000000
E07038
607030
60F870
70F870
70D860
30D860
39DCE0
399CE0
198CC0
198CC0
1F8DC0
1F0FC0
0F0780
0F0780
0F0780
0F0700
ENDCHAR
STARTCHAR char374
ENCODING 374
SWIDTH 30 0
DWIDTH 20 0
BBX 18 28 1 0
BITMAP
01E000
03F000
073800
0E1C00
000000
000000
E001C0
F00380
700380
380700
380700
1C0E00
1E1C00
0E1C00
073800
073800
03F000
03E000
01E000
00C000
00C000
00C000
00C000
00C000
00C000
00C000
00C000
00C000
ENDCHAR
STARTCHAR char375
ENCODING 375
SWIDTH 14 0
DWIDTH 15 0
BBX 13 28 1 -6
BITMAP
0700
0F80
1980
30C0
0000
0000
C038
E030
E030
6070
7060
70E0
30E0
38C0
39C0
19C0
1D80
1F80
0F80
0F00
0F00
0700
0600
0E00
0C00
1C00
7C00
7800
ENDCHAR
STARTCHAR char376
ENCODING 376
SWIDTH 30 0
DWIDTH 20 0
BBX 18 27 1 0
BITMAP
073800
073800
073800
000000
000000
E001C0
F00380
700380
380700
380700
1C0E00
1E1C00
0E1C00
073800
073800
03F000
03E000
01E000
00C000
00C000
00C000
00C000
00C000
00C000
00C000
00C000
00C000
ENDCHAR
STARTCHAR char377
ENCODING 377
SWIDTH 24 0
DWIDTH 18 0
BBX 16 28 1 0
BITMAP
003C
0078
0060
00C0
0000
0000
7FFF
7FFF
0007
000E
001E
003C
0038
0070
00F0
01E0
01C0
0380
0780
0F00
0E00
1C00
3C00
7800
7000
E000
FFFF
FFFF
ENDCHAR
STARTCHAR char378
ENCODING 378
SWIDTH 14 0
DWIDTH 15 0
BBX 12 22 1 0
BITMAP
00E0
01C0
0180
0300
0000
0000
7FF0
7FF0
0070
00E0
01C0
0380
0380
0700
0E00
1C00
1800
3800
7000
E000
FFF0
FFF0
ENDCHAR
STARTCHAR char379
ENCODING 379
SWIDTH 24 0
DWIDTH 18 0
BBX 16 27 1 0
BITMAP
01C0
01C0
01C0
0000
0000
7FFF
7FFF
0007
000E
001E
003C
0038
0070
00F0
01E0
01C0
0380
0780
0F00
0E00
1C00
3C00
7800
7000
E000
FFFF
FFFF
ENDCHAR
STARTCHAR char380
ENCODING 380
SWIDTH 14 0
DWIDTH 15 0
BBX 12 20 1 0
BITMAP
0700
0700
0700
0000
7FF0
7FF0
0070
00E0
01C0
0380
0380
0700
0E00
1C00
1800
3800
7000
E000
FFF0
FFF0
ENDCHAR
STARTCHAR char381
ENCODING 381
SWIDTH 24 0
DWIDTH 18 0
BBX 16 28 1 0
BITMAP
0C18
0630
07E0
03C0
0000
0000
7FFF
7FFF
0007
000E
001E
003C
0038
0070
00F0
01E0
01C0
0380
0780
0F00
0E00
1C00
3C00
7800
7000
E000
FFFF
FFFF
ENDCHAR
STARTCHAR char382
ENCODING 382
SWIDTH 14 0
DWIDTH 15 0
BBX 12 22 1 0
BITMAP
30C0
1980
0F80
0700
0000
0000
7FF0
7FF0
0070
00E0
01C0
0380
0380
0700
0E00
1C00
1800
3800
7000
E000
FFF0
FFF0
ENDCHAR
STARTCHAR char383
ENCODING 383
SWIDTH 24 0
DWIDTH 8 0
BBX 5 22 3 0
BITMAP
78
F8
E0
C0
C0
C0
C0
C0
C0
C0
C0
C0
C0
C0
C0
C0
C0
C0
C0
C0
C0
C0
ENDCHAR
STARTCHAR char398
ENCODING 398
SWIDTH 30 0
DWIDTH 20 0
BBX 15 22 3 0
BITMAP
FFFE
FFFE
000E
000E
000E
000E
000E
000E
000E
000E
7FFE
7FFE
000E
000E
000E
000E
000E
000E
000E
000E
FFFE
FFFE
ENDCHAR
STARTCHAR char402
ENCODING 402
SWIDTH 17 0
DWIDTH 16 0
BBX 16 28 0 -6
BITMAP
001F
003F
007A
0070
0060
00E0
00E0
00C0
0FFC
0FFC
01C0
01C0
01C0
0180
0180
0380
0380
0380
0300
0300
0300
0700
0700
0600
0600
0E00
7C00
F800
ENDCHAR
STARTCHAR char416
ENCODING 416
SWIDTH 8 0
DWIDTH 23 0
BBX 21 25 1 0
BITMAP
000038
000038
000038
01FC18
07FF10
1FDFF0
1C03E0
3800E0
7000F0
700070
600070
E00038
E00038
E00038
E00038
E00038
E00038
600070
700070
7000F0
3800E0
3C03C0
1F9F80
07FF00
01FC00
ENDCHAR
STARTCHAR char417
ENCODING 417
SWIDTH 21 0
DWIDTH 17 0
BBX 15 19 1 0
BITMAP
0006
0006
0006
0FC2
3FF2
3CFE
703C
6018
E01C
E01C
E01C
E01C
E01C
E01C
6018
7038
3CF0
1FE0
0FC0
ENDCHAR
STARTCHAR char431
ENCODING 431
SWIDTH 8 0
DWIDTH 23 0
BBX 21 25 2 0
BITMAP
000038
000038
000038
E00390
E00390
E003B0
E003E0
E00380
E00380
E00380
E00380
E00380
E00380
E00380
E00380
E00380
E00380
E00380
E00380
600380
700700
780F00
3F7E00
1FFC00
07F000
ENDCHAR
STARTCHAR char432
ENCODING 432
SWIDTH 24 0
DWIDTH 18 0
BBX 16 19 2 0
BITMAP
0007
0007
0007
C033
C033
C036
C03E
C03C
C030
C030
C030
C030
C030
C070
C070
E0F0
F1F0
7FB0
3F30
ENDCHAR
STARTCHAR char461
ENCODING 461
SWIDTH 30 0
DWIDTH 20 0
BBX 18 28 1 0
BITMAP
0E1C00
073800
03F000
01E000
000000
000000
01E000
01E000
03F000
03F000
037000
073800
073800
063800
0E1C00
0E1C00
1C1C00
1C0E00
1C0E00
3FFE00
3FFF00
380700
700700
700380
700380
E00380
E001C0
E001C0
ENDCHAR
STARTCHAR char462
ENCODING 462
SWIDTH 17 0
DWIDTH 16 0
BBX 15 22 1 0
BITMAP
1860
0CC0
0EC0
0780
0780
0000
0FC0
3FF0
7878
7038
6038
0038
0078
0FF8
3FB8
7038
E038
E038
E078
70F8
7FDE
1F0E
ENDCHAR
STARTCHAR char463
ENCODING 463
SWIDTH 24 0
DWIDTH 8 0
BBX 9 28 0 0
BITMAP
C180
6700
7E00
3C00
0000
0000
1C00
1C00
1C00
1C00
1C00
1C00
1C00
1C00
1C00
1C00
1C00
1C00
1C00
1C00
1C00
1C00
1C00
1C00
1C00
1C00
1C00
1C00
ENDCHAR
STARTCHAR char464
ENCODING 464
SWIDTH 24 0
DWIDTH 8 0
BBX 8 22 0 0
BITMAP
C3
66
3E
3C
00
00
18
18
18
18
18
18
18
18
18
18
18
18
18
18
18
18
ENDCHAR
STARTCHAR char465
ENCODING 465
SWIDTH 8 0
DWIDTH 23 0
BBX 21 27 1 0
BITMAP
030600
018C00
01D800
00F800
000000
01FC00
07FF00
0FDF80
1E03C0
3800E0
7000E0
700070
600070
E00030
E00038
E00038
E00038
E00038
E00038
E00030
700070
700070
3800E0
3C03C0
1F9F80
07FF00
01FC00
ENDCHAR
STARTCHAR char466
ENCODING 466
SWIDTH 17 0
DWIDTH 16 0
BBX 14 22 1 0
BITMAP
1860
0CE0
0EC0
0780
0780
0000
0FC0
3FE0
3CF0
7038
6018
E01C
E01C
E01C
E01C
E01C
E01C
6018
7038
3CF0
1FE0
0FC0
ENDCHAR
STARTCHAR char467
ENCODING 467
SWIDTH 2 0
DWIDTH 21 0
BBX 17 28 2 0
BITMAP
0C1800
063000
03F000
01E000
000000
000000
E00380
E00380
E00380
E00380
E00380
E00380
E00380
E00380
E00380
E00380
E00380
E00380
E00380
E00380
E00380
E00380
600380
700700
780F00
3F7E00
1FFC00
07F000
ENDCHAR
STARTCHAR char468
ENCODING 468
SWIDTH 17 0
DWIDTH 16 0
BBX 12 22 2 0
BITMAP
30C0
1980
0F80
0F00
0000
0000
C030
C030
C030
C030
C030
C030
C030
C030
C030
C030
C070
C070
E0F0
F1F0
7FB0
3E30
ENDCHAR
STARTCHAR char471
ENCODING 471
SWIDTH 2 0
DWIDTH 21 0
BBX 17 33 2 0
BITMAP
001C00
003800
007000
00C000
000000
000000
073000
073000
073000
000000
000000
E00380
E00380
E00380
E00380
E00380
E00380
E00380
E00380
E00380
E00380
E00380
E00380
E00380
E00380
E00380
E00380
600380
700700
780F00
3F7E00
1FFC00
07F000
ENDCHAR
STARTCHAR char472
ENCODING 472
SWIDTH 17 0
DWIDTH 16 0
BBX 12 26 2 0
BITMAP
00F0
01C0
0380
0700
0000
0000
39C0
39C0
39C0
0000
C030
C030
C030
C030
C030
C030
C030
C030
C030
C030
C070
C070
E0F0
F1F0
7FB0
3E30
ENDCHAR
STARTCHAR char473
ENCODING 473
SWIDTH 2 0
DWIDTH 21 0
BBX 17 33 2 0
BITMAP
0C1800
063000
03F000
03E000
000000
000000
073000
073000
073000
000000
000000
E00380
E00380
E00380
E00380
E00380
E00380
E00380
E00380
E00380
E00380
E00380
E00380
E00380
E00380
E00380
E00380
600380
700700
780F00
3F7E00
1FFC00
07F000
ENDCHAR
STARTCHAR char474
ENCODING 474
SWIDTH 17 0
DWIDTH 16 0
BBX 12 26 2 0
BITMAP
30E0
39C0
1F80
0F00
0000
0000
39C0
39C0
39C0
0000
C030
C030
C030
C030
C030
C030
C030
C030
C030
C030
C070
C070
E0F0
F1F0
7FB0
3E30
ENDCHAR
STARTCHAR char475
ENCODING 475
SWIDTH 2 0
DWIDTH 21 0
BBX 17 33 2 0
BITMAP
1E0000
0F0000
030000
018000
000000
000000
073000
073000
073000
000000
000000
E00380
E00380
E00380
E00380
E00380
E00380
E00380
E00380
E00380
E00380
E00380
E00380
E00380
E00380
E00380
E00380
600380
700700
780F00
3F7E00
1FFC00
07F000
ENDCHAR
STARTCHAR char476
ENCODING 476
SWIDTH 17 0
DWIDTH 16 0
BBX 12 26 2 0
BITMAP
F000
3800
1C00
0E00
0000
0000
39C0
39C0
39C0
0000
C030
C030
C030
C030
C030
C030
C030
C030
C030
C030
C070
C070
E0F0
F1F0
7FB0
3E30
ENDCHAR
STARTCHAR char477
ENCODING 477
SWIDTH 17 0
DWIDTH 16 0
BBX 14 16 1 0
BITMAP
0FC0
3FF0
38F8
7038
601C
001C
001C
FFFC
FFFC
E01C
E01C
6018
7038
3CF0
1FE0
0FC0
ENDCHAR
STARTCHAR char486
ENCODING 486
SWIDTH 8 0
DWIDTH 23 0
BBX 20 27 1 0
BITMAP
030600
018C00
00FC00
00F800
000000
01FC00
07FF00
0FDF80
1E03C0
3801E0
3800E0
700060
700000
600000
E00000
E00000
E01FF0
E01FF0
E00070
600070
700070
700070
3800F0
1C01F0
1F9FB0
07FE30
01F800
ENDCHAR
STARTCHAR char487
ENCODING 487
SWIDTH 17 0
DWIDTH 16 0
BBX 13 28 1 -6
BITMAP
1860
0CC0
07C0
0780
0000
0000
0F98
3FD8
7CF8
7078
E038
E038
C018
C018
C018
C018
E018
E038
7038
78F8
3FD8
0F98
0018
E018
6038
7070
3FE0
0FC0
ENDCHAR
STARTCHAR char490
ENCODING 490
SWIDTH 8 0
DWIDTH 23 0
BBX 21 28 1 -6
BITMAP
01FC00
07FF00
0FDF80
1E03C0
3800E0
7000E0
700070
600070
E00030
E00038
E00038
E00038
E00038
E00038
E00030
700070
700070
3800E0
3C03C0
1F9F80
07FF00
01FC00
003000
006000
006000
006000
007C00
003C00
ENDCHAR
STARTCHAR char491
ENCODING 491
SWIDTH 17 0
DWIDTH 16 0
BBX 14 22 1 -6
BITMAP
0FC0
3FE0
3CF0
7038
6018
E01C
E01C
E01C
E01C
E01C
E01C
6018
7038
3CF0
1FF0
0FC0
0180
0300
0300
0300
03E0
01E0
ENDCHAR
STARTCHAR char496
ENCODING 496
SWIDTH 21 0
DWIDTH 7 0
BBX 8 28 -1 -6
BITMAP
C3
66
3E
1C
00
00
18
18
18
18
18
18
18
18
18
18
18
18
18
18
18
18
18
18
18
18
F8
F0
ENDCHAR
STARTCHAR char500
ENCODING 500
SWIDTH 8 0
DWIDTH 23 0
BBX 20 27 1 0
BITMAP
000F00
000E00
001C00
003000
000000
01FC00
07FF00
0FDF80
1E03C0
3801E0
3800E0
700060
700000
600000
E00000
E00000
E01FF0
E01FF0
E00070
600070
700070
700070
3800F0
1C01F0
1F9FB0
07FE30
01F800
ENDCHAR
STARTCHAR char501
ENCODING 501
SWIDTH 17 0
DWIDTH 16 0
BBX 13 28 1 -6
BITMAP
0070
00E0
01C0
0180
0000
0000
0F98
3FD8
7CF8
7078
E038
E038
C018
C018
C018
C018
E018
E038
7038
78F8
3FD8
0F98
0018
E018
6038
7070
3FE0
0FC0
ENDCHAR
STARTCHAR char506
ENCODING 506
SWIDTH 30 0
DWIDTH 20 0
BBX 18 33 1 0
BITMAP
001E00
003800
007000
00C000
000000
01E000
033000
023000
036000
01E000
000000
01E000
01E000
03F000
03F000
037000
073800
073800
063800
0E1C00
0E1C00
1C1C00
1C0E00
1C0E00
3FFE00
3FFF00
380700
700700
700380
700380
E00380
E001C0
E001C0
ENDCHAR
STARTCHAR char507
ENCODING 507
SWIDTH 17 0
DWIDTH 16 0
BBX 15 27 1 0
BITMAP
0078
00E0
01C0
0380
0000
0780
0CC0
0CC0
0CC0
0780
0000
0FC0
3FF0
7878
7038
6038
0038
0078
0FF8
3FB8
7038
E038
E038
E078
70F8
7FDE
1F0E
ENDCHAR
STARTCHAR char508
ENCODING 508
SWIDTH 26 0
DWIDTH 29 0
BBX 27 28 1 0
BITMAP
0000E000
0001C000
00038000
00060000
00000000
00000000
00FFFFC0
01FFFFC0
01C60000
01860000
03860000
03860000
07060000
07060000
06060000
0E060000
0E07FFC0
1C07FFC0
1C060000
1FFE0000
3FFE0000
38060000
70060000
70060000
70060000
E0060000
E007FFE0
E007FFE0
ENDCHAR
STARTCHAR char509
ENCODING 509
SWIDTH 17 0
DWIDTH 26 0
BBX 24 22 1 0
BITMAP
000380
000700
000E00
000C00
000000
000000
0FC3F0
3FE7F8
78FF3C
703C0E
603806
003807
003807
0FFFFF
7FFFFF
F83000
E03800
E03806
E07C0E
F1EE3C
7F8FF8
3F03F0
ENDCHAR
STARTCHAR char510
ENCODING 510
SWIDTH 8 0
DWIDTH 23 0
BBX 21 27 1 0
BITMAP
000F00
001E00
001800
003000
000000
01FC10
07FF30
0FCFF0
1E03E0
3801E0
7003F0
700370
600670
E00C30
E01838
E03038
E06038
E0C038
E18038
E30030
760070
7C0070
3800E0
3C03C0
7F9F80
E7FF00
41FC00
ENDCHAR
STARTCHAR char511
ENCODING 511
SWIDTH 17 0
DWIDTH 16 0
BBX 14 22 1 0
BITMAP
0038
0070
00E0
00C0
0000
0000
0FC0
3FEC
3CF8
7038
6078
E0DC
E19C
E31C
E31C
E61C
EC1C
7818
7038
7CF0
DFE0
4FC0
ENDCHAR
STARTCHAR char512
ENCODING 512
SWIDTH 30 0
DWIDTH 20 0
BBX 18 28 1 0
BITMAP
39C000
1CE000
0E6000
063000
000000
000000
01E000
01E000
03F000
03F000
037000
073800
073800
063800
0E1C00
0E1C00
1C1C00
1C0E00
1C0E00
3FFE00
3FFF00
380700
700700
700380
700380
E00380
E001C0
E001C0
ENDCHAR
STARTCHAR char513
ENCODING 513
SWIDTH 17 0
DWIDTH 16 0
BBX 15 22 1 0
BITMAP
E700
7380
3180
18C0
0CC0
0000
0FC0
3FF0
7878
7038
6038
0038
0078
0FF8
3FB8
7038
E038
E038
E078
70F8
7FDE
1F0E
ENDCHAR
STARTCHAR char516
ENCODING 516
SWIDTH 30 0
DWIDTH 20 0
BBX 15 28 3 0
BITMAP
E700
7380
39C0
08C0
0000
0000
FFFC
FFFC
C000
C000
C000
C000
C000
C000
C000
C000
FFFC
FFFC
C000
C000
C000
C000
C000
C000
C000
C000
FFFE
FFFE
ENDCHAR
STARTCHAR char517
ENCODING 517
SWIDTH 17 0
DWIDTH 16 0
BBX 14 22 1 0
BITMAP
E700
7380
3980
18C0
0C60
0000
07C0
1FF0
3CF8
7038
601C
E01C
E01C
FFFC
FFFC
E000
E000
601C
7038
3C78
1FF0
0FC0
ENDCHAR
STARTCHAR char520
ENCODING 520
SWIDTH 24 0
DWIDTH 8 0
BBX 11 28 -3 0
BITMAP
F700
3380
19C0
0C60
0000
0000
0380
0380
0380
0380
0380
0380
0380
0380
0380
0380
0380
0380
0380
0380
0380
0380
0380
0380
0380
0380
0380
0380
ENDCHAR
STARTCHAR char521
ENCODING 521
SWIDTH 24 0
DWIDTH 8 0
BBX 10 22 -3 0
BITMAP
E700
7380
39C0
0CC0
0000
0000
0300
0300
0300
0300
0300
0300
0300
0300
0300
0300
0300
0300
0300
0300
0300
0300
ENDCHAR
STARTCHAR char524
ENCODING 524
SWIDTH 8 0
DWIDTH 23 0
BBX 21 28 1 0
BITMAP
1EE000
0E7000
073800
031800
018C00
000000
01FC00
07FF00
0FDF80
1E03C0
3800E0
7000E0
700070
600070
E00030
E00038
E00038
E00038
E00038
E00038
E00030
700070
700070
3800E0
3C03C0
1F9F80
07FF00
01FC00
ENDCHAR
STARTCHAR char525
ENCODING 525
SWIDTH 17 0
DWIDTH 16 0
BBX 14 22 1 0
BITMAP
E700
7380
3980
18C0
0C40
0000
0FC0
3FE0
3CF0
7038
6018
E01C
E01C
E01C
E01C
E01C
E01C
6018
7038
3CF0
1FE0
0FC0
ENDCHAR
STARTCHAR char528
ENCODING 528
SWIDTH 2 0
DWIDTH 21 0
BBX 17 28 3 0
BITMAP
738000
398000
18C000
0C6000
000000
000000
FFF800
FFFC00
C03E00
C00F00
C00700
C00700
C00700
C00700
C00700
C00E00
FFFC00
FFFC00
C03E00
C00E00
C00600
C00700
C00700
C00700
C00700
C00700
C00700
C00780
ENDCHAR
STARTCHAR char529
ENCODING 529
SWIDTH 30 0
DWIDTH 10 0
BBX 11 22 -2 0
BITMAP
EF00
6300
3180
18C0
0000
0000
0CE0
0DE0
0DC0
0F00
0E00
0E00
0E00
0C00
0C00
0C00
0C00
0C00
0C00
0C00
0C00
0C00
ENDCHAR
STARTCHAR char532
ENCODING 532
SWIDTH 2 0
DWIDTH 21 0
BBX 17 28 2 0
BITMAP
39C000
1CC000
0C6000
063000
000000
000000
E00380
E00380
E00380
E00380
E00380
E00380
E00380
E00380
E00380
E00380
E00380
E00380
E00380
E00380
E00380
E00380
600380
700700
780F00
3F7E00
1FFC00
07F000
ENDCHAR
STARTCHAR char533
ENCODING 533
SWIDTH 17 0
DWIDTH 16 0
BBX 13 22 1 0
BITMAP
E700
7380
19C0
0CC0
0000
0000
6018
6018
6018
6018
6018
6018
6018
6018
6018
6018
6038
6038
7078
78F8
3FD8
1F18
ENDCHAR
STARTCHAR char536
ENCODING 536
SWIDTH 30 0
DWIDTH 20 0
BBX 17 30 1 -8
BITMAP
07F000
1FFC00
3E3E00
380700
700700
700300
700300
700000
780000
3F0000
1FF000
07FE00
007F00
000780
000380
E00380
600380
700380
780780
3F3F00
1FFE00
07F800
000000
01C000
01C000
01C000
00C000
004000
00C000
018000
ENDCHAR
STARTCHAR char537
ENCODING 537
SWIDTH 14 0
DWIDTH 15 0
BBX 12 24 1 -8
BITMAP
1F80
3FE0
78E0
6070
E070
E000
7800
3F80
1FE0
01F0
0030
E030
E030
70F0
7FE0
1F80
0000
0700
0700
0700
0700
0300
0200
0600
ENDCHAR
STARTCHAR char538
ENCODING 538
SWIDTH 24 0
DWIDTH 18 0
BBX 16 30 1 -9
BITMAP
FFFF
FFFF
0180
0180
0180
0180
0180
0180
0180
0180
0180
0180
0180
0180
0180
0180
0180
0180
0180
0180
0180
0180
0000
0000
01C0
01C0
01C0
0080
0080
0180
ENDCHAR
STARTCHAR char539
ENCODING 539
SWIDTH 24 0
DWIDTH 8 0
BBX 7 28 0 -8
BITMAP
38
38
38
38
FE
FE
38
38
38
38
38
38
38
38
38
38
38
38
1E
0E
00
1C
1C
1C
1C
08
08
10
ENDCHAR
STARTCHAR char567
ENCODING 567
SWIDTH 21 0
DWIDTH 7 0
BBX 5 22 -1 -6
BITMAP
18
18
18
18
18
18
18
18
18
18
18
18
18
18
18
18
18
18
18
18
F8
F0
ENDCHAR
STARTCHAR char600
ENCODING 600
SWIDTH 17 0
DWIDTH 16 0
BBX 14 16 1 0
BITMAP
0FC0
1FE0
3CF0
7038
6018
E01C
E01C
FFFC
FFFC
001C
001C
601C
7038
38F8
3FF0
0FC0
ENDCHAR
STARTCHAR char601
ENCODING 601
SWIDTH 17 0
DWIDTH 16 0
BBX 14 16 1 0
BITMAP
0FC0
3FF0
38F8
7038
601C
001C
001C
FFFC
FFFC
E01C
E01C
6018
7038
3CF0
1FE0
0FC0
ENDCHAR
STARTCHAR char702
ENCODING 702
SWIDTH 8 0
DWIDTH 13 0
BBX 9 11 2 9
BITMAP
3E00
7F00
E380
C180
0180
0180
0180
C180
E300
7F00
3E00
ENDCHAR
STARTCHAR char703
ENCODING 703
SWIDTH 8 0
DWIDTH 13 0
BBX 9 11 2 9
BITMAP
1E00
7F00
6380
E180
C000
C000
C000
C180
6380
7F00
3E00
ENDCHAR
STARTCHAR char710
ENCODING 710
SWIDTH 30 0
DWIDTH 10 0
BBX 8 5 1 17
BITMAP
3C
3C
6E
66
C3
ENDCHAR
STARTCHAR char711
ENCODING 711
SWIDTH 30 0
DWIDTH 10 0
BBX 8 5 1 17
BITMAP
C3
66
6E
3C
3C
ENDCHAR
STARTCHAR char728
ENCODING 728
SWIDTH 30 0
DWIDTH 10 0
BBX 9 4 0 17
BITMAP
C180
6380
7F00
1E00
ENDCHAR
STARTCHAR char729
ENCODING 729
SWIDTH 30 0
DWIDTH 10 0
BBX 3 3 3 17
BITMAP
E0
E0
E0
ENDCHAR
STARTCHAR char730
ENCODING 730
SWIDTH 30 0
DWIDTH 10 0
BBX 6 5 2 17
BITMAP
70
F8
8C
CC
78
ENDCHAR
STARTCHAR char731
ENCODING 731
SWIDTH 30 0
DWIDTH 10 0
BBX 5 7 3 -7
BITMAP
30
60
C0
C0
E0
F8
38
ENDCHAR
STARTCHAR char732
ENCODING 732
SWIDTH 30 0
DWIDTH 10 0
BBX 9 3 0 17
BITMAP
7980
7F80
C700
ENDCHAR
STARTCHAR char733
ENCODING 733
SWIDTH 30 0
DWIDTH 10 0
BBX 10 4 2 18
BITMAP
39C0
7380
6700
C600
ENDCHAR
STARTCHAR char768
ENCODING 768
SWIDTH 0 0
DWIDTH 0 0
BBX 5 4 -13 18
BITMAP
E0
70
38
18
ENDCHAR
STARTCHAR char769
ENCODING 769
SWIDTH 0 0
DWIDTH 0 0
BBX 6 4 -9 18
BITMAP
3C
38
70
E0
ENDCHAR
STARTCHAR char770
ENCODING 770
SWIDTH 0 0
DWIDTH 0 0
BBX 8 5 -12 17
BITMAP
3C
3C
6E
E6
C3
ENDCHAR
STARTCHAR char771
ENCODING 771
SWIDTH 0 0
DWIDTH 0 0
BBX 9 3 -13 17
BITMAP
7980
7F80
C700
ENDCHAR
STARTCHAR char772
ENCODING 772
SWIDTH 0 0
DWIDTH 0 0
BBX 8 2 -12 18
BITMAP
FF
FF
ENDCHAR
STARTCHAR char774
ENCODING 774
SWIDTH 0 0
DWIDTH 0 0
BBX 9 4 -13 17
BITMAP
C180
6380
7F00
1E00
ENDCHAR
STARTCHAR char775
ENCODING 775
SWIDTH 0 0
DWIDTH 0 0
BBX 3 3 -10 17
BITMAP
E0
E0
E0
ENDCHAR
STARTCHAR char776
ENCODING 776
SWIDTH 0 0
DWIDTH 0 0
BBX 8 3 -12 17
BITMAP
E7
E7
E7
ENDCHAR
STARTCHAR char777
ENCODING 777
SWIDTH 0 0
DWIDTH 0 0
BBX 6 7 -11 16
BITMAP
78
FC
8C
0C
38
30
30
ENDCHAR
STARTCHAR char778
ENCODING 778
SWIDTH 0 0
DWIDTH 0 0
BBX 6 5 -11 17
BITMAP
70
F8
8C
CC
78
ENDCHAR
STARTCHAR char779
ENCODING 779
SWIDTH 0 0
DWIDTH 0 0
BBX 10 4 -11 18
BITMAP
39C0
7380
6700
C600
ENDCHAR
STARTCHAR char780
ENCODING 780
SWIDTH 0 0
DWIDTH 0 0
BBX 8 5 -12 17
BITMAP
C3
E6
6E
3C
3C
ENDCHAR
STARTCHAR char783
ENCODING 783
SWIDTH 0 0
DWIDTH 0 0
BBX 10 5 -15 17
BITMAP
E700
7300
3380
19C0
18C0
ENDCHAR
STARTCHAR char785
ENCODING 785
SWIDTH 0 0
DWIDTH 0 0
BBX 9 4 -13 17
BITMAP
1E00
7F00
6380
C180
ENDCHAR
STARTCHAR char803
ENCODING 803
SWIDTH 0 0
DWIDTH 0 0
BBX 3 3 -10 -5
BITMAP
E0
E0
E0
ENDCHAR
STARTCHAR char806
ENCODING 806
SWIDTH 0 0
DWIDTH 0 0
BBX 3 7 -10 -9
BITMAP
E0
E0
E0
20
20
E0
80
ENDCHAR
STARTCHAR char814
ENCODING 814
SWIDTH 0 0
DWIDTH 0 0
BBX 10 4 -13 -6
BITMAP
C0C0
E1C0
FF80
3F00
ENDCHAR
STARTCHAR char815
ENCODING 815
SWIDTH 0 0
DWIDTH 0 0
BBX 10 4 -13 -6
BITMAP
3F00
FF80
E1C0
C0C0
ENDCHAR
STARTCHAR char816
ENCODING 816
SWIDTH 0 0
DWIDTH 0 0
BBX 9 3 -13 -5
BITMAP
7980
7F80
C700
ENDCHAR
STARTCHAR char817
ENCODING 817
SWIDTH 0 0
DWIDTH 0 0
BBX 8 2 -12 -5
BITMAP
FF
FF
ENDCHAR
STARTCHAR char818
ENCODING 818
SWIDTH 0 0
DWIDTH 0 0
BBX 8 2 -12 -5
BITMAP
FF
FF
ENDCHAR
STARTCHAR char913
ENCODING 913
SWIDTH 30 0
DWIDTH 20 0
BBX 18 22 1 0
BITMAP
01E000
01E000
03F000
03F000
037000
073800
073800
063800
0E1C00
0E1C00
1C1C00
1C0E00
1C0E00
3FFE00
3FFF00
380700
700700
700380
700380
E00380
E001C0
E001C0
ENDCHAR
STARTCHAR char914
ENCODING 914
SWIDTH 30 0
DWIDTH 20 0
BBX 16 22 2 0
BITMAP
FFF0
FFFC
E07C
E01E
E00E
E006
E006
E00E
E00E
E07C
FFF8
FFFC
E01E
E007
E007
E007
E007
E007
E007
E03E
FFFC
FFF0
ENDCHAR
STARTCHAR char915
ENCODING 915
SWIDTH 24 0
DWIDTH 18 0
BBX 14 22 3 0
BITMAP
FFFC
FFFC
C000
C000
C000
C000
C000
C000
C000
C000
C000
C000
C000
C000
C000
C000
C000
C000
C000
C000
C000
C000
ENDCHAR
STARTCHAR char916
ENCODING 916
SWIDTH 2 0
DWIDTH 21 0
BBX 21 21 0 0
BITMAP
007000
007000
00F800
00F800
01DC00
01DC00
038C00
038E00
030600
070700
060300
0E0380
0C0380
1C01C0
1801C0
3800C0
3800E0
300060
700070
7FFFF0
FFFFF8
ENDCHAR
STARTCHAR char917
ENCODING 917
SWIDTH 30 0
DWIDTH 20 0
BBX 15 22 3 0
BITMAP
FFFC
FFFC
C000
C000
C000
C000
C000
C000
C000
C000
FFFC
FFFC
C000
C000
C000
C000
C000
C000
C000
C000
FFFE
FFFE
ENDCHAR
STARTCHAR char918
ENCODING 918
SWIDTH 24 0
DWIDTH 18 0
BBX 16 22 1 0
BITMAP
7FFF
7FFF
0007
000E
001E
003C
0038
0070
00F0
01E0
01C0
0380
0780
0F00
0E00
1C00
3C00
7800
7000
E000
FFFF
FFFF
ENDCHAR
STARTCHAR char919
ENCODING 919
SWIDTH 2 0
DWIDTH 21 0
BBX 17 22 2 0
BITMAP
E00380
E00380
E00380
E00380
E00380
E00380
E00380
E00380
E00380
E00380
FFFF80
FFFF80
E00380
E00380
E00380
E00380
E00380
E00380
E00380
E00380
E00380
E00380
ENDCHAR
STARTCHAR char920
ENCODING 920
SWIDTH 8 0
DWIDTH 23 0
BBX 21 22 1 0
BITMAP
01FC00
07FF00
0FDF80
1C03C0
3800E0
7000F0
700070
600070
E00030
E00038
E7FF38
E7FF38
E00038
E00038
600070
700070
7000F0
3800E0
3C03C0
1F9F80
07FF00
01FC00
ENDCHAR
STARTCHAR char921
ENCODING 921
SWIDTH 24 0
DWIDTH 8 0
BBX 3 22 3 0
BITMAP
E0
E0
E0
E0
E0
E0
E0
E0
E0
E0
E0
E0
E0
E0
E0
E0
E0
E0
E0
E0
E0
E0
ENDCHAR
STARTCHAR char922
ENCODING 922
SWIDTH 30 0
DWIDTH 20 0
BBX 17 22 2 0
BITMAP
E00780
E00F00
E01E00
E03C00
E07800
E0F000
E1E000
E1C000
E38000
E78000
EFC000
FDC000
F8E000
F0F000
E07000
E03800
E03C00
E01C00
E00E00
E00F00
E00700
E00380
ENDCHAR
STARTCHAR char923
ENCODING 923
SWIDTH 30 0
DWIDTH 20 0
BBX 18 22 1 0
BITMAP
01E000
01E000
03F000
03F000
037000
073800
073800
063800
0E1C00
0E1C00
1C1C00
1C0E00
1C0E00
380E00
380700
380700
700700
700380
700380
E00380
E001C0
E001C0
ENDCHAR
STARTCHAR char924
ENCODING 924
SWIDTH 11 0
DWIDTH 24 0
BBX 20 22 2 0
BITMAP
F000F0
F000F0
F800F0
F801F0
F801B0
FC01B0
EC03B0
EC0330
EE0330
E60730
E60630
E70630
E30E30
E30C30
E38C30
E19C30
E19C30
E1D830
E0D830
E0F830
E0F030
E07030
ENDCHAR
STARTCHAR char925
ENCODING 925
SWIDTH 2 0
DWIDTH 21 0
BBX 17 22 2 0
BITMAP
F00380
F00380
F80380
F80380
FC0380
EE0380
EE0380
E70380
E70380
E38380
E1C380
E1C380
E0E380
E07380
E07380
E03B80
E03B80
E01F80
E00F80
E00F80
E00780
E00380
ENDCHAR
STARTCHAR char926
ENCODING 926
SWIDTH 2 0
DWIDTH 21 0
BBX 19 22 1 0
BITMAP
FFFFE0
FFFFE0
FFFFE0
000000
000000
000000
000000
000000
000000
000000
1FFF00
1FFF00
000000
000000
000000
000000
000000
000000
000000
FFFFE0
FFFFE0
FFFFE0
ENDCHAR
STARTCHAR char927
ENCODING 927
SWIDTH 8 0
DWIDTH 23 0
BBX 21 22 1 0
BITMAP
01FC00
07FF00
0FDF80
1E03C0
3800E0
7000E0
700070
600070
E00030
E00038
E00038
E00038
E00038
E00038
E00030
700070
700070
3800E0
3C03C0
1F9F80
07FF00
01FC00
ENDCHAR
STARTCHAR char928
ENCODING 928
SWIDTH 24 0
DWIDTH 18 0
BBX 16 22 1 0
BITMAP
FFFF
FFFF
E003
E003
E003
E003
E003
E003
E003
E003
E003
E003
E003
E003
E003
E003
E003
E003
E003
E003
E003
E003
ENDCHAR
STARTCHAR char929
ENCODING 929
SWIDTH 30 0
DWIDTH 20 0
BBX 15 22 3 0
BITMAP
FFF0
FFF8
C07C
C01E
C00E
C00E
C00E
C00E
C00E
C03C
FFFC
FFF0
C000
C000
C000
C000
C000
C000
C000
C000
C000
C000
ENDCHAR
STARTCHAR char931
ENCODING 931
SWIDTH 24 0
DWIDTH 18 0
BBX 16 22 1 0
BITMAP
FFFF
FFFF
F000
7800
3C00
1E00
0E00
0700
0380
01C0
00E0
00E0
01C0
0380
0700
0E00
1E00
3C00
7800
F000
FFFF
FFFF
ENDCHAR
STARTCHAR char932
ENCODING 932
SWIDTH 24 0
DWIDTH 18 0
BBX 16 22 1 0
BITMAP
FFFF
FFFF
0180
0180
0180
0180
0180
0180
0180
0180
0180
0180
0180
0180
0180
0180
0180
0180
0180
0180
0180
0180
ENDCHAR
STARTCHAR char933
ENCODING 933
SWIDTH 30 0
DWIDTH 20 0
BBX 18 22 1 0
BITMAP
E001C0
F00380
700380
380700
380700
1C0E00
1E1C00
0E1C00
073800
073800
03F000
03E000
01E000
00C000
00C000
00C000
00C000
00C000
00C000
00C000
00C000
00C000
ENDCHAR
STARTCHAR char934
ENCODING 934
SWIDTH 5 0
DWIDTH 22 0
BBX 18 22 2 0
BITMAP
00E000
00E000
00E000
00E000
01E000
0FFC00
3FFF00
78E780
70E1C0
E0E1C0
E0E0C0
E0E0C0
E0E1C0
70E1C0
78E780
3FFF00
0FFC00
01E000
00E000
00E000
00E000
00E000
ENDCHAR
STARTCHAR char935
ENCODING 935
SWIDTH 30 0
DWIDTH 20 0
BBX 18 22 1 0
BITMAP
F00380
700780
380700
3C0E00
1C0E00
0E1C00
0F3800
073800
03F000
03E000
01E000
01E000
03F000
077000
073800
0E3C00
1C1C00
1C0E00
380F00
780700
700380
E003C0
ENDCHAR
STARTCHAR char936
ENCODING 936
SWIDTH 5 0
DWIDTH 22 0
BBX 18 22 2 0
BITMAP
E0C1C0
E0C1C0
E0C1C0
E0C1C0
E0C1C0
E0C1C0
E0C1C0
E0C1C0
E0C1C0
60C380
70C380
38C700
3EDE00
0FFC00
07F800
00C000
00C000
00C000
00C000
00C000
00C000
00C000
ENDCHAR
STARTCHAR char937
ENCODING 937
SWIDTH 5 0
DWIDTH 22 0
BBX 20 22 1 0
BITMAP
01F800
07FE00
0F9F00
1E0380
3801C0
3800E0
7000E0
7000E0
700060
700060
700060
7000E0
7000E0
3801C0
3C03C0
1E0780
0F0F00
070E00
030E00
030E00
FF0FF0
FF0FF0
ENDCHAR
STARTCHAR char945
ENCODING 945
SWIDTH 8 0
DWIDTH 23 0
BBX 18 16 2 -1
BITMAP
038080
0FF0C0
1FF8C0
3819C0
700D80
600F80
E00780
C00700
C00700
C00700
E00700
600F80
701D80
3839C0
1FF0C0
0FE0C0
ENDCHAR
STARTCHAR char946
ENCODING 946
SWIDTH 17 0
DWIDTH 16 0
BBX 13 28 2 -6
BITMAP
1F80
3FE0
79E0
E070
E070
E030
E070
E070
E0E0
E7C0
E7C0
E3F0
E070
E038
E038
E038
E038
E038
E070
FDF0
FFE0
EF80
E000
E000
E000
E000
E000
E000
ENDCHAR
STARTCHAR char947
ENCODING 947
SWIDTH 27 0
DWIDTH 19 0
BBX 15 23 2 -7
BITMAP
E00E
600C
701C
7018
3018
3838
3830
1870
1C70
0C60
0EE0
0EC0
07C0
07C0
0380
0380
0380
0380
0380
0380
0380
0380
0380
ENDCHAR
STARTCHAR char948
ENCODING 948
SWIDTH 17 0
DWIDTH 16 0
BBX 14 22 1 0
BITMAP
07C0
0FF0
1C30
1C00
1C00
0C00
0E00
0700
03C0
0FE0
3F70
7838
F01C
E01C
E01C
E01C
E01C
E01C
7038
7FF8
1FF0
0FC0
ENDCHAR
STARTCHAR char949
ENCODING 949
SWIDTH 24 0
DWIDTH 18 0
BBX 13 17 2 -1
BITMAP
1FE0
3FF8
7018
E000
E000
6000
7800
1FC0
7FC0
E000
C000
C000
E000
7000
7C38
1FF8
07E0
ENDCHAR
STARTCHAR char950
ENCODING 950
SWIDTH 14 0
DWIDTH 15 0
BBX 12 28 2 -7
BITMAP
FFF0
FFF0
0780
0E00
1C00
3800
3000
7000
6000
6000
E000
E000
C000
C000
C000
E000
6000
7000
3C00
1FC0
07E0
0070
0030
0030
0070
00F0
00E0
0080
ENDCHAR
STARTCHAR char951
ENCODING 951
SWIDTH 17 0
DWIDTH 16 0
BBX 12 22 2 -6
BITMAP
C7C0
DFE0
D070
E030
E030
E030
C030
C030
C030
C030
C030
C030
C030
C030
C030
C030
0030
0030
0030
0030
0030
0030
ENDCHAR
STARTCHAR char952
ENCODING 952
SWIDTH 21 0
DWIDTH 17 0
BBX 13 22 2 0
BITMAP
0700
1FC0
3FE0
3060
6030
6030
6030
E038
C038
C018
C018
FFF8
FFF8
C018
E038
E038
6030
6030
7070
38E0
3FC0
0F80
ENDCHAR
STARTCHAR char953
ENCODING 953
SWIDTH 30 0
DWIDTH 10 0
BBX 4 16 4 0
BITMAP
C0
C0
C0
C0
C0
C0
C0
C0
C0
C0
C0
C0
E0
70
70
10
ENDCHAR
STARTCHAR char954
ENCODING 954
SWIDTH 14 0
DWIDTH 15 0
BBX 12 16 2 0
BITMAP
C0E0
C1C0
C380
C700
CE00
DC00
FE00
F700
E700
C380
C380
C1C0
C0E0
C0E0
C070
C070
ENDCHAR
STARTCHAR char955
ENCODING 955
SWIDTH 30 0
DWIDTH 20 0
BBX 16 21 2 0
BITMAP
1C00
1E00
0700
0380
01C0
00C0
00E0
00E0
01E0
01F0
03B0
0338
0738
0E18
0E1C
1C1C
180C
380E
7006
7007
E007
ENDCHAR
STARTCHAR char956
ENCODING 956
SWIDTH 30 0
DWIDTH 20 0
BBX 12 23 4 -7
BITMAP
C030
C030
C030
C030
C030
C030
C030
C030
C030
C030
C030
E070
E070
F0F0
FFF0
DFB0
C000
C000
C000
C000
C000
C000
C000
ENDCHAR
STARTCHAR char957
ENCODING 957
SWIDTH 21 0
DWIDTH 17 0
BBX 15 16 1 0
BITMAP
E00C
600E
700E
700E
300E
380E
180E
1C0C
1C0C
0E1C
0E1C
0638
0770
03E0
03C0
0180
ENDCHAR
STARTCHAR char958
ENCODING 958
SWIDTH 17 0
DWIDTH 16 0
BBX 12 28 2 -7
BITMAP
FFF0
FFF0
7800
6000
E000
E000
6000
7000
3F00
1F00
3F00
7000
E000
E000
C000
C000
E000
7000
7C00
3FC0
0FE0
0070
0030
0030
0070
00F0
00E0
0080
ENDCHAR
STARTCHAR char959
ENCODING 959
SWIDTH 17 0
DWIDTH 16 0
BBX 14 16 1 0
BITMAP
0FC0
3FE0
3CF0
7038
6018
E01C
E01C
E01C
E01C
E01C
E01C
6018
7038
3CF0
1FE0
0FC0
ENDCHAR
STARTCHAR char960
ENCODING 960
SWIDTH 30 0
DWIDTH 20 0
BBX 18 16 1 0
BITMAP
1FFFC0
7FFFC0
E70E00
C70E00
C70E00
C70E00
070E00
070E00
070E00
070E00
070E00
070E00
070E00
070E00
070E00
070E00
ENDCHAR
STARTCHAR char961
ENCODING 961
SWIDTH 27 0
DWIDTH 19 0
BBX 15 22 2 -7
BITMAP
0FE0
3FF0
3838
701C
601C
E00C
C00E
C00E
C00E
C00C
C00C
E01C
F038
FFF0
DFE0
C100
C000
C000
C000
C000
C000
C000
ENDCHAR
STARTCHAR char962
ENCODING 962
SWIDTH 17 0
DWIDTH 16 0
BBX 12 23 2 -7
BITMAP
0700
1FC0
3FE0
7070
6030
E000
E000
C000
C000
E000
E000
6000
7000
3C00
1FC0
07E0
0070
0030
0030
0070
00F0
00E0
0080
ENDCHAR
STARTCHAR char963
ENCODING 963
SWIDTH 27 0
DWIDTH 19 0
BBX 16 17 2 0
BITMAP
0007
0FFF
3FFC
7CF0
7038
E018
E01C
E01C
E01C
E01C
E01C
E01C
E018
7038
7CF0
3FE0
0FC0
ENDCHAR
STARTCHAR char964
ENCODING 964
SWIDTH 14 0
DWIDTH 15 0
BBX 11 15 2 0
BITMAP
FFE0
FFE0
0E00
0E00
0E00
0E00
0E00
0E00
0E00
0E00
0E00
0E00
0E00
0780
0380
ENDCHAR
STARTCHAR char965
ENCODING 965
SWIDTH 17 0
DWIDTH 16 0
BBX 12 16 2 0
BITMAP
C070
C070
C070
C030
C030
C030
C030
C030
C030
C030
C070
E070
E0E0
7FC0
3F80
0E00
ENDCHAR
STARTCHAR char966
ENCODING 966
SWIDTH 14 0
DWIDTH 25 0
BBX 21 22 2 -7
BITMAP
0C0FC0
1C1FE0
381870
703830
603038
E03018
C07018
C07018
C07018
E07038
607030
707070
3C71E0
1FFFC0
07FF00
007800
007000
007000
007000
007000
007000
007000
ENDCHAR
STARTCHAR char967
ENCODING 967
SWIDTH 27 0
DWIDTH 19 0
BBX 15 23 2 -7
BITMAP
E00E
701C
701C
3838
3838
1C70
1C60
0EE0
0EC0
07C0
0380
0380
0380
07C0
06C0
0EE0
1C60
1C70
3838
3838
701C
601C
E00E
ENDCHAR
STARTCHAR char968
ENCODING 968
SWIDTH 2 0
DWIDTH 21 0
BBX 17 29 2 -7
BITMAP
01C000
01C000
01C000
01C000
01C000
01C000
C1C180
C1C180
C1C180
C1C180
C1C180
C1C180
C1C180
C1C180
C1C180
C1C180
C1C180
C1C180
E1C380
71C700
3FFE00
0FFC00
01C000
01C000
01C000
01C000
01C000
01C000
01C000
ENDCHAR
STARTCHAR char969
ENCODING 969
SWIDTH 5 0
DWIDTH 22 0
BBX 18 16 2 0
BITMAP
200180
600180
600180
6001C0
E000C0
C0C0C0
C0C0C0
C0C0C0
C0C0C0
C0C0C0
E0E0C0
E0E1C0
61E180
73F380
3F3F00
1E1E00
ENDCHAR
STARTCHAR char977
ENCODING 977
SWIDTH 24 0
DWIDTH 18 0
BBX 14 23 2 0
BITMAP
0700
1FC0
30E0
6060
6070
6030
6030
6030
3830
1FFC
07FC
0030
C030
C030
C030
C030
C030
C030
E030
E070
79E0
3FC0
1F80
ENDCHAR
STARTCHAR char981
ENCODING 981
SWIDTH 2 0
DWIDTH 21 0
BBX 17 29 2 -7
BITMAP
018000
018000
018000
018000
018000
018000
07F000
1FF800
3FBC00
798E00
718700
E18300
E18300
C18380
C18380
E18300
E18300
618700
718E00
3D9E00
1FFC00
0FF000
018000
018000
018000
018000
018000
018000
018000
ENDCHAR
STARTCHAR char982
ENCODING 982
SWIDTH 5 0
DWIDTH 22 0
BBX 18 20 2 0
BITMAP
07F800
1FFC00
000700
000300
200180
600180
6001C0
6001C0
E000C0
C0C0C0
C0C0C0
C0C0C0
C0C0C0
C0C0C0
E0E0C0
E0E1C0
61E180
73F380
3F3F00
1E1E00
ENDCHAR
STARTCHAR char1009
ENCODING 1009
SWIDTH 24 0
DWIDTH 18 0
BBX 14 23 2 -7
BITMAP
0FC0
3FE0
7CF0
7038
E018
E01C
E01C
E01C
E01C
E01C
E01C
E018
F038
FCF0
7FE0
6FC0
7000
3800
1F80
0FF0
00F8
0018
000C
ENDCHAR
STARTCHAR char1013
ENCODING 1013
SWIDTH 14 0
DWIDTH 15 0
BBX 12 16 1 0
BITMAP
0F80
3FE0
38F0
7030
E000
E000
E000
FF80
FF80
E000
E000
E000
7030
78F0
3FE0
0F80
ENDCHAR
STARTCHAR char3647
ENCODING 3647
SWIDTH 30 0
DWIDTH 20 0
BBX 16 26 2 -2
BITMAP
0100
0100
FFF0
FFFC
E17C
E10E
E10E
E106
E106
E10E
E10E
E17C
FFF8
FFFC
E10E
E107
E107
E107
E107
E107
E107
E13E
FFFC
FFF0
0100
0100
ENDCHAR
STARTCHAR char7692
ENCODING 7692
SWIDTH 2 0
DWIDTH 21 0
BBX 17 27 3 -5
BITMAP
FFE000
FFF800
C0FC00
C01E00
C00E00
C00700
C00700
C00700
C00300
C00300
C00380
C00380
C00300
C00300
C00700
C00700
C00700
C00E00
C01E00
C07C00
FFF800
FFE000
000000
000000
038000
038000
038000
ENDCHAR
STARTCHAR char7693
ENCODING 7693
SWIDTH 17 0
DWIDTH 16 0
BBX 14 27 1 -5
BITMAP
001C
001C
001C
001C
001C
001C
0F9C
3FDC
7CFC
703C
E03C
E01C
C01C
C01C
C01C
C01C
E01C
E03C
703C
7CFC
3FDC
0F9C
0000
0000
0380
0380
0380
ENDCHAR
STARTCHAR char7694
ENCODING 7694
SWIDTH 2 0
DWIDTH 21 0
BBX 17 27 3 -5
BITMAP
FFE000
FFF800
C0FC00
C01E00
C00E00
C00700
C00700
C00700
C00300
C00300
C00380
C00380
C00300
C00300
C00700
C00700
C00700
C00E00
C01E00
C07C00
FFF800
FFE000
000000
000000
000000
1FE000
1FE000
ENDCHAR
STARTCHAR char7695
ENCODING 7695
SWIDTH 17 0
DWIDTH 16 0
BBX 14 26 1 -4
BITMAP
001C
001C
001C
001C
001C
001C
0F9C
3FDC
7CFC
703C
E03C
E01C
C01C
C01C
C01C
C01C
E01C
E03C
703C
7CFC
3FDC
0F9C
0000
0000
1FE0
1FE0
ENDCHAR
STARTCHAR char7716
ENCODING 7716
SWIDTH 2 0
DWIDTH 21 0
BBX 17 27 2 -5
BITMAP
E00380
E00380
E00380
E00380
E00380
E00380
E00380
E00380
E00380
E00380
FFFF80
FFFF80
E00380
E00380
E00380
E00380
E00380
E00380
E00380
E00380
E00380
E00380
000000
000000
01C000
01C000
01C000
ENDCHAR
STARTCHAR char7717
ENCODING 7717
SWIDTH 17 0
DWIDTH 16 0
BBX 12 27 2 -5
BITMAP
C000
C000
C000
C000
C000
C000
C7C0
DFE0
D8F0
F070
E030
E030
E030
C030
C030
C030
C030
C030
C030
C030
C030
C030
0000
0000
0700
0700
0700
ENDCHAR
STARTCHAR char7718
ENCODING 7718
SWIDTH 2 0
DWIDTH 21 0
BBX 17 27 2 0
BITMAP
073000
073000
073000
000000
000000
E00380
E00380
E00380
E00380
E00380
E00380
E00380
E00380
E00380
E00380
FFFF80
FFFF80
E00380
E00380
E00380
E00380
E00380
E00380
E00380
E00380
E00380
E00380
ENDCHAR
STARTCHAR char7719
ENCODING 7719
SWIDTH 17 0
DWIDTH 16 0
BBX 12 27 2 0
BITMAP
39C0
39C0
39C0
0000
0000
C000
C000
C000
C000
C000
C000
C7C0
DFE0
D8F0
F070
E030
E030
E030
C030
C030
C030
C030
C030
C030
C030
C030
C030
ENDCHAR
STARTCHAR char7722
ENCODING 7722
SWIDTH 2 0
DWIDTH 21 0
BBX 17 28 2 -6
BITMAP
E00380
E00380
E00380
E00380
E00380
E00380
E00380
E00380
E00380
E00380
FFFF80
FFFF80
E00380
E00380
E00380
E00380
E00380
E00380
E00380
E00380
E00380
E00380
000000
000000
180C00
0C1C00
0FF800
07F000
ENDCHAR
STARTCHAR char7723
ENCODING 7723
SWIDTH 17 0
DWIDTH 16 0
BBX 12 28 2 -6
BITMAP
C000
C000
C000
C000
C000
C000
C7C0
DFE0
D8F0
F070
E030
E030
E030
C030
C030
C030
C030
C030
C030
C030
C030
C030
0000
0000
6060
70E0
3FC0
1F80
ENDCHAR
STARTCHAR char7726
ENCODING 7726
SWIDTH 24 0
DWIDTH 8 0
BBX 9 33 1 0
BITMAP
0780
0F00
0C00
1800
0000
0000
CE00
CE00
CE00
0000
0000
3800
3800
3800
3800
3800
3800
3800
3800
3800
3800
3800
3800
3800
3800
3800
3800
3800
3800
3800
3800
3800
3800
ENDCHAR
STARTCHAR char7727
ENCODING 7727
SWIDTH 24 0
DWIDTH 8 0
BBX 10 26 0 0
BITMAP
03C0
0700
0E00
1C00
0000
0000
E700
E700
E700
0000
1800
1800
1800
1800
1800
1800
1800
1800
1800
1800
1800
1800
1800
1800
1800
1800
ENDCHAR
STARTCHAR char7734
ENCODING 7734
SWIDTH 17 0
DWIDTH 16 0
BBX 14 27 2 -5
BITMAP
E000
E000
E000
E000
E000
E000
E000
E000
E000
E000
E000
E000
E000
E000
E000
E000
E000
E000
E000
E000
FFFC
FFFC
0000
0000
0780
0780
0780
ENDCHAR
STARTCHAR char7735
ENCODING 7735
SWIDTH 21 0
DWIDTH 7 0
BBX 3 27 2 -5
BITMAP
C0
C0
C0
C0
C0
C0
C0
C0
C0
C0
C0
C0
C0
C0
C0
C0
C0
C0
C0
C0
C0
C0
00
00
E0
E0
E0
ENDCHAR
STARTCHAR char7736
ENCODING 7736
SWIDTH 17 0
DWIDTH 16 0
BBX 16 32 0 -5
BITMAP
FF00
FF00
0000
0000
0000
3800
3800
3800
3800
3800
3800
3800
3800
3800
3800
3800
3800
3800
3800
3800
3800
3800
3800
3800
3800
3FFF
3FFF
0000
0000
01E0
01E0
01E0
ENDCHAR
STARTCHAR char7737
ENCODING 7737
SWIDTH 21 0
DWIDTH 7 0
BBX 8 32 -1 -5
BITMAP
FF
FF
00
00
00
18
18
18
18
18
18
18
18
18
18
18
18
18
18
18
18
18
18
18
18
18
18
00
00
1C
1C
1C
ENDCHAR
STARTCHAR char7746
ENCODING 7746
SWIDTH 11 0
DWIDTH 24 0
BBX 20 27 2 -5
BITMAP
F000F0
F000F0
F800F0
F801F0
F801B0
FC01B0
EC03B0
EC0330
EE0330
E60730
E60630
E70630
E30E30
E30C30
E38C30
E19C30
E19C30
E1D830
E0D830
E0F830
E0F030
E07030
000000
000000
007000
007000
007000
ENDCHAR
STARTCHAR char7747
ENCODING 7747
SWIDTH 11 0
DWIDTH 24 0
BBX 20 21 2 -5
BITMAP
C787C0
DFEFE0
F0F870
E07030
E07030
E06030
E06030
E06030
E06030
E06030
E06030
E06030
E06030
E06030
E06030
E06030
000000
000000
007000
007000
007000
ENDCHAR
STARTCHAR char7748
ENCODING 7748
SWIDTH 2 0
DWIDTH 21 0
BBX 17 27 2 0
BITMAP
01C000
01C000
01C000
000000
000000
F00380
F00380
F80380
F80380
FC0380
EE0380
EE0380
E70380
E70380
E38380
E1C380
E1C380
E0E380
E07380
E07380
E03B80
E03B80
E01F80
E00F80
E00F80
E00780
E00380
ENDCHAR
STARTCHAR char7749
ENCODING 7749
SWIDTH 17 0
DWIDTH 16 0
BBX 12 20 2 0
BITMAP
0700
0700
0700
0000
C7C0
DFE0
D070
E030
E030
E030
C030
C030
C030
C030
C030
C030
C030
C030
C030
C030
ENDCHAR
STARTCHAR char7750
ENCODING 7750
SWIDTH 2 0
DWIDTH 21 0
BBX 17 27 2 -5
BITMAP
F00380
F00380
F80380
F80380
FC0380
EE0380
EE0380
E70380
E70380
E38380
E1C380
E1C380
E0E380
E07380
E07380
E03B80
E03B80
E01F80
E00F80
E00F80
E00780
E00380
000000
000000
01C000
01C000
01C000
ENDCHAR
STARTCHAR char7751
ENCODING 7751
SWIDTH 17 0
DWIDTH 16 0
BBX 12 21 2 -5
BITMAP
C7C0
DFE0
D070
E030
E030
E030
C030
C030
C030
C030
C030
C030
C030
C030
C030
C030
0000
0000
0700
0700
0700
ENDCHAR
STARTCHAR char7768
ENCODING 7768
SWIDTH 2 0
DWIDTH 21 0
BBX 17 27 3 0
BITMAP
038000
038000
038000
000000
000000
FFF800
FFFC00
C03E00
C00F00
C00700
C00700
C00700
C00700
C00700
C00E00
FFFC00
FFFC00
C03E00
C00E00
C00600
C00700
C00700
C00700
C00700
C00700
C00700
C00780
ENDCHAR
STARTCHAR char7769
ENCODING 7769
SWIDTH 30 0
DWIDTH 10 0
BBX 7 20 2 0
BITMAP
70
70
70
00
CE
DE
DC
F0
E0
E0
E0
C0
C0
C0
C0
C0
C0
C0
C0
C0
ENDCHAR
STARTCHAR char7770
ENCODING 7770
SWIDTH 2 0
DWIDTH 21 0
BBX 17 27 3 -5
BITMAP
FFF800
FFFC00
C03E00
C00F00
C00700
C00700
C00700
C00700
C00700
C00E00
FFFC00
FFFC00
C03E00
C00E00
C00600
C00700
C00700
C00700
C00700
C00700
C00700
C00780
000000
000000
038000
038000
038000
ENDCHAR
STARTCHAR char7771
ENCODING 7771
SWIDTH 30 0
DWIDTH 10 0
BBX 7 21 2 -5
BITMAP
CE
DE
DC
F0
E0
E0
E0
C0
C0
C0
C0
C0
C0
C0
C0
C0
00
00
E0
E0
E0
ENDCHAR
STARTCHAR char7772
ENCODING 7772
SWIDTH 2 0
DWIDTH 21 0
BBX 17 32 3 -5
BITMAP
0FF000
0FF000
000000
000000
000000
FFF800
FFFC00
C03E00
C00F00
C00700
C00700
C00700
C00700
C00700
C00E00
FFFC00
FFFC00
C03E00
C00E00
C00600
C00700
C00700
C00700
C00700
C00700
C00700
C00780
000000
000000
038000
038000
038000
ENDCHAR
STARTCHAR char7773
ENCODING 7773
SWIDTH 30 0
DWIDTH 10 0
BBX 9 25 0 -5
BITMAP
FF00
FF00
0000
0000
3380
3780
3700
3C00
3800
3800
3800
3000
3000
3000
3000
3000
3000
3000
3000
3000
0000
0000
3800
3800
3800
ENDCHAR
STARTCHAR char7778
ENCODING 7778
SWIDTH 30 0
DWIDTH 20 0
BBX 17 27 1 -5
BITMAP
07F000
1FFC00
3E3E00
380700
700700
700300
700300
700000
780000
3F0000
1FF000
07FE00
007F00
000780
000380
E00380
600380
700380
780780
3F3F00
1FFE00
07F800
000000
000000
01C000
01C000
01C000
ENDCHAR
STARTCHAR char7779
ENCODING 7779
SWIDTH 14 0
DWIDTH 15 0
BBX 12 21 1 -5
BITMAP
1F80
3FE0
78E0
6070
E070
E000
7800
3F80
1FE0
01F0
0030
E030
E030
70F0
7FE0
1F80
0000
0000
0700
0700
0700
ENDCHAR
STARTCHAR char7788
ENCODING 7788
SWIDTH 24 0
DWIDTH 18 0
BBX 16 27 1 -5
BITMAP
FFFF
FFFF
0180
0180
0180
0180
0180
0180
0180
0180
0180
0180
0180
0180
0180
0180
0180
0180
0180
0180
0180
0180
0000
0000
03C0
03C0
03C0
ENDCHAR
STARTCHAR char7789
ENCODING 7789
SWIDTH 24 0
DWIDTH 8 0
BBX 7 25 0 -5
BITMAP
38
38
38
38
FE
FE
38
38
38
38
38
38
38
38
38
38
38
38
1E
0E
00
00
1C
1C
1C
ENDCHAR
STARTCHAR char7790
ENCODING 7790
SWIDTH 24 0
DWIDTH 18 0
BBX 16 27 1 -5
BITMAP
FFFF
FFFF
0180
0180
0180
0180
0180
0180
0180
0180
0180
0180
0180
0180
0180
0180
0180
0180
0180
0180
0180
0180
0000
0000
0000
0FF0
0FF0
ENDCHAR
STARTCHAR char7791
ENCODING 7791
SWIDTH 24 0
DWIDTH 8 0
BBX 8 25 0 -5
BITMAP
38
38
38
38
FE
FE
38
38
38
38
38
38
38
38
38
38
38
38
1E
0E
00
00
00
FF
FF
ENDCHAR
STARTCHAR char7808
ENCODING 7808
SWIDTH 23 0
DWIDTH 28 0
BBX 26 27 1 0
BITMAP
01E00000
00700000
00180000
00000000
00000000
E01E01C0
E01E01C0
E01E01C0
E01E0380
703F0380
70370380
70330380
70730300
38738700
38638700
38618700
38E1C600
1CE1CE00
1CC1CE00
1CC0CE00
1DC0EC00
0DC0EC00
0F807C00
0F807C00
0F807800
07007800
07003800
ENDCHAR
STARTCHAR char7809
ENCODING 7809
SWIDTH 2 0
DWIDTH 21 0
BBX 21 22 0 0
BITMAP
038000
01C000
00C000
006000
000000
000000
E07038
607030
60F870
70F870
70D860
30D860
39DCE0
399CE0
198CC0
198CC0
1F8DC0
1F0FC0
0F0780
0F0780
0F0780
0F0700
ENDCHAR
STARTCHAR char7810
ENCODING 7810
SWIDTH 23 0
DWIDTH 28 0
BBX 26 28 1 0
BITMAP
0001E000
00038000
00070000
000E0000
00000000
00000000
E01E01C0
E01E01C0
E01E01C0
E01E0380
703F0380
70370380
70330380
70730300
38738700
38638700
38618700
38E1C600
1CE1CE00
1CC1CE00
1CC0CE00
1DC0EC00
0DC0EC00
0F807C00
0F807C00
0F807800
07007800
07003800
ENDCHAR
STARTCHAR char7811
ENCODING 7811
SWIDTH 2 0
DWIDTH 21 0
BBX 21 22 0 0
BITMAP
000E00
000C00
001800
003000
000000
000000
E07038
607030
60F870
70F870
70D860
30D860
39DCE0
399CE0
198CC0
198CC0
1F8DC0
1F0FC0
0F0780
0F0780
0F0780
0F0700
ENDCHAR
STARTCHAR char7812
ENCODING 7812
SWIDTH 23 0
DWIDTH 28 0
BBX 26 27 1 0
BITMAP
00738000
00738000
00738000
00000000
00000000
E01E01C0
E01E01C0
E01E01C0
E01E0380
703F0380
70370380
70330380
70730300
38738700
38638700
38618700
38E1C600
1CE1CE00
1CC1CE00
1CC0CE00
1DC0EC00
0DC0EC00
0F807C00
0F807C00
0F807800
07007800
07003800
ENDCHAR
STARTCHAR char7813
ENCODING 7813
SWIDTH 2 0
DWIDTH 21 0
BBX 21 20 0 0
BITMAP
01CC00
01CC00
01CC00
000000
E07038
607030
60F870
70F870
70D860
30D860
39DCE0
399CE0
198CC0
198CC0
1F8DC0
1F0FC0
0F0780
0F0780
0F0780
0F0700
ENDCHAR
STARTCHAR char7826
ENCODING 7826
SWIDTH 24 0
DWIDTH 18 0
BBX 16 27 1 -5
BITMAP
7FFF
7FFF
0007
000E
001E
003C
0038
0070
00F0
01E0
01C0
0380
0780
0F00
0E00
1C00
3C00
7800
7000
E000
FFFF
FFFF
0000
0000
01C0
01C0
01C0
ENDCHAR
STARTCHAR char7827
ENCODING 7827
SWIDTH 14 0
DWIDTH 15 0
BBX 12 21 1 -5
BITMAP
7FF0
7FF0
0070
00E0
01C0
0380
0380
0700
0E00
1C00
1800
3800
7000
E000
FFF0
FFF0
0000
0000
0700
0700
0700
ENDCHAR
STARTCHAR char7831
ENCODING 7831
SWIDTH 24 0
DWIDTH 8 0
BBX 7 25 0 0
BITMAP
E6
E6
E6
00
00
38
38
38
38
FE
FE
38
38
38
38
38
38
38
38
38
38
38
38
1E
0E
ENDCHAR
STARTCHAR char7840
ENCODING 7840
SWIDTH 30 0
DWIDTH 20 0
BBX 18 27 1 -5
BITMAP
01E000
01E000
03F000
03F000
037000
073800
073800
063800
0E1C00
0E1C00
1C1C00
1C0E00
1C0E00
3FFE00
3FFF00
380700
700700
700380
700380
E00380
E001C0
E001C0
000000
000000
01C000
01C000
01C000
ENDCHAR
STARTCHAR char7841
ENCODING 7841
SWIDTH 17 0
DWIDTH 16 0
BBX 15 21 1 -5
BITMAP
0FC0
3FF0
7878
7038
6038
0038
0078
0FF8
3FB8
7038
E038
E038
E078
70F8
7FDE
1F0E
0000
0000
0380
0380
0380
ENDCHAR
STARTCHAR char7842
ENCODING 7842
SWIDTH 30 0
DWIDTH 20 0
BBX 18 30 1 0
BITMAP
01E000
03F000
033000
003000
006000
00C000
00C000
000000
01E000
01E000
03F000
03F000
037000
073800
073800
063800
0E1C00
0E1C00
1C1C00
1C0E00
1C0E00
3FFE00
3FFF00
380700
700700
700380
700380
E00380
E001C0
E001C0
ENDCHAR
STARTCHAR char7843
ENCODING 7843
SWIDTH 17 0
DWIDTH 16 0
BBX 15 24 1 0
BITMAP
0300
0FC0
0CC0
0CC0
01C0
0300
0300
0000
0FC0
3FF0
7878
7038
6038
0038
0078
0FF8
3FB8
7038
E038
E038
E078
70F8
7FDE
1F0E
ENDCHAR
STARTCHAR char7844
ENCODING 7844
SWIDTH 30 0
DWIDTH 20 0
BBX 18 32 1 0
BITMAP
001E00
003800
007000
00C000
000000
01E000
033000
0E1800
000000
000000
01E000
01E000
03F000
03F000
037000
073800
073800
063800
0E1C00
0E1C00
1C1C00
1C0E00
1C0E00
3FFE00
3FFF00
380700
700700
700380
700380
E00380
E001C0
E001C0
ENDCHAR
STARTCHAR char7845
ENCODING 7845
SWIDTH 17 0
DWIDTH 16 0
BBX 15 26 1 0
BITMAP
0078
00E0
01C0
0380
0000
0780
0FC0
1CE0
3870
0000
0FC0
3FF0
7878
7038
6038
0038
0078
0FF8
3FB8
7038
E038
E038
E078
70F8
7FDE
1F0E
ENDCHAR
STARTCHAR char7846
ENCODING 7846
SWIDTH 30 0
DWIDTH 20 0
BBX 18 32 1 0
BITMAP
1E0000
070000
038000
01C000
000000
01E000
033000
0E1800
000000
000000
01E000
01E000
03F000
03F000
037000
073800
073800
063800
0E1C00
0E1C00
1C1C00
1C0E00
1C0E00
3FFE00
3FFF00
380700
700700
700380
700380
E00380
E001C0
E001C0
ENDCHAR
STARTCHAR char7847
ENCODING 7847
SWIDTH 17 0
DWIDTH 16 0
BBX 15 26 1 0
BITMAP
7800
1C00
0E00
0700
0000
0780
0FC0
1CE0
3870
0000
0FC0
3FF0
7878
7038
6038
0038
0078
0FF8
3FB8
7038
E038
E038
E078
70F8
7FDE
1F0E
ENDCHAR
STARTCHAR char7848
ENCODING 7848
SWIDTH 30 0
DWIDTH 20 0
BBX 18 34 1 0
BITMAP
00F800
018C00
018C00
003800
003000
002000
000000
01E000
033000
0E1800
000000
000000
01E000
01E000
03F000
03F000
037000
073800
073800
063800
0E1C00
0E1C00
1C1C00
1C0E00
1C0E00
3FFE00
3FFF00
380700
700700
700380
700380
E00380
E001C0
E001C0
ENDCHAR
STARTCHAR char7849
ENCODING 7849
SWIDTH 17 0
DWIDTH 16 0
BBX 15 28 1 0
BITMAP
01E0
03F0
0230
0070
00C0
00C0
0000
0780
0FC0
1CE0
3870
0000
0FC0
3FF0
7878
7038
6038
0038
0078
0FF8
3FB8
7038
E038
E038
E078
70F8
7FDE
1F0E
ENDCHAR
STARTCHAR char7850
ENCODING 7850
SWIDTH 30 0
DWIDTH 20 0
BBX 18 32 1 0
BITMAP
071800
07F800
0CF000
000000
01E000
03F000
073800
0E1C00
000000
000000
01E000
01E000
03F000
03F000
037000
073800
073800
063800
0E1C00
0E1C00
1C1C00
1C0E00
1C0E00
3FFE00
3FFF00
380700
700700
700380
700380
E00380
E001C0
E001C0
ENDCHAR
STARTCHAR char7851
ENCODING 7851
SWIDTH 17 0
DWIDTH 16 0
BBX 15 25 1 0
BITMAP
0E20
1FE0
31E0
0000
0780
0FC0
1CE0
3870
0000
0FC0
3FF0
7878
7038
6038
0038
0078
0FF8
3FB8
7038
E038
E038
E078
70F8
7FDE
1F0E
ENDCHAR
STARTCHAR char7852
ENCODING 7852
SWIDTH 30 0
DWIDTH 20 0
BBX 18 33 1 -5
BITMAP
01E000
03F000
073800
0E1C00
000000
000000
01E000
01E000
03F000
03F000
037000
073800
073800
063800
0E1C00
0E1C00
1C1C00
1C0E00
1C0E00
3FFE00
3FFF00
380700
700700
700380
700380
E00380
E001C0
E001C0
000000
000000
01C000
01C000
01C000
ENDCHAR
STARTCHAR char7853
ENCODING 7853
SWIDTH 17 0
DWIDTH 16 0
BBX 15 27 1 -5
BITMAP
0780
0780
0EC0
0CC0
1860
0000
0FC0
3FF0
7878
7038
6038
0038
0078
0FF8
3FB8
7038
E038
E038
E078
70F8
7FDE
1F0E
0000
0000
0380
0380
0380
ENDCHAR
STARTCHAR char7854
ENCODING 7854
SWIDTH 30 0
DWIDTH 20 0
BBX 18 32 1 0
BITMAP
001E00
003800
007000
00C000
000000
0C0C00
0FFC00
07F000
000000
000000
01E000
01E000
03F000
03F000
037000
073800
073800
063800
0E1C00
0E1C00
1C1C00
1C0E00
1C0E00
3FFE00
3FFF00
380700
700700
700380
700380
E00380
E001C0
E001C0
ENDCHAR
STARTCHAR char7855
ENCODING 7855
SWIDTH 17 0
DWIDTH 16 0
BBX 15 25 1 0
BITMAP
0078
00E0
01C0
0380
0000
3030
3FF0
0FC0
0000
0FC0
3FF0
7878
7038
6038
0038
0078
0FF8
3FB8
7038
E038
E038
E078
70F8
7FDE
1F0E
ENDCHAR
STARTCHAR char7856
ENCODING 7856
SWIDTH 30 0
DWIDTH 20 0
BBX 18 32 1 0
BITMAP
1E0000
070000
038000
01C000
000000
0C0C00
0FFC00
07F000
000000
000000
01E000
01E000
03F000
03F000
037000
073800
073800
063800
0E1C00
0E1C00
1C1C00
1C0E00
1C0E00
3FFE00
3FFF00
380700
700700
700380
700380
E00380
E001C0
E001C0
ENDCHAR
STARTCHAR char7857
ENCODING 7857
SWIDTH 17 0
DWIDTH 16 0
BBX 15 25 1 0
BITMAP
7800
1C00
0E00
0700
0000
3030
3FF0
0FC0
0000
0FC0
3FF0
7878
7038
6038
0038
0078
0FF8
3FB8
7038
E038
E038
E078
70F8
7FDE
1F0E
ENDCHAR
STARTCHAR char7858
ENCODING 7858
SWIDTH 30 0
DWIDTH 20 0
BBX 18 33 1 0
BITMAP
01E000
03F000
023000
007000
00C000
00C000
0C0C00
0FFC00
07F000
000000
000000
01E000
01E000
03F000
03F000
037000
073800
073800
063800
0E1C00
0E1C00
1C1C00
1C0E00
1C0E00
3FFE00
3FFF00
380700
700700
700380
700380
E00380
E001C0
E001C0
ENDCHAR
STARTCHAR char7859
ENCODING 7859
SWIDTH 17 0
DWIDTH 16 0
BBX 15 26 1 0
BITMAP
0780
0FC0
0CC0
01C0
0380
0300
3030
3FF0
0FC0
0000
0FC0
3FF0
7878
7038
6038
0038
0078
0FF8
3FB8
7038
E038
E038
E078
70F8
7FDE
1F0E
ENDCHAR
STARTCHAR char7860
ENCODING 7860
SWIDTH 30 0
DWIDTH 20 0
BBX 18 31 1 0
BITMAP
07D800
0FF800
0C3000
000000
0C0C00
0FFC00
07F000
000000
000000
01E000
01E000
03F000
03F000
037000
073800
073800
063800
0E1C00
0E1C00
1C1C00
1C0E00
1C0E00
3FFE00
3FFF00
380700
700700
700380
700380
E00380
E001C0
E001C0
ENDCHAR
STARTCHAR char7861
ENCODING 7861
SWIDTH 17 0
DWIDTH 16 0
BBX 15 24 1 0
BITMAP
1F60
1FE0
30C0
0000
3030
3FF0
0FC0
0000
0FC0
3FF0
7878
7038
6038
0038
0078
0FF8
3FB8
7038
E038
E038
E078
70F8
7FDE
1F0E
ENDCHAR
STARTCHAR char7862
ENCODING 7862
SWIDTH 30 0
DWIDTH 20 0
BBX 18 32 1 -5
BITMAP
0C0C00
0FFC00
07F000
000000
000000
01E000
01E000
03F000
03F000
037000
073800
073800
063800
0E1C00
0E1C00
1C1C00
1C0E00
1C0E00
3FFE00
3FFF00
380700
700700
700380
700380
E00380
E001C0
E001C0
000000
000000
01C000
01C000
01C000
ENDCHAR
STARTCHAR char7863
ENCODING 7863
SWIDTH 17 0
DWIDTH 16 0
BBX 15 26 1 -5
BITMAP
1020
1860
1FC0
0780
0000
0FC0
3FF0
7878
7038
6038
0038
0078
0FF8
3FB8
7038
E038
E038
E078
70F8
7FDE
1F0E
0000
0000
0380
0380
0380
ENDCHAR
STARTCHAR char7864
ENCODING 7864
SWIDTH 30 0
DWIDTH 20 0
BBX 15 27 3 -5
BITMAP
FFFC
FFFC
C000
C000
C000
C000
C000
C000
C000
C000
FFFC
FFFC
C000
C000
C000
C000
C000
C000
C000
C000
FFFE
FFFE
0000
0000
0700
0700
0700
ENDCHAR
STARTCHAR char7865
ENCODING 7865
SWIDTH 17 0
DWIDTH 16 0
BBX 14 21 1 -5
BITMAP
07C0
1FF0
3CF8
7038
601C
E01C
E01C
FFFC
FFFC
E000
E000
601C
7038
3C78
1FF0
0FC0
0000
0000
0380
0380
0380
ENDCHAR
STARTCHAR char7866
ENCODING 7866
SWIDTH 30 0
DWIDTH 20 0
BBX 15 30 3 0
BITMAP
0780
0FC0
0C40
00C0
0180
0300
0300
0000
FFFC
FFFC
C000
C000
C000
C000
C000
C000
C000
C000
FFFC
FFFC
C000
C000
C000
C000
C000
C000
C000
C000
FFFE
FFFE
ENDCHAR
STARTCHAR char7867
ENCODING 7867
SWIDTH 17 0
DWIDTH 16 0
BBX 14 24 1 0
BITMAP
0300
07C0
0C40
0CC0
01C0
0300
0300
0000
07C0
1FF0
3CF8
7038
601C
E01C
E01C
FFFC
FFFC
E000
E000
601C
7038
3C78
1FF0
0FC0
ENDCHAR
STARTCHAR char7868
ENCODING 7868
SWIDTH 30 0
DWIDTH 20 0
BBX 15 27 3 0
BITMAP
1E20
1FE0
31C0
0000
0000
FFFC
FFFC
C000
C000
C000
C000
C000
C000
C000
C000
FFFC
FFFC
C000
C000
C000
C000
C000
C000
C000
C000
FFFE
FFFE
ENDCHAR
STARTCHAR char7869
ENCODING 7869
SWIDTH 17 0
DWIDTH 16 0
BBX 14 20 1 0
BITMAP
0E30
1FE0
11E0
0000
07C0
1FF0
3CF8
7038
601C
E01C
E01C
FFFC
FFFC
E000
E000
601C
7038
3C78
1FF0
0FC0
ENDCHAR
STARTCHAR char7870
ENCODING 7870
SWIDTH 30 0
DWIDTH 20 0
BBX 15 32 3 0
BITMAP
0078
00E0
01C0
0380
0000
0780
0EC0
1870
0000
0000
FFFC
FFFC
C000
C000
C000
C000
C000
C000
C000
C000
FFFC
FFFC
C000
C000
C000
C000
C000
C000
C000
C000
FFFE
FFFE
ENDCHAR
STARTCHAR char7871
ENCODING 7871
SWIDTH 17 0
DWIDTH 16 0
BBX 14 26 1 0
BITMAP
0078
00F0
01C0
0180
0000
0780
0FC0
1CE0
1870
0000
07C0
1FF0
3CF8
7038
601C
E01C
E01C
FFFC
FFFC
E000
E000
601C
7038
3C78
1FF0
0FC0
ENDCHAR
STARTCHAR char7872
ENCODING 7872
SWIDTH 30 0
DWIDTH 20 0
BBX 15 32 3 0
BITMAP
7800
1C00
0E00
0700
0000
0780
0EC0
1870
0000
0000
FFFC
FFFC
C000
C000
C000
C000
C000
C000
C000
C000
FFFC
FFFC
C000
C000
C000
C000
C000
C000
C000
C000
FFFE
FFFE
ENDCHAR
STARTCHAR char7873
ENCODING 7873
SWIDTH 17 0
DWIDTH 16 0
BBX 14 26 1 0
BITMAP
3800
1C00
0E00
0700
0000
0780
0FC0
1CE0
1870
0000
07C0
1FF0
3CF8
7038
601C
E01C
E01C
FFFC
FFFC
E000
E000
601C
7038
3C78
1FF0
0FC0
ENDCHAR
STARTCHAR char7874
ENCODING 7874
SWIDTH 30 0
DWIDTH 20 0
BBX 15 34 3 0
BITMAP
03F0
0330
0630
0060
00C0
00C0
0000
0780
0EC0
1870
0000
0000
FFFC
FFFC
C000
C000
C000
C000
C000
C000
C000
C000
FFFC
FFFC
C000
C000
C000
C000
C000
C000
C000
C000
FFFE
FFFE
ENDCHAR
STARTCHAR char7875
ENCODING 7875
SWIDTH 17 0
DWIDTH 16 0
BBX 14 28 1 0
BITMAP
01E0
03F0
0230
0070
00C0
00C0
0000
0780
0FC0
1CE0
1870
0000
07C0
1FF0
3CF8
7038
601C
E01C
E01C
FFFC
FFFC
E000
E000
601C
7038
3C78
1FF0
0FC0
ENDCHAR
STARTCHAR char7876
ENCODING 7876
SWIDTH 30 0
DWIDTH 20 0
BBX 15 32 3 0
BITMAP
0E20
1FE0
31E0
0000
0780
0FC0
1CE0
3870
0000
0000
FFFC
FFFC
C000
C000
C000
C000
C000
C000
C000
C000
FFFC
FFFC
C000
C000
C000
C000
C000
C000
C000
C000
FFFE
FFFE
ENDCHAR
STARTCHAR char7877
ENCODING 7877
SWIDTH 17 0
DWIDTH 16 0
BBX 14 25 1 0
BITMAP
0E30
1FE0
11E0
0000
0780
0FC0
1CE0
1870
0000
07C0
1FF0
3CF8
7038
601C
E01C
E01C
FFFC
FFFC
E000
E000
601C
7038
3C78
1FF0
0FC0
ENDCHAR
STARTCHAR char7878
ENCODING 7878
SWIDTH 30 0
DWIDTH 20 0
BBX 15 33 3 -5
BITMAP
0780
0FC0
1CE0
3870
0000
0000
FFFC
FFFC
C000
C000
C000
C000
C000
C000
C000
C000
FFFC
FFFC
C000
C000
C000
C000
C000
C000
C000
C000
FFFE
FFFE
0000
0000
0700
0700
0700
ENDCHAR
STARTCHAR char7879
ENCODING 7879
SWIDTH 17 0
DWIDTH 16 0
BBX 14 27 1 -5
BITMAP
0380
0780
0EC0
0CE0
1860
0000
07C0
1FF0
3CF8
7038
601C
E01C
E01C
FFFC
FFFC
E000
E000
601C
7038
3C78
1FF0
0FC0
0000
0000
0380
0380
0380
ENDCHAR
STARTCHAR char7880
ENCODING 7880
SWIDTH 24 0
DWIDTH 8 0
BBX 7 30 1 0
BITMAP
78
FC
C6
0C
1C
30
30
00
38
38
38
38
38
38
38
38
38
38
38
38
38
38
38
38
38
38
38
38
38
38
ENDCHAR
STARTCHAR char7881
ENCODING 7881
SWIDTH 24 0
DWIDTH 8 0
BBX 6 24 1 0
BITMAP
78
FC
C4
0C
18
30
30
00
30
30
30
30
30
30
30
30
30
30
30
30
30
30
30
30
ENDCHAR
STARTCHAR char7882
ENCODING 7882
SWIDTH 24 0
DWIDTH 8 0
BBX 3 27 3 -5
BITMAP
E0
E0
E0
E0
E0
E0
E0
E0
E0
E0
E0
E0
E0
E0
E0
E0
E0
E0
E0
E0
E0
E0
00
00
E0
E0
E0
ENDCHAR
STARTCHAR char7883
ENCODING 7883
SWIDTH 21 0
DWIDTH 7 0
BBX 3 25 2 -5
BITMAP
E0
E0
80
00
C0
C0
C0
C0
C0
C0
C0
C0
C0
C0
C0
C0
C0
C0
C0
C0
00
00
E0
E0
E0
ENDCHAR
STARTCHAR char7884
ENCODING 7884
SWIDTH 8 0
DWIDTH 23 0
BBX 21 27 1 -5
BITMAP
01FC00
07FF00
0FDF80
1E03C0
3800E0
7000E0
700070
600070
E00030
E00038
E00038
E00038
E00038
E00038
E00030
700070
700070
3800E0
3C03C0
1F9F80
07FF00
01FC00
000000
000000
007000
007000
007000
ENDCHAR
STARTCHAR char7885
ENCODING 7885
SWIDTH 17 0
DWIDTH 16 0
BBX 14 21 1 -5
BITMAP
0FC0
3FE0
3CF0
7038
6018
E01C
E01C
E01C
E01C
E01C
E01C
6018
7038
3CF0
1FE0
0FC0
0000
0000
0380
0380
0380
ENDCHAR
STARTCHAR char7886
ENCODING 7886
SWIDTH 8 0
DWIDTH 23 0
BBX 21 30 1 0
BITMAP
007000
00F800
018C00
018C00
001800
003000
006000
006000
01FC00
07FF00
0FDF80
1E03C0
3800E0
7000E0
700070
600070
E00030
E00038
E00038
E00038
E00038
E00038
E00030
700070
700070
3800E0
3C03C0
1F9F80
07FF00
01FC00
ENDCHAR
STARTCHAR char7887
ENCODING 7887
SWIDTH 17 0
DWIDTH 16 0
BBX 14 24 1 0
BITMAP
0300
0FC0
0CC0
0CC0
01C0
0300
0300
0000
0FC0
3FE0
3CF0
7038
6018
E01C
E01C
E01C
E01C
E01C
E01C
6018
7038
3CF0
1FE0
0FC0
ENDCHAR
STARTCHAR char7888
ENCODING 7888
SWIDTH 8 0
DWIDTH 23 0
BBX 21 32 1 0
BITMAP
000F00
001E00
001C00
003000
000000
00F800
01F800
018C00
030600
000000
01FC00
07FF00
0FDF80
1E03C0
3800E0
7000E0
700070
600070
E00030
E00038
E00038
E00038
E00038
E00038
E00030
700070
700070
3800E0
3C03C0
1F9F80
07FF00
01FC00
ENDCHAR
STARTCHAR char7889
ENCODING 7889
SWIDTH 17 0
DWIDTH 16 0
BBX 14 26 1 0
BITMAP
0078
00F0
01C0
0180
0000
0780
0FC0
1CE0
1870
0000
0FC0
3FE0
3CF0
7038
6018
E01C
E01C
E01C
E01C
E01C
E01C
6018
7038
3CF0
1FE0
0FC0
ENDCHAR
STARTCHAR char7890
ENCODING 7890
SWIDTH 8 0
DWIDTH 23 0
BBX 21 32 1 0
BITMAP
078000
038000
01C000
006000
000000
00F800
01F800
018C00
030600
000000
01FC00
07FF00
0FDF80
1E03C0
3800E0
7000E0
700070
600070
E00030
E00038
E00038
E00038
E00038
E00038
E00030
700070
700070
3800E0
3C03C0
1F9F80
07FF00
01FC00
ENDCHAR
STARTCHAR char7891
ENCODING 7891
SWIDTH 17 0
DWIDTH 16 0
BBX 14 26 1 0
BITMAP
7800
1C00
0E00
0700
0000
0780
0FC0
1CE0
1870
0000
0FC0
3FE0
3CF0
7038
6018
E01C
E01C
E01C
E01C
E01C
E01C
6018
7038
3CF0
1FE0
0FC0
ENDCHAR
STARTCHAR char7892
ENCODING 7892
SWIDTH 8 0
DWIDTH 23 0
BBX 21 34 1 0
BITMAP
003C00
007E00
006200
000E00
001C00
001800
000000
00F800
01F800
018C00
030600
000000
01FC00
07FF00
0FDF80
1E03C0
3800E0
7000E0
700070
600070
E00030
E00038
E00038
E00038
E00038
E00038
E00030
700070
700070
3800E0
3C03C0
1F9F80
07FF00
01FC00
ENDCHAR
STARTCHAR char7893
ENCODING 7893
SWIDTH 17 0
DWIDTH 16 0
BBX 14 28 1 0
BITMAP
01E0
03F0
0230
0070
00C0
00C0
0000
0780
0FC0
1CE0
1870
0000
0FC0
3FE0
3CF0
7038
6018
E01C
E01C
E01C
E01C
E01C
E01C
6018
7038
3CF0
1FE0
0FC0
ENDCHAR
STARTCHAR char7894
ENCODING 7894
SWIDTH 8 0
DWIDTH 23 0
BBX 21 31 1 0
BITMAP
01C600
03FE00
033C00
000000
00F800
01F800
018C00
030600
000000
01FC00
07FF00
0FDF80
1E03C0
3800E0
7000E0
700070
600070
E00030
E00038
E00038
E00038
E00038
E00038
E00030
700070
700070
3800E0
3C03C0
1F9F80
07FF00
01FC00
ENDCHAR
STARTCHAR char7895
ENCODING 7895
SWIDTH 17 0
DWIDTH 16 0
BBX 14 25 1 0
BITMAP
0E30
1FE0
11E0
0000
0780
0FC0
1CE0
1870
0000
0FC0
3FE0
3CF0
7038
6018
E01C
E01C
E01C
E01C
E01C
E01C
6018
7038
3CF0
1FE0
0FC0
ENDCHAR
STARTCHAR char7896
ENCODING 7896
SWIDTH 8 0
DWIDTH 23 0
BBX 21 32 1 -5
BITMAP
00F800
01F800
018C00
030600
000000
01FC00
07FF00
0FDF80
1E03C0
3800E0
7000E0
700070
600070
E00030
E00038
E00038
E00038
E00038
E00038
E00030
700070
700070
3800E0
3C03C0
1F9F80
07FF00
01FC00
000000
000000
007000
007000
007000
ENDCHAR
STARTCHAR char7897
ENCODING 7897
SWIDTH 17 0
DWIDTH 16 0
BBX 14 27 1 -5
BITMAP
0780
0780
0EC0
0CE0
1860
0000
0FC0
3FE0
3CF0
7038
6018
E01C
E01C
E01C
E01C
E01C
E01C
6018
7038
3CF0
1FE0
0FC0
0000
0000
0380
0380
0380
ENDCHAR
STARTCHAR char7898
ENCODING 7898
SWIDTH 8 0
DWIDTH 23 0
BBX 21 27 1 0
BITMAP
000F00
001E00
001838
003038
000038
01FC18
07FF10
1FDFF0
1C03E0
3800E0
7000F0
700070
600070
E00038
E00038
E00038
E00038
E00038
E00038
600070
700070
7000F0
3800E0
3C03C0
1F9F80
07FF00
01FC00
ENDCHAR
STARTCHAR char7899
ENCODING 7899
SWIDTH 21 0
DWIDTH 17 0
BBX 15 22 1 0
BITMAP
0070
00E0
01C0
0186
0006
0006
0FC2
3FF2
3CFE
703C
6018
E01C
E01C
E01C
E01C
E01C
E01C
6018
7038
3CF0
1FE0
0FC0
ENDCHAR
STARTCHAR char7900
ENCODING 7900
SWIDTH 8 0
DWIDTH 23 0
BBX 21 27 1 0
BITMAP
078000
038000
01C038
006038
000038
01FC18
07FF10
1FDFF0
1C03E0
3800E0
7000F0
700070
600070
E00038
E00038
E00038
E00038
E00038
E00038
600070
700070
7000F0
3800E0
3C03C0
1F9F80
07FF00
01FC00
ENDCHAR
STARTCHAR char7901
ENCODING 7901
SWIDTH 21 0
DWIDTH 17 0
BBX 15 22 1 0
BITMAP
3800
1C00
0E00
0606
0006
0006
0FC2
3FF2
3CFE
703C
6018
E01C
E01C
E01C
E01C
E01C
E01C
6018
7038
3CF0
1FE0
0FC0
ENDCHAR
STARTCHAR char7902
ENCODING 7902
SWIDTH 8 0
DWIDTH 23 0
BBX 21 30 1 0
BITMAP
007000
00F800
018C00
018C00
003800
003038
006038
000038
01FC18
07FF10
1FDFF0
1C03E0
3800E0
7000F0
700070
600070
E00038
E00038
E00038
E00038
E00038
E00038
600070
700070
7000F0
3800E0
3C03C0
1F9F80
07FF00
01FC00
ENDCHAR
STARTCHAR char7903
ENCODING 7903
SWIDTH 21 0
DWIDTH 17 0
BBX 15 24 1 0
BITMAP
0300
0FC0
0CC0
08C0
01C0
0306
0306
0006
0FC2
3FF2
3CFE
703C
6018
E01C
E01C
E01C
E01C
E01C
E01C
6018
7038
3CF0
1FE0
0FC0
ENDCHAR
STARTCHAR char7904
ENCODING 7904
SWIDTH 8 0
DWIDTH 23 0
BBX 21 27 1 0
BITMAP
01C600
03FE00
033C38
000038
000038
01FC18
07FF10
1FDFF0
1C03E0
3800E0
7000F0
700070
600070
E00038
E00038
E00038
E00038
E00038
E00038
600070
700070
7000F0
3800E0
3C03C0
1F9F80
07FF00
01FC00
ENDCHAR
STARTCHAR char7905
ENCODING 7905
SWIDTH 21 0
DWIDTH 17 0
BBX 15 20 1 0
BITMAP
1E20
1FE0
31C6
0006
0FC6
3FE2
3CF2
703C
6018
E01C
E01C
E01C
E01C
E01C
E01C
6018
7038
3CF0
1FE0
0FC0
ENDCHAR
STARTCHAR char7906
ENCODING 7906
SWIDTH 8 0
DWIDTH 23 0
BBX 21 30 1 -5
BITMAP
000038
000038
000038
01FC18
07FF10
1FDFF0
1C03E0
3800E0
7000F0
700070
600070
E00038
E00038
E00038
E00038
E00038
E00038
600070
700070
7000F0
3800E0
3C03C0
1F9F80
07FF00
01FC00
000000
000000
007000
007000
007000
ENDCHAR
STARTCHAR char7907
ENCODING 7907
SWIDTH 21 0
DWIDTH 17 0
BBX 15 24 1 -5
BITMAP
0006
0006
0006
0FC2
3FF2
3CFE
703C
6018
E01C
E01C
E01C
E01C
E01C
E01C
6018
7038
3CF0
1FE0
0FC0
0000
0000
0780
0780
0780
ENDCHAR
STARTCHAR char7908
ENCODING 7908
SWIDTH 2 0
DWIDTH 21 0
BBX 17 27 2 -5
BITMAP
E00380
E00380
E00380
E00380
E00380
E00380
E00380
E00380
E00380
E00380
E00380
E00380
E00380
E00380
E00380
E00380
600380
700700
780F00
3F7E00
1FFC00
07F000
000000
000000
01C000
01C000
01C000
ENDCHAR
STARTCHAR char7909
ENCODING 7909
SWIDTH 17 0
DWIDTH 16 0
BBX 12 21 2 -5
BITMAP
C030
C030
C030
C030
C030
C030
C030
C030
C030
C030
C070
C070
E0F0
F1F0
7FB0
3E30
0000
0000
0700
0700
0700
ENDCHAR
STARTCHAR char7910
ENCODING 7910
SWIDTH 2 0
DWIDTH 21 0
BBX 17 30 2 0
BITMAP
01E000
03F000
063000
007000
00E000
00C000
008000
000000
E00380
E00380
E00380
E00380
E00380
E00380
E00380
E00380
E00380
E00380
E00380
E00380
E00380
E00380
E00380
E00380
600380
700700
780F00
3F7E00
1FFC00
07F000
ENDCHAR
STARTCHAR char7911
ENCODING 7911
SWIDTH 17 0
DWIDTH 16 0
BBX 12 24 2 0
BITMAP
0F00
1F80
1880
0180
0380
0600
0600
0000
C030
C030
C030
C030
C030
C030
C030
C030
C030
C030
C070
C070
E0F0
F1F0
7FB0
3E30
ENDCHAR
STARTCHAR char7912
ENCODING 7912
SWIDTH 8 0
DWIDTH 23 0
BBX 21 27 2 0
BITMAP
001C00
003800
007038
00C038
000038
E00390
E00390
E003B0
E003E0
E00380
E00380
E00380
E00380
E00380
E00380
E00380
E00380
E00380
E00380
E00380
E00380
600380
700700
780F00
3F7E00
1FFC00
07F000
ENDCHAR
STARTCHAR char7913
ENCODING 7913
SWIDTH 24 0
DWIDTH 18 0
BBX 16 22 2 0
BITMAP
00E0
01C0
0380
0307
0007
0007
C033
C033
C036
C03E
C03C
C030
C030
C030
C030
C030
C070
C070
E0F0
F1F0
7FB0
3F30
ENDCHAR
STARTCHAR char7914
ENCODING 7914
SWIDTH 8 0
DWIDTH 23 0
BBX 21 27 2 0
BITMAP
1E0000
0F0000
038038
018038
000038
E00390
E00390
E003B0
E003E0
E00380
E00380
E00380
E00380
E00380
E00380
E00380
E00380
E00380
E00380
E00380
E00380
600380
700700
780F00
3F7E00
1FFC00
07F000
ENDCHAR
STARTCHAR char7915
ENCODING 7915
SWIDTH 24 0
DWIDTH 18 0
BBX 16 22 2 0
BITMAP
7000
3800
1C00
0C07
0007
0007
C033
C033
C036
C03E
C03C
C030
C030
C030
C030
C030
C070
C070
E0F0
F1F0
7FB0
3F30
ENDCHAR
STARTCHAR char7916
ENCODING 7916
SWIDTH 8 0
DWIDTH 23 0
BBX 21 30 2 0
BITMAP
00C000
03F000
023000
063000
00E000
00C038
00C038
000038
E00390
E00390
E003B0
E003E0
E00380
E00380
E00380
E00380
E00380
E00380
E00380
E00380
E00380
E00380
E00380
E00380
600380
700700
780F00
3F7E00
1FFC00
07F000
ENDCHAR
STARTCHAR char7917
ENCODING 7917
SWIDTH 24 0
DWIDTH 18 0
BBX 16 24 2 0
BITMAP
0F00
1F80
1880
0180
0300
0607
0607
0007
C033
C033
C036
C03E
C03C
C030
C030
C030
C030
C030
C070
C070
E0F0
F1F0
7FB0
3F30
ENDCHAR
STARTCHAR char7918
ENCODING 7918
SWIDTH 8 0
DWIDTH 23 0
BBX 21 27 2 0
BITMAP
079800
0FF800
0CF038
000038
000038
E00390
E00390
E003B0
E003E0
E00380
E00380
E00380
E00380
E00380
E00380
E00380
E00380
E00380
E00380
E00380
E00380
600380
700700
780F00
3F7E00
1FFC00
07F000
ENDCHAR
STARTCHAR char7919
ENCODING 7919
SWIDTH 24 0
DWIDTH 18 0
BBX 16 20 2 0
BITMAP
3C40
3FC0
6387
0007
C037
C033
C036
C03E
C03C
C030
C030
C030
C030
C030
C070
C070
E0F0
F1F0
7FB0
3F30
ENDCHAR
STARTCHAR char7920
ENCODING 7920
SWIDTH 8 0
DWIDTH 23 0
BBX 21 30 2 -5
BITMAP
000038
000038
000038
E00390
E00390
E003B0
E003E0
E00380
E00380
E00380
E00380
E00380
E00380
E00380
E00380
E00380
E00380
E00380
E00380
600380
700700
780F00
3F7E00
1FFC00
07F000
000000
000000
01C000
01C000
01C000
ENDCHAR
STARTCHAR char7921
ENCODING 7921
SWIDTH 24 0
DWIDTH 18 0
BBX 16 24 2 -5
BITMAP
0007
0007
0007
C033
C033
C036
C03E
C03C
C030
C030
C030
C030
C030
C070
C070
E0F0
F1F0
7FB0
3F30
0000
0000
0F00
0F00
0F00
ENDCHAR
STARTCHAR char7922
ENCODING 7922
SWIDTH 30 0
DWIDTH 20 0
BBX 18 27 1 0
BITMAP
0E0000
070000
018000
000000
000000
E001C0
F00380
700380
380700
380700
1C0E00
1E1C00
0E1C00
073800
073800
03F000
03E000
01E000
00C000
00C000
00C000
00C000
00C000
00C000
00C000
00C000
00C000
ENDCHAR
STARTCHAR char7923
ENCODING 7923
SWIDTH 14 0
DWIDTH 15 0
BBX 13 28 1 -6
BITMAP
3800
1800
0C00
0600
0000
0000
C038
E030
E030
6070
7060
70E0
30E0
38C0
39C0
19C0
1D80
1F80
0F80
0F00
0F00
0700
0600
0E00
0C00
1C00
7C00
7800
ENDCHAR
STARTCHAR char7924
ENCODING 7924
SWIDTH 30 0
DWIDTH 20 0
BBX 18 27 1 -5
BITMAP
E001C0
F00380
700380
380700
380700
1C0E00
1E1C00
0E1C00
073800
073800
03F000
03E000
01E000
00C000
00C000
00C000
00C000
00C000
00C000
00C000
00C000
00C000
000000
000000
01E000
01E000
01E000
ENDCHAR
STARTCHAR char7925
ENCODING 7925
SWIDTH 14 0
DWIDTH 15 0
BBX 13 22 1 -6
BITMAP
C038
E030
E030
6070
7060
70E0
30E0
38C0
39C0
19C0
1D80
1F80
0F80
0F00
0F00
0700
0600
0E00
0CF0
1CF0
7CF0
7800
ENDCHAR
STARTCHAR char7926
ENCODING 7926
SWIDTH 30 0
DWIDTH 20 0
BBX 18 30 1 0
BITMAP
01E000
03F000
033000
003000
006000
00C000
00C000
000000
E001C0
F00380
700380
380700
380700
1C0E00
1E1C00
0E1C00
073800
073800
03F000
03E000
01E000
00C000
00C000
00C000
00C000
00C000
00C000
00C000
00C000
00C000
ENDCHAR
STARTCHAR char7927
ENCODING 7927
SWIDTH 14 0
DWIDTH 15 0
BBX 13 30 1 -6
BITMAP
0F00
1F80
18C0
0180
0380
0600
0600
0000
C038
E030
E030
6070
7060
70E0
30E0
38C0
39C0
19C0
1D80
1F80
0F80
0F00
0F00
0700
0600
0E00
0C00
1C00
7C00
7800
ENDCHAR
STARTCHAR char7928
ENCODING 7928
SWIDTH 30 0
DWIDTH 20 0
BBX 18 27 1 0
BITMAP
078800
07F800
0C7000
000000
000000
E001C0
F00380
700380
380700
380700
1C0E00
1E1C00
0E1C00
073800
073800
03F000
03E000
01E000
00C000
00C000
00C000
00C000
00C000
00C000
00C000
00C000
00C000
ENDCHAR
STARTCHAR char7929
ENCODING 7929
SWIDTH 14 0
DWIDTH 15 0
BBX 13 26 1 -6
BITMAP
1C60
3FC0
23C0
0000
C038
E030
E030
6070
7060
70E0
30E0
38C0
39C0
19C0
1D80
1F80
0F80
0F00
0F00
0700
0600
0E00
0C00
1C00
7C00
7800
ENDCHAR
STARTCHAR char8208
ENCODING 8208
SWIDTH 30 0
DWIDTH 10 0
BBX 7 2 1 7
BITMAP
FE
FE
ENDCHAR
STARTCHAR char8209
ENCODING 8209
SWIDTH 30 0
DWIDTH 10 0
BBX 7 2 1 7
BITMAP
FE
FE
ENDCHAR
STARTCHAR char8211
ENCODING 8211
SWIDTH 17 0
DWIDTH 16 0
BBX 16 2 0 7
BITMAP
FFFF
FFFF
ENDCHAR
STARTCHAR char8212
ENCODING 8212
SWIDTH 26 0
DWIDTH 29 0
BBX 29 2 0 7
BITMAP
FFFFFFF8
FFFFFFF8
ENDCHAR
STARTCHAR char8214
ENCODING 8214
SWIDTH 21 0
DWIDTH 17 0
BBX 6 28 6 -6
BITMAP
CC
CC
CC
CC
CC
CC
CC
CC
CC
CC
CC
CC
CC
CC
CC
CC
CC
CC
CC
CC
CC
CC
CC
CC
CC
CC
CC
CC
ENDCHAR
STARTCHAR char8216
ENCODING 8216
SWIDTH 21 0
DWIDTH 7 0
BBX 3 7 2 13
BITMAP
60
C0
80
E0
E0
E0
80
ENDCHAR
STARTCHAR char8217
ENCODING 8217
SWIDTH 21 0
DWIDTH 7 0
BBX 3 7 2 15
BITMAP
E0
E0
E0
60
40
40
80
ENDCHAR
STARTCHAR char8218
ENCODING 8218
SWIDTH 21 0
DWIDTH 7 0
BBX 3 7 2 -4
BITMAP
E0
E0
E0
60
40
40
80
ENDCHAR
STARTCHAR char8220
ENCODING 8220
SWIDTH 30 0
DWIDTH 10 0
BBX 8 7 1 13
BITMAP
23
42
44
C4
E7
E7
E7
ENDCHAR
STARTCHAR char8221
ENCODING 8221
SWIDTH 30 0
DWIDTH 10 0
BBX 8 7 1 13
BITMAP
E7
E7
E7
21
23
62
C6
ENDCHAR
STARTCHAR char8222
ENCODING 8222
SWIDTH 30 0
DWIDTH 10 0
BBX 8 7 1 -4
BITMAP
E7
E7
E7
23
23
62
C6
ENDCHAR
STARTCHAR char8224
ENCODING 8224
SWIDTH 17 0
DWIDTH 16 0
BBX 14 25 1 -5
BITMAP
0300
0300
0300
0300
0300
0300
FFFC
FFFC
0300
0300
0300
0300
0300
0300
0300
0300
0300
0300
0300
0300
0300
0300
0300
0300
0300
ENDCHAR
STARTCHAR char8225
ENCODING 8225
SWIDTH 17 0
DWIDTH 16 0
BBX 14 25 1 -5
BITMAP
0300
0300
0300
0300
0300
0300
FFFC
FFFC
0300
0300
0300
0300
0300
0300
0300
0300
0300
FFFC
FFFC
0300
0300
0300
0300
0300
0300
ENDCHAR
STARTCHAR char8226
ENCODING 8226
SWIDTH 30 0
DWIDTH 10 0
BBX 8 7 1 7
BITMAP
3C
7E
7F
FF
7F
7E
3C
ENDCHAR
STARTCHAR char8230
ENCODING 8230
SWIDTH 26 0
DWIDTH 29 0
BBX 23 3 3 0
BITMAP
E0380E
E0380E
E0380E
ENDCHAR
STARTCHAR char8240
ENCODING 8240
SWIDTH 26 0
DWIDTH 29 0
BBX 29 22 0 0
BITMAP
1C030000
3F030000
63060000
C1840000
C18C0000
C1880000
63980000
7F300000
1E300000
00600000
00600000
00C00000
00C00000
018601C0
019F83F0
0338C638
03304C18
06306C18
06304C18
0C30C618
0C1F87F0
180F01E0
ENDCHAR
STARTCHAR char8241
ENCODING 8241
SWIDTH 29 0
DWIDTH 40 0
BBX 40 22 0 0
BITMAP
1C03000000
3F03000000
6306000000
C184000000
C18C000000
C188000000
6398000000
7F30000000
1E30000000
0060000000
0060000000
00C0000000
00C0000000
018601C030
019F83F0FC
0338C639C6
03304C1983
06306C1983
06304C1983
0C30C61986
0C1F87F0FE
180F01E078
ENDCHAR
STARTCHAR char8249
ENCODING 8249
SWIDTH 30 0
DWIDTH 10 0
BBX 4 10 3 3
BITMAP
10
30
70
E0
C0
C0
E0
70
30
10
ENDCHAR
STARTCHAR char8250
ENCODING 8250
SWIDTH 30 0
DWIDTH 10 0
BBX 5 10 2 3
BITMAP
80
C0
F0
38
18
18
38
F0
C0
80
ENDCHAR
STARTCHAR char8251
ENCODING 8251
SWIDTH 21 0
DWIDTH 17 0
BBX 15 15 1 0
BITMAP
0380
0380
1390
3838
1C70
0EE0
67CC
E38E
67CC
0EE0
1C70
3838
1390
0380
0380
ENDCHAR
STARTCHAR char8253
ENCODING 8253
SWIDTH 17 0
DWIDTH 16 0
BBX 13 23 2 0
BITMAP
0600
0700
3FE0
7FF0
7670
E638
E638
E638
0638
0670
06E0
07E0
0780
0700
0700
0600
0600
0000
0000
0000
0600
0600
0600
ENDCHAR
STARTCHAR char8255
ENCODING 8255
SWIDTH 14 0
DWIDTH 15 0
BBX 13 3 1 -6
BITMAP
C018
7FF8
3FE0
ENDCHAR
STARTCHAR char8256
ENCODING 8256
SWIDTH 14 0
DWIDTH 15 0
BBX 13 3 1 19
BITMAP
1FC0
7FF0
E038
ENDCHAR
STARTCHAR char8260
ENCODING 8260
SWIDTH 15 0
DWIDTH 5 0
BBX 15 21 -5 -1
BITMAP
0006
000C
0008
0018
0030
0020
0060
00C0
0080
0180
0100
0300
0600
0400
0C00
1800
1000
3000
6000
6000
C000
ENDCHAR
STARTCHAR char8261
ENCODING 8261
SWIDTH 2 0
DWIDTH 11 0
BBX 7 27 2 -6
BITMAP
1E
7E
F0
E0
C0
C0
C0
C0
C0
C0
E0
70
7E
3E
78
E0
C0
C0
C0
C0
C0
C0
C0
E0
70
7E
1E
ENDCHAR
STARTCHAR char8262
ENCODING 8262
SWIDTH 2 0
DWIDTH 11 0
BBX 7 27 2 -6
BITMAP
F0
F8
1C
0E
0E
0E
0E
0E
0E
0E
0E
1C
F8
F8
3C
0E
0E
0E
0E
0E
0E
0E
0E
0E
1C
F8
F0
ENDCHAR
STARTCHAR char8274
ENCODING 8274
SWIDTH 17 0
DWIDTH 16 0
BBX 15 22 1 0
BITMAP
000C
001C
E018
E038
E070
6070
00E0
00C0
01C0
0180
0380
0300
0700
0E00
0C00
1C00
1800
380C
301C
701E
601C
E000
ENDCHAR
STARTCHAR char8276
ENCODING 8276
SWIDTH 14 0
DWIDTH 15 0
BBX 13 3 1 -6
BITMAP
1FC0
7FF0
E038
ENDCHAR
STARTCHAR char8353
ENCODING 8353
SWIDTH 2 0
DWIDTH 21 0
BBX 19 26 1 -2
BITMAP
004000
004000
01F800
07FE00
0FDF00
1C4380
3841C0
3041C0
7041C0
704000
604000
E04000
E04000
E04000
E04000
604000
7040E0
7040E0
7041C0
3841C0
1C4380
1FDF80
07FF00
01FC00
004000
004000
ENDCHAR
STARTCHAR char8356
ENCODING 8356
SWIDTH 17 0
DWIDTH 16 0
BBX 15 22 1 0
BITMAP
07C0
1FF0
3C78
7038
701C
601C
601C
6000
7000
FFC0
FFC0
1800
FFC0
FFC0
0C00
0C00
1800
1800
3004
7FFC
FFFE
61F8
ENDCHAR
STARTCHAR char8358
ENCODING 8358
SWIDTH 2 0
DWIDTH 21 0
BBX 19 22 1 0
BITMAP
7801C0
7801C0
7C01C0
7C01C0
7E01C0
7701C0
FFFFE0
FFFFE0
7381C0
71C1C0
70E1C0
70E1C0
FFFFE0
FFFFE0
7039C0
701DC0
701DC0
700FC0
7007C0
7007C0
7003C0
7001C0
ENDCHAR
STARTCHAR char8361
ENCODING 8361
SWIDTH 23 0
DWIDTH 28 0
BBX 26 22 1 0
BITMAP
E01E01C0
E01E01C0
E01E01C0
E01E0380
703F0380
703F0380
FFFFFFC0
FFFFFFC0
38738700
38638700
38618700
38E18600
FFFFFFC0
FFFFFFC0
1CC0CE00
1DC0EC00
0DC0EC00
0F807C00
0F807C00
0F807800
07807800
07003800
ENDCHAR
STARTCHAR char8363
ENCODING 8363
SWIDTH 21 0
DWIDTH 17 0
BBX 13 24 2 -2
BITMAP
0030
0030
03F8
0030
0030
1F30
3FB0
70F0
E070
E070
C070
C030
C030
C070
E070
6070
79F0
3FB0
0E00
0000
0000
0000
FFF8
FFF8
ENDCHAR
STARTCHAR char8364
ENCODING 8364
SWIDTH 17 0
DWIDTH 16 0
BBX 16 20 0 0
BITMAP
00F8
03FE
078F
0E02
1C00
1C00
1800
7FF8
FFF8
3800
3800
7FF0
FFF0
1800
1C00
1C00
0E02
0F9E
07FE
01F8
ENDCHAR
STARTCHAR char8369
ENCODING 8369
SWIDTH 30 0
DWIDTH 20 0
BBX 17 22 1 0
BITMAP
3FFC00
3FFE00
301F00
300780
300380
300380
300380
300380
300380
300F00
3FFF00
3FFC00
300000
300000
300000
300000
FF8000
300000
300000
300000
300000
300000
ENDCHAR
STARTCHAR char8451
ENCODING 8451
SWIDTH 14 0
DWIDTH 35 0
BBX 29 22 2 0
BITMAP
00007E00
0001FF80
3C07EFC0
E60701E0
830E00E0
811C0070
811C0070
C3180000
E6380000
3C380000
00380000
00380000
00380000
00380000
00380038
001C0070
001C0070
000E00F0
000F00E0
0007C7C0
0003FF80
0000FE00
ENDCHAR
STARTCHAR char8467
ENCODING 8467
SWIDTH 5 0
DWIDTH 12 0
BBX 10 22 1 0
BITMAP
0F00
1F80
1980
18C0
18C0
18C0
1980
1980
1980
1B00
1E00
1C00
1800
3800
7800
D800
9800
1800
1800
1C40
1FC0
0700
ENDCHAR
STARTCHAR char8470
ENCODING 8470
SWIDTH 26 0
DWIDTH 29 0
BBX 27 22 1 0
BITMAP
F0070000
F0070000
F8070000
F8070000
FC070000
EC070000
EE070F80
E6071FC0
E70718E0
E3073060
E3873060
E1C73060
E1C73060
E0E73060
E0E718E0
E0771FC0
E0770780
E03F0000
E01F0000
E01F3FE0
E00F3FE0
E00F3FE0
ENDCHAR
STARTCHAR char8471
ENCODING 8471
SWIDTH 5 0
DWIDTH 22 0
BBX 20 20 1 0
BITMAP
03FC00
0E0700
180180
3000C0
63F840
43FC20
C30620
830630
830610
83FC10
83F810
830010
830030
C30020
430060
630040
3000C0
180380
0F0E00
01F800
ENDCHAR
STARTCHAR char8472
ENCODING 8472
SWIDTH 30 0
DWIDTH 20 0
BBX 16 24 2 -7
BITMAP
0800
1838
307C
70FE
61C6
E387
E307
C703
E603
EE03
EC03
7C07
7807
3806
39CE
78FC
7C78
6C00
CC00
CC00
CC00
CC00
7800
2000
ENDCHAR
STARTCHAR char8478
ENCODING 8478
SWIDTH 2 0
DWIDTH 21 0
BBX 19 22 3 0
BITMAP
FFF800
FFFC00
C03E00
C00F00
C00700
C00700
C00700
C00700
C00700
C00E00
FFFC00
FFFC00
C03E00
C00E00
C00620
C00760
C007C0
C00700
C00F00
C01F00
C03700
C00780
ENDCHAR
STARTCHAR char8480
ENCODING 8480
SWIDTH 29 0
DWIDTH 30 0
BBX 26 13 2 9
BITMAP
0E000000
7F8701C0
60C781C0
C0C783C0
E00683C0
7806C2C0
3F86C6C0
01C664C0
C0E66CC0
C0662CC0
E0C638C0
7F8638C0
04000000
ENDCHAR
STARTCHAR char8482
ENCODING 8482
SWIDTH 26 0
DWIDTH 29 0
BBX 25 11 2 10
BITMAP
FFE70380
0C070380
0C050380
0C058780
0C058780
0C04C580
0C04CD80
0C044980
0C047980
0C047980
0C043180
ENDCHAR
STARTCHAR char8486
ENCODING 8486
SWIDTH 5 0
DWIDTH 22 0
BBX 20 22 1 0
BITMAP
01F800
07FE00
0F9F00
1E0380
3801C0
3800E0
7000E0
7000E0
700060
700060
700060
7000E0
7000E0
3801C0
3C03C0
1E0780
0F0F00
070E00
030E00
030E00
FF0FF0
FF0FF0
ENDCHAR
STARTCHAR char8487
ENCODING 8487
SWIDTH 5 0
DWIDTH 22 0
BBX 20 22 1 0
BITMAP
FF0FF0
FF0FF0
030E00
030E00
030E00
0F0F00
1E0780
3C03C0
3801C0
7000E0
7000E0
700060
700060
700060
7000E0
7000E0
3800E0
3801C0
1E0380
0F9F00
07FE00
01F800
ENDCHAR
STARTCHAR char8494
ENCODING 8494
SWIDTH 14 0
DWIDTH 25 0
BBX 21 19 2 0
BITMAP
01FC00
060380
1800C0
300060
700070
700070
F00078
F00078
F00078
FFFFF8
F00000
F00000
700000
700000
300000
300060
1800C0
060100
01FE00
ENDCHAR
STARTCHAR char8592
ENCODING 8592
SWIDTH 26 0
DWIDTH 29 0
BBX 22 15 3 0
BITMAP
040000
0C0000
1C0000
180000
380000
700000
600000
FFFFFC
FFFFFC
600000
300000
380000
1C0000
0C0000
040000
ENDCHAR
STARTCHAR char8593
ENCODING 8593
SWIDTH 5 0
DWIDTH 22 0
BBX 14 22 4 -3
BITMAP
0300
0780
0FE0
3F70
7338
E30C
0300
0300
0300
0300
0300
0300
0300
0300
0300
0300
0300
0300
0300
0300
0300
0300
ENDCHAR
STARTCHAR char8594
ENCODING 8594
SWIDTH 26 0
DWIDTH 29 0
BBX 22 15 4 0
BITMAP
000040
0000C0
0000E0
000070
000030
000038
00001C
FFFFFC
FFFFFC
000018
000038
000070
000060
0000C0
000040
ENDCHAR
STARTCHAR char8595
ENCODING 8595
SWIDTH 5 0
DWIDTH 22 0
BBX 14 23 4 -5
BITMAP
0300
0300
0300
0300
0300
0300
0300
0300
0300
0300
0300
0300
0300
0300
0300
0300
4304
E31C
7338
3FF0
0FE0
0780
0300
ENDCHAR
STARTCHAR char8706
ENCODING 8706
SWIDTH 11 0
DWIDTH 14 0
BBX 14 22 0 0
BITMAP
3F00
3FC0
0060
0030
0030
0018
0018
001C
001C
001C
0FDC
1FFC
301C
701C
601C
E018
E018
E030
6030
7060
3FC0
1F00
ENDCHAR
STARTCHAR char8721
ENCODING 8721
SWIDTH 2 0
DWIDTH 21 0
BBX 15 25 3 -3
BITMAP
FFFE
FFFE
E000
6000
7000
7000
3000
3800
3800
1800
1C00
0C00
0C00
1C00
1C00
1800
3800
3800
3000
7000
6000
E000
E000
FFFE
FFFE
ENDCHAR
STARTCHAR char8722
ENCODING 8722
SWIDTH 21 0
DWIDTH 17 0
BBX 13 2 2 6
BITMAP
FFF8
FFF8
ENDCHAR
STARTCHAR char8723
ENCODING 8723
SWIDTH 21 0
DWIDTH 17 0
BBX 13 16 2 -1
BITMAP
FFF8
FFF8
0000
0000
0300
0300
0300
0300
0300
FFF8
FFF8
0300
0300
0300
0300
0300
ENDCHAR
STARTCHAR char8725
ENCODING 8725
SWIDTH 0 0
DWIDTH 0 0
BBX 14 21 -7 -1
BITMAP
000C
000C
0018
0010
0030
0060
0040
00C0
0180
0100
0300
0200
0600
0C00
0800
1800
3000
2000
6000
C000
C000
ENDCHAR
STARTCHAR char8727
ENCODING 8727
SWIDTH 14 0
DWIDTH 15 0
BBX 11 10 2 2
BITMAP
0C00
0C00
0C00
EDC0
FFE0
1E00
1F00
3B00
3380
2100
ENDCHAR
STARTCHAR char8730
ENCODING 8730
SWIDTH 17 0
DWIDTH 16 0
BBX 13 27 2 -1
BITMAP
0018
0010
0010
0030
0030
0030
0020
0020
0020
0060
0060
4040
C040
E040
20C0
30C0
10C0
1880
0880
0D80
0580
0780
0700
0300
0300
0100
0100
ENDCHAR
STARTCHAR char8734
ENCODING 8734
SWIDTH 2 0
DWIDTH 21 0
BBX 19 11 1 2
BITMAP
3E0F80
7F1FC0
63B8E0
C1F060
C0F060
C0E060
C0E060
C1F060
63B8E0
7F1FC0
3E0F80
ENDCHAR
STARTCHAR char8738
ENCODING 8738
SWIDTH 21 0
DWIDTH 17 0
BBX 11 15 3 0
BITMAP
0200
0720
03E0
03E0
0FC0
3CC0
F0C0
C0C0
F0C0
3CC0
0FC0
03E0
03E0
0720
0200
ENDCHAR
STARTCHAR char8776
ENCODING 8776
SWIDTH 27 0
DWIDTH 19 0
BBX 13 10 3 3
BITMAP
3800
7E18
C718
C3F0
00E0
1000
7C18
EF18
C3F0
00E0
ENDCHAR
STARTCHAR char8800
ENCODING 8800
SWIDTH 21 0
DWIDTH 17 0
BBX 13 17 2 -1
BITMAP
0020
0060
0060
00C0
00C0
FFF8
FFF8
0300
0700
0600
FFF8
FFF8
1800
1800
3000
3000
2000
ENDCHAR
STARTCHAR char8804
ENCODING 8804
SWIDTH 21 0
DWIDTH 17 0
BBX 10 21 3 -1
BITMAP
0040
00C0
01C0
0380
0700
0E00
3C00
7000
E000
E000
7000
3800
1E00
0700
0380
01C0
00C0
0040
0000
7FC0
7FC0
ENDCHAR
STARTCHAR char8805
ENCODING 8805
SWIDTH 21 0
DWIDTH 17 0
BBX 10 21 4 -1
BITMAP
8000
C000
E000
7000
3800
1C00
0700
0380
01C0
01C0
0380
0700
0E00
3800
7000
E000
C000
8000
0000
FF80
FF80
ENDCHAR
STARTCHAR char8902
ENCODING 8902
SWIDTH 17 0
DWIDTH 16 0
BBX 14 14 1 1
BITMAP
0300
0300
0300
0300
8304
F33C
7FF8
0FC0
0780
06C0
0CC0
1860
3830
1030
ENDCHAR
STARTCHAR char8960
ENCODING 8960
SWIDTH 21 0
DWIDTH 17 0
BBX 13 12 2 1
BITMAP
0F98
3FF8
3870
60F0
61F0
C398
C618
6C30
7830
38F0
7FE0
CF80
ENDCHAR
STARTCHAR char9001
ENCODING 9001
SWIDTH 17 0
DWIDTH 16 0
BBX 11 28 2 -6
BITMAP
0060
00E0
01C0
0180
0380
0300
0600
0E00
0C00
1800
3800
3000
6000
E000
E000
6000
3000
3800
1800
0C00
0E00
0600
0300
0380
0180
01C0
00E0
0060
ENDCHAR
STARTCHAR char9002
ENCODING 9002
SWIDTH 17 0
DWIDTH 16 0
BBX 11 28 2 -6
BITMAP
E000
6000
3000
3800
1800
0C00
0E00
0600
0300
0380
0180
01C0
00E0
0060
0060
00E0
00C0
0180
0380
0300
0600
0E00
0C00
1800
3800
3000
6000
E000
ENDCHAR
STARTCHAR char9250
ENCODING 9250
SWIDTH 17 0
DWIDTH 16 0
BBX 15 22 0 0
BITMAP
3000
3000
3000
3300
3E00
7800
F3E0
37F8
3E7C
381C
380E
300E
3006
3006
3006
3006
300E
380E
3C1C
3E7C
37F8
33E0
ENDCHAR
STARTCHAR char9251
ENCODING 9251
SWIDTH 14 0
DWIDTH 15 0
BBX 11 10 2 -3
BITMAP
C0E0
C0E0
C0E0
C0E0
C0E0
C0E0
C0E0
C0E0
FFE0
FFE0
ENDCHAR
STARTCHAR char9674
ENCODING 9674
SWIDTH 11 0
DWIDTH 14 0
BBX 14 22 0 0
BITMAP
0300
0780
07C0
0EC0
0CE0
1860
3830
3030
7018
601C
C00C
C00C
601C
7018
3030
3830
1860
0CE0
0EC0
07C0
0780
0300
ENDCHAR
STARTCHAR char9702
ENCODING 9702
SWIDTH 30 0
DWIDTH 10 0
BBX 8 8 1 6
BITMAP
3C
7E
67
E3
E3
67
7E
3C
ENDCHAR
STARTCHAR char9834
ENCODING 9834
SWIDTH 30 0
DWIDTH 20 0
BBX 17 22 2 0
BITMAP
00C000
00C000
00C000
00E000
00F000
00F000
00F800
00DC00
00CE00
00C600
00C700
00C300
00C300
00C380
00C000
3FC000
7FC000
FFC000
FFC000
FFC000
7F8000
3F0000
ENDCHAR
STARTCHAR char9901
ENCODING 9901
SWIDTH 17 0
DWIDTH 16 0
BBX 24 15 -4 0
BITMAP
07E3E0
1FFFF8
3C3C1C
703C0E
607607
606603
C06703
C06703
C06703
606603
607607
703E0E
3C3C1C
1FFFF8
07E3E0
ENDCHAR
STARTCHAR char9902
ENCODING 9902
SWIDTH 17 0
DWIDTH 16 0
BBX 28 31 -6 -8
BITMAP
00060000
00060000
00060000
00060000
00060000
00060000
00060000
00060000
1F060F80
3F861FC0
70C63860
60E63070
C0667030
C0666030
C0666030
C0666030
C0666030
C0666030
C0667030
60E63070
70C63860
3F861FC0
1F060F80
00060000
00060000
00060000
00060000
00060000
00060000
00060000
00060000
ENDCHAR
STARTCHAR char10214
ENCODING 10214
SWIDTH 5 0
DWIDTH 12 0
BBX 8 28 2 -6
BITMAP
FF
FF
CC
CC
CC
CC
CC
CC
CC
CC
CC
CC
CC
CC
CC
CC
CC
CC
CC
CC
CC
CC
CC
CC
CC
CC
FF
FF
ENDCHAR
STARTCHAR char10215
ENCODING 10215
SWIDTH 5 0
DWIDTH 12 0
BBX 8 28 2 -6
BITMAP
FF
FF
33
33
33
33
33
33
33
33
33
33
33
33
33
33
33
33
33
33
33
33
33
33
33
33
FF
FF
ENDCHAR
STARTCHAR char10877
ENCODING 10877
SWIDTH 21 0
DWIDTH 17 0
BBX 10 25 3 -5
BITMAP
0040
00C0
01C0
0380
0700
0E00
1C00
7800
E000
E000
7000
3800
1C00
0E00
0780
41C0
60C0
7840
1C00
0E00
0700
0380
01C0
00C0
0040
ENDCHAR
STARTCHAR char10878
ENCODING 10878
SWIDTH 21 0
DWIDTH 17 0
BBX 10 25 3 -5
BITMAP
8000
C000
E000
7000
3C00
0E00
0700
0380
01C0
00C0
03C0
0700
0E00
1C00
3800
7080
E180
C380
0700
0E00
3C00
7000
E000
C000
8000
ENDCHAR
STARTCHAR char57344
ENCODING 57344
SWIDTH 17 0
DWIDTH 16 0
BBX 14 25 1 0
BITMAP
0078
00F0
01C0
0180
0000
3030
1FF0
0FC0
0000
0380
0780
07C0
0FC0
0EC0
0CE0
1C60
1860
1870
3FF0
3FF8
7038
7018
601C
E01C
C00C
ENDCHAR
STARTCHAR char57345
ENCODING 57345
SWIDTH 17 0
DWIDTH 16 0
BBX 14 27 1 -5
BITMAP
1830
1860
0FE0
0780
0000
0000
0380
0780
07C0
0FC0
0EC0
0CE0
1C60
1860
1870
3FF0
3FF8
7038
7018
601C
E01C
C00C
0000
0000
0380
0380
0380
ENDCHAR
STARTCHAR char57346
ENCODING 57346
SWIDTH 17 0
DWIDTH 16 0
BBX 14 25 1 0
BITMAP
3800
1C00
0E00
0300
0000
3030
1FF0
0FC0
0000
0380
0780
07C0
0FC0
0EC0
0CE0
1C60
1860
1870
3FF0
3FF8
7038
7018
601C
E01C
C00C
ENDCHAR
STARTCHAR char57347
ENCODING 57347
SWIDTH 17 0
DWIDTH 16 0
BBX 14 26 1 0
BITMAP
0780
0EC0
0C60
01C0
0380
0300
3030
1FF0
0FC0
0000
0380
0780
07C0
0FC0
0EC0
0CE0
1C60
1860
1870
3FF0
3FF8
7038
7018
601C
E01C
C00C
ENDCHAR
STARTCHAR char57348
ENCODING 57348
SWIDTH 17 0
DWIDTH 16 0
BBX 14 24 1 0
BITMAP
1F70
1FE0
10C0
0000
3030
1FF0
0FC0
0000
0380
0780
07C0
0FC0
0EC0
0CE0
1C60
1860
1870
3FF0
3FF8
7038
7018
601C
E01C
C00C
ENDCHAR
STARTCHAR char57349
ENCODING 57349
SWIDTH 17 0
DWIDTH 16 0
BBX 14 22 1 0
BITMAP
1860
0CC0
07C0
0780
0000
0000
0380
0780
07C0
0FC0
0EC0
0CE0
1C60
1860
1870
3FF0
3FF8
7038
7018
601C
E01C
C00C
ENDCHAR
STARTCHAR char57350
ENCODING 57350
SWIDTH 17 0
DWIDTH 16 0
BBX 14 26 1 0
BITMAP
0078
00F0
01C0
0180
0000
07C0
0EE0
1870
0000
0000
0380
0780
07C0
0FC0
0EC0
0CE0
1C60
1860
1870
3FF0
3FF8
7038
7018
601C
E01C
C00C
ENDCHAR
STARTCHAR char57351
ENCODING 57351
SWIDTH 17 0
DWIDTH 16 0
BBX 14 27 1 -5
BITMAP
0780
07C0
0CC0
1860
0000
0000
0380
0780
07C0
0FC0
0EC0
0CE0
1C60
1860
1870
3FF0
3FF8
7038
7018
601C
E01C
C00C
0000
0000
0380
0380
0380
ENDCHAR
STARTCHAR char57352
ENCODING 57352
SWIDTH 17 0
DWIDTH 16 0
BBX 14 26 1 0
BITMAP
3800
1C00
0E00
0300
0000
07C0
0EE0
1870
0000
0000
0380
0780
07C0
0FC0
0EC0
0CE0
1C60
1860
1870
3FF0
3FF8
7038
7018
601C
E01C
C00C
ENDCHAR
STARTCHAR char57353
ENCODING 57353
SWIDTH 17 0
DWIDTH 16 0
BBX 14 28 1 0
BITMAP
03F0
0330
0330
0070
00C0
00C0
0000
07C0
0EE0
1870
0000
0000
0380
0780
07C0
0FC0
0EC0
0CE0
1C60
1860
1870
3FF0
3FF8
7038
7018
601C
E01C
C00C
ENDCHAR
STARTCHAR char57354
ENCODING 57354
SWIDTH 17 0
DWIDTH 16 0
BBX 14 26 1 0
BITMAP
0E30
1FE0
11E0
0000
0780
0FC0
1CE0
1830
0000
0000
0380
0780
07C0
0FC0
0EC0
0CE0
1C60
1860
1870
3FF0
3FF8
7038
7018
601C
E01C
C00C
ENDCHAR
STARTCHAR char57355
ENCODING 57355
SWIDTH 17 0
DWIDTH 16 0
BBX 14 22 1 0
BITMAP
F700
7380
19C0
0CC0
0000
0000
0380
0780
07C0
0FC0
0EC0
0CE0
1C60
1860
1870
3FF0
3FF8
7038
7018
601C
E01C
C00C
ENDCHAR
STARTCHAR char57356
ENCODING 57356
SWIDTH 17 0
DWIDTH 16 0
BBX 14 21 1 -5
BITMAP
0380
0780
07C0
0FC0
0EC0
0CE0
1C60
1860
1870
3FF0
3FF8
7038
7018
601C
E01C
C00C
0000
0000
0380
0380
0380
ENDCHAR
STARTCHAR char57357
ENCODING 57357
SWIDTH 17 0
DWIDTH 16 0
BBX 14 24 1 0
BITMAP
0780
0FC0
0C60
00C0
01C0
0300
0300
0000
0380
0780
07C0
0FC0
0EC0
0CE0
1C60
1860
1870
3FF0
3FF8
7038
7018
601C
E01C
C00C
ENDCHAR
STARTCHAR char57359
ENCODING 57359
SWIDTH 17 0
DWIDTH 16 0
BBX 15 29 1 -7
BITMAP
0070
00E0
01C0
0180
0000
0000
0380
0780
07C0
0FC0
0EC0
0CE0
1C60
1860
1870
3FF0
3FF8
7038
7018
601C
E01C
C00C
0018
0030
0030
0030
0038
003E
001E
ENDCHAR
STARTCHAR char57360
ENCODING 57360
SWIDTH 17 0
DWIDTH 16 0
BBX 14 27 1 0
BITMAP
0078
00F0
01C0
0180
0000
0780
04C0
0C40
06C0
0780
0000
0380
0780
07C0
0FC0
0EC0
0CE0
1C60
1860
1870
3FF0
3FF8
7038
7018
601C
E01C
C00C
ENDCHAR
STARTCHAR char57361
ENCODING 57361
SWIDTH 21 0
DWIDTH 17 0
BBX 15 16 1 0
BITMAP
7FE0
7FF0
7038
701C
700C
700E
700E
FF0E
FF0E
700E
700E
700C
701C
7038
7FF0
7FE0
ENDCHAR
STARTCHAR char57362
ENCODING 57362
SWIDTH 21 0
DWIDTH 17 0
BBX 14 21 2 -5
BITMAP
FFC0
FFE0
E070
E038
E018
E01C
E01C
E01C
E01C
E01C
E01C
E018
E038
E070
FFE0
FFC0
0000
0000
0700
0700
0700
ENDCHAR
STARTCHAR char57363
ENCODING 57363
SWIDTH 21 0
DWIDTH 17 0
BBX 14 21 2 -5
BITMAP
FFC0
FFE0
E070
E038
E018
E01C
E01C
E01C
E01C
E01C
E01C
E018
E038
E070
FFE0
FFC0
0000
0000
0000
1FE0
1FE0
ENDCHAR
STARTCHAR char57364
ENCODING 57364
SWIDTH 21 0
DWIDTH 7 0
BBX 2 16 3 0
BITMAP
C0
C0
C0
C0
C0
C0
C0
C0
C0
C0
C0
C0
C0
C0
C0
C0
ENDCHAR
STARTCHAR char57365
ENCODING 57365
SWIDTH 8 0
DWIDTH 13 0
BBX 9 16 1 0
BITMAP
0180
0180
0180
0180
0180
0180
0180
0180
0180
0180
C180
C180
C180
E380
7F00
3E00
ENDCHAR
STARTCHAR char57366
ENCODING 57366
SWIDTH 17 0
DWIDTH 16 0
BBX 13 26 2 0
BITMAP
00F0
01E0
0180
0300
0000
0F80
1DC0
30E0
0000
0000
FFF0
FFF0
E000
E000
E000
E000
E000
FFF0
FFF0
E000
E000
E000
E000
E000
FFF8
FFF8
ENDCHAR
STARTCHAR char57367
ENCODING 57367
SWIDTH 17 0
DWIDTH 16 0
BBX 13 27 2 -5
BITMAP
0700
0F80
19C0
30C0
0000
0000
FFF0
FFF0
E000
E000
E000
E000
E000
FFF0
FFF0
E000
E000
E000
E000
E000
FFF8
FFF8
0000
0000
0E00
0E00
0E00
ENDCHAR
STARTCHAR char57368
ENCODING 57368
SWIDTH 17 0
DWIDTH 16 0
BBX 13 26 2 0
BITMAP
7000
3800
1C00
0600
0000
0F80
1DC0
30E0
0000
0000
FFF0
FFF0
E000
E000
E000
E000
E000
FFF0
FFF0
E000
E000
E000
E000
E000
FFF8
FFF8
ENDCHAR
STARTCHAR char57369
ENCODING 57369
SWIDTH 17 0
DWIDTH 16 0
BBX 13 28 2 0
BITMAP
03E0
0660
0660
00E0
0180
0180
0000
0F80
1DC0
30E0
0000
0000
FFF0
FFF0
E000
E000
E000
E000
E000
FFF0
FFF0
E000
E000
E000
E000
E000
FFF8
FFF8
ENDCHAR
STARTCHAR char57370
ENCODING 57370
SWIDTH 17 0
DWIDTH 16 0
BBX 13 26 2 0
BITMAP
1C60
3FE0
33C0
0000
0F80
1F80
18C0
3060
0000
0000
FFF0
FFF0
E000
E000
E000
E000
E000
FFF0
FFF0
E000
E000
E000
E000
E000
FFF8
FFF8
ENDCHAR
STARTCHAR char57371
ENCODING 57371
SWIDTH 17 0
DWIDTH 16 0
BBX 13 22 2 0
BITMAP
EE00
6700
3180
18C0
0000
0000
FFF0
FFF0
E000
E000
E000
E000
E000
FFF0
FFF0
E000
E000
E000
E000
E000
FFF8
FFF8
ENDCHAR
STARTCHAR char57372
ENCODING 57372
SWIDTH 17 0
DWIDTH 16 0
BBX 13 21 2 -5
BITMAP
FFF0
FFF0
E000
E000
E000
E000
E000
FFF0
FFF0
E000
E000
E000
E000
E000
FFF8
FFF8
0000
0000
0E00
0E00
0E00
ENDCHAR
STARTCHAR char57373
ENCODING 57373
SWIDTH 17 0
DWIDTH 16 0
BBX 13 24 2 0
BITMAP
0F80
1F80
18C0
01C0
0380
0700
0600
0000
FFF0
FFF0
E000
E000
E000
E000
E000
FFF0
FFF0
E000
E000
E000
E000
E000
FFF8
FFF8
ENDCHAR
STARTCHAR char57374
ENCODING 57374
SWIDTH 17 0
DWIDTH 16 0
BBX 13 29 2 -7
BITMAP
00E0
01C0
0380
0300
0000
0000
FFF0
FFF0
E000
E000
E000
E000
E000
FFF0
FFF0
E000
E000
E000
E000
E000
FFF8
FFF8
0060
00C0
00C0
00C0
00E0
00F8
0078
ENDCHAR
STARTCHAR char57375
ENCODING 57375
SWIDTH 17 0
DWIDTH 16 0
BBX 13 16 2 0
BITMAP
7FF8
7FF8
0038
0038
0038
0038
0038
7FF8
7FF8
0038
0038
0038
0038
0038
FFF8
FFF8
ENDCHAR
STARTCHAR char57376
ENCODING 57376
SWIDTH 17 0
DWIDTH 16 0
BBX 13 20 2 0
BITMAP
1C60
3FC0
33C0
0000
FFF0
FFF0
E000
E000
E000
E000
E000
FFF0
FFF0
E000
E000
E000
E000
E000
FFF8
FFF8
ENDCHAR
STARTCHAR char57377
ENCODING 57377
SWIDTH 17 0
DWIDTH 16 0
BBX 13 15 2 0
BITMAP
FFF8
FFF8
0038
0038
0038
0038
7FF8
7FF8
7FF8
0038
0038
0038
0038
7FF8
7FF8
ENDCHAR
STARTCHAR char57378
ENCODING 57378
SWIDTH 24 0
DWIDTH 18 0
BBX 16 22 1 0
BITMAP
0038
0070
0060
00C0
0000
0000
07E0
1FF8
3C1C
700E
6006
E000
E000
E0FF
E0FF
E007
E007
7007
700F
3C1F
1FFB
07E3
ENDCHAR
STARTCHAR char57379
ENCODING 57379
SWIDTH 24 0
DWIDTH 18 0
BBX 16 22 1 0
BITMAP
0C30
0670
0760
03C0
01C0
0000
07E0
1FF8
3C1C
700E
6006
E000
E000
E0FF
E0FF
E007
E007
7007
700F
3C1F
1FFB
07E3
ENDCHAR
STARTCHAR char57380
ENCODING 57380
SWIDTH 10 0
DWIDTH 34 0
BBX 30 16 2 0
BITMAP
0FC00FC0
3FE03FF0
70707070
60386038
E0386018
60007000
78007C00
3FC03FC0
0FF007F0
00780078
C038E018
C018E01C
E0186018
70387038
3FF03FF0
1FC00FC0
ENDCHAR
STARTCHAR char57381
ENCODING 57381
SWIDTH 24 0
DWIDTH 18 0
BBX 13 20 2 0
BITMAP
1E60
3FE0
31C0
0000
E018
E018
E018
E018
E018
E018
E018
FFF8
FFF8
E018
E018
E018
E018
E018
E018
E018
ENDCHAR
STARTCHAR char57382
ENCODING 57382
SWIDTH 24 0
DWIDTH 18 0
BBX 13 22 2 -6
BITMAP
E018
E018
E018
E018
E018
E018
E018
FFF8
FFF8
E018
E018
E018
E018
E018
E018
E018
0000
0000
7030
3070
3FE0
0FC0
ENDCHAR
STARTCHAR char57383
ENCODING 57383
SWIDTH 24 0
DWIDTH 18 0
BBX 13 20 2 0
BITMAP
1CE0
1CE0
1CE0
0000
E018
E018
E018
E018
E018
E018
E018
FFF8
FFF8
E018
E018
E018
E018
E018
E018
E018
ENDCHAR
STARTCHAR char57384
ENCODING 57384
SWIDTH 21 0
DWIDTH 7 0
BBX 8 22 0 0
BITMAP
C3
66
7C
3C
00
00
18
18
18
18
18
18
18
18
18
18
18
18
18
18
18
18
ENDCHAR
STARTCHAR char57385
ENCODING 57385
SWIDTH 21 0
DWIDTH 7 0
BBX 10 22 -3 0
BITMAP
E700
7380
3980
18C0
0000
0000
0300
0300
0300
0300
0300
0300
0300
0300
0300
0300
0300
0300
0300
0300
0300
0300
ENDCHAR
STARTCHAR char57386
ENCODING 57386
SWIDTH 21 0
DWIDTH 7 0
BBX 10 26 0 0
BITMAP
03C0
0700
0E00
1C00
0000
0000
E700
E700
E700
0000
1800
1800
1800
1800
1800
1800
1800
1800
1800
1800
1800
1800
1800
1800
1800
1800
ENDCHAR
STARTCHAR char57388
ENCODING 57388
SWIDTH 21 0
DWIDTH 7 0
BBX 3 21 2 -5
BITMAP
60
60
60
60
60
60
60
60
60
60
60
60
60
60
60
60
00
00
E0
E0
E0
ENDCHAR
STARTCHAR char57389
ENCODING 57389
SWIDTH 21 0
DWIDTH 7 0
BBX 6 24 1 0
BITMAP
78
FC
8C
0C
18
30
30
00
30
30
30
30
30
30
30
30
30
30
30
30
30
30
30
30
ENDCHAR
STARTCHAR char57390
ENCODING 57390
SWIDTH 21 0
DWIDTH 7 0
BBX 4 20 2 0
BITMAP
F0
F0
00
00
60
60
60
60
60
60
60
60
60
60
60
60
60
60
60
60
ENDCHAR
STARTCHAR char57391
ENCODING 57391
SWIDTH 21 0
DWIDTH 7 0
BBX 7 29 1 -7
BITMAP
0E
0C
18
30
00
00
30
30
30
30
30
30
30
30
30
30
30
30
30
30
30
30
60
C0
C0
C0
E0
F8
78
ENDCHAR
STARTCHAR char57392
ENCODING 57392
SWIDTH 8 0
DWIDTH 13 0
BBX 13 22 1 0
BITMAP
0038
0070
00E0
00C0
0000
0000
0180
0180
0180
0180
0180
0180
0180
0180
0180
0180
C180
C180
C180
E380
7F00
3E00
ENDCHAR
STARTCHAR char57393
ENCODING 57393
SWIDTH 8 0
DWIDTH 13 0
BBX 14 20 -1 0
BITMAP
7180
FF80
CF00
0000
1C00
1C00
1C00
1C00
1C00
1C00
1C00
1C00
1C00
1C00
1C00
1C00
1C00
1C00
1FFC
1FFC
ENDCHAR
STARTCHAR char57394
ENCODING 57394
SWIDTH 14 0
DWIDTH 15 0
BBX 12 16 2 0
BITMAP
7000
7000
7000
7000
7400
7400
7C00
7800
7000
F000
F000
F000
7000
7000
7FF0
7FF0
ENDCHAR
STARTCHAR char57395
ENCODING 57395
SWIDTH 24 0
DWIDTH 18 0
BBX 16 22 1 0
BITMAP
0C30
0660
0760
03C0
03C0
0000
07E0
1FF8
3C1C
700E
6007
E007
E003
C003
C003
E003
E007
6007
700E
3C1C
1FF8
07E0
ENDCHAR
STARTCHAR char57396
ENCODING 57396
SWIDTH 24 0
DWIDTH 18 0
BBX 16 26 1 0
BITMAP
003C
0078
00E0
01C0
0000
03C0
07E0
0E70
1C38
0000
07E0
1FF8
3C1C
700E
6007
E007
E003
C003
C003
E003
E007
6007
700E
3C1C
1FF8
07E0
ENDCHAR
STARTCHAR char57397
ENCODING 57397
SWIDTH 24 0
DWIDTH 18 0
BBX 16 27 1 -5
BITMAP
03C0
03C0
0760
0660
0C30
0000
07E0
1FF8
3C1C
700E
6007
E007
E003
C003
C003
E003
E007
6007
700E
3C1C
1FF8
07E0
0000
0000
01C0
01C0
01C0
ENDCHAR
STARTCHAR char57398
ENCODING 57398
SWIDTH 24 0
DWIDTH 18 0
BBX 16 26 1 0
BITMAP
3C00
0E00
0700
0380
0000
03C0
07E0
0E70
1C38
0000
07E0
1FF8
3C1C
700E
6007
E007
E003
C003
C003
E003
E007
6007
700E
3C1C
1FF8
07E0
ENDCHAR
STARTCHAR char57399
ENCODING 57399
SWIDTH 24 0
DWIDTH 18 0
BBX 16 28 1 0
BITMAP
00F0
01F8
0118
0038
0060
0060
0000
03C0
07E0
0E70
1C38
0000
07E0
1FF8
3C1C
700E
6007
E007
E003
C003
C003
E003
E007
6007
700E
3C1C
1FF8
07E0
ENDCHAR
STARTCHAR char57400
ENCODING 57400
SWIDTH 24 0
DWIDTH 18 0
BBX 16 25 1 0
BITMAP
0718
0FF0
18F0
0000
03C0
07E0
0E70
1C38
0000
07E0
1FF8
3C1C
700E
6007
E007
E003
C003
C003
E003
E007
6007
700E
3C1C
1FF8
07E0
ENDCHAR
STARTCHAR char57401
ENCODING 57401
SWIDTH 24 0
DWIDTH 18 0
BBX 16 22 1 0
BITMAP
7380
39C0
18C0
0C60
0660
0000
07E0
1FF8
3C1C
700E
6007
E007
E003
C003
C003
E003
E007
6007
700E
3C1C
1FF8
07E0
ENDCHAR
STARTCHAR char57402
ENCODING 57402
SWIDTH 24 0
DWIDTH 18 0
BBX 16 21 1 -5
BITMAP
07E0
1FF8
3C1C
700E
6007
E007
E003
C003
C003
E003
E007
6007
700E
3C1C
1FF8
07E0
0000
0000
01C0
01C0
01C0
ENDCHAR
STARTCHAR char57403
ENCODING 57403
SWIDTH 8 0
DWIDTH 23 0
BBX 21 16 1 0
BITMAP
0FDFF8
1FFFF8
387800
703800
601800
E01800
E01800
E01FF8
E01FF8
E01800
E01800
601800
701800
387800
1FFFF8
0FDFF8
ENDCHAR
STARTCHAR char57404
ENCODING 57404
SWIDTH 24 0
DWIDTH 18 0
BBX 16 24 1 0
BITMAP
0180
07E0
0660
0660
00E0
0180
0180
0000
07E0
1FF8
3C1C
700E
6007
E007
E003
C003
C003
E003
E007
6007
700E
3C1C
1FF8
07E0
ENDCHAR
STARTCHAR char57405
ENCODING 57405
SWIDTH 27 0
DWIDTH 19 0
BBX 17 19 1 0
BITMAP
000380
000380
000380
07F080
1FFD80
3C3F80
300F00
700700
600300
E00300
E00380
E00380
E00300
600300
700700
700E00
3C1E00
1FFC00
07F000
ENDCHAR
STARTCHAR char57406
ENCODING 57406
SWIDTH 27 0
DWIDTH 19 0
BBX 17 22 1 0
BITMAP
003800
007000
006000
00C380
000380
000380
07F080
1FFD80
3C3F80
300F00
700700
600300
E00300
E00380
E00380
E00300
600300
700700
700E00
3C1E00
1FFC00
07F000
ENDCHAR
STARTCHAR char57407
ENCODING 57407
SWIDTH 27 0
DWIDTH 19 0
BBX 17 24 1 -5
BITMAP
000380
000380
000380
07F080
1FFD80
3C3F80
300F00
700700
600300
E00300
E00380
E00380
E00300
600300
700700
700E00
3C1E00
1FFC00
07F000
000000
000000
01C000
01C000
01C000
ENDCHAR
STARTCHAR char57408
ENCODING 57408
SWIDTH 27 0
DWIDTH 19 0
BBX 17 22 1 0
BITMAP
0E0000
060000
030000
018380
000380
000380
07F080
1FFD80
3C3F80
300F00
700700
600300
E00300
E00380
E00380
E00300
600300
700700
700E00
3C1E00
1FFC00
07F000
ENDCHAR
STARTCHAR char57409
ENCODING 57409
SWIDTH 27 0
DWIDTH 19 0
BBX 17 24 1 0
BITMAP
01C000
03E000
063000
063000
00E000
00C380
018380
000380
07F080
1FFD80
3C3F80
300F00
700700
600300
E00300
E00380
E00380
E00300
600300
700700
700E00
3C1E00
1FFC00
07F000
ENDCHAR
STARTCHAR char57410
ENCODING 57410
SWIDTH 27 0
DWIDTH 19 0
BBX 17 20 1 0
BITMAP
071800
0FF000
0CF380
000380
07E380
1FF880
3C3D80
300F00
700700
600300
E00300
E00380
E00380
E00300
600300
700700
700E00
3C1E00
1FFC00
07F000
ENDCHAR
STARTCHAR char57411
ENCODING 57411
SWIDTH 24 0
DWIDTH 18 0
BBX 16 22 1 -6
BITMAP
07E0
1FF8
3C1C
700E
6007
E007
E003
C003
C003
E003
E007
6007
700E
3C1C
1FF8
07E0
0180
0300
0300
0300
03E0
01E0
ENDCHAR
STARTCHAR char57412
ENCODING 57412
SWIDTH 24 0
DWIDTH 18 0
BBX 16 28 1 -6
BITMAP
0038
0070
00E0
00C0
0000
0000
07E0
1FF8
3C1C
700E
6007
E007
E003
C003
C003
E003
E007
6007
700E
3C1C
1FF8
07E0
0180
0300
0300
0300
03E0
01E0
ENDCHAR
STARTCHAR char57413
ENCODING 57413
SWIDTH 24 0
DWIDTH 18 0
BBX 14 22 2 0
BITMAP
E700
7380
3980
18C0
0000
0000
7FE0
7FF8
6078
6018
6018
6018
6038
7FF0
7FE0
6038
6018
6018
6018
6018
6018
601C
ENDCHAR
STARTCHAR char57414
ENCODING 57414
SWIDTH 24 0
DWIDTH 18 0
BBX 13 20 3 0
BITMAP
0E00
0E00
0E00
0000
FFC0
FFF0
C0F0
C030
C030
C030
C070
FFE0
FFC0
C070
C030
C030
C030
C030
C030
C038
ENDCHAR
STARTCHAR char57415
ENCODING 57415
SWIDTH 17 0
DWIDTH 16 0
BBX 14 22 1 0
BITMAP
1860
1CC0
0DC0
0780
0780
0000
0FC0
3FF0
7070
6038
6018
6000
7C00
3FC0
07F0
0078
E018
E01C
E018
7038
3FF0
0FC0
ENDCHAR
STARTCHAR char57416
ENCODING 57416
SWIDTH 17 0
DWIDTH 16 0
BBX 14 21 1 -5
BITMAP
0FC0
3FF0
7070
6038
6018
6000
7C00
3FC0
07F0
0078
E018
E01C
E018
7038
3FF0
0FC0
0000
0000
0700
0700
0700
ENDCHAR
STARTCHAR char57417
ENCODING 57417
SWIDTH 11 0
DWIDTH 14 0
BBX 14 20 0 0
BITMAP
0E30
1FE0
31E0
0000
FFFC
FFFC
0300
0300
0300
0300
0300
0300
0300
0300
0300
0300
0300
0300
0300
0300
ENDCHAR
STARTCHAR char57418
ENCODING 57418
SWIDTH 11 0
DWIDTH 14 0
BBX 14 23 0 -7
BITMAP
FFFC
FFFC
0300
0300
0300
0300
0300
0300
0300
0300
0300
0300
0300
0300
0300
0300
0300
0200
07C0
00C0
00C0
19C0
0F80
ENDCHAR
STARTCHAR char57419
ENCODING 57419
SWIDTH 11 0
DWIDTH 14 0
BBX 14 20 0 0
BITMAP
1CE0
1CE0
1CE0
0000
FFFC
FFFC
0300
0300
0300
0300
0300
0300
0300
0300
0300
0300
0300
0300
0300
0300
ENDCHAR
STARTCHAR char57420
ENCODING 57420
SWIDTH 11 0
DWIDTH 14 0
BBX 14 21 0 -5
BITMAP
FFFC
FFFC
0300
0300
0300
0300
0300
0300
0300
0300
0300
0300
0300
0300
0300
0300
0000
0000
0380
0380
0380
ENDCHAR
STARTCHAR char57421
ENCODING 57421
SWIDTH 11 0
DWIDTH 14 0
BBX 14 21 0 -5
BITMAP
FFFC
FFFC
0300
0300
0300
0300
0300
0300
0300
0300
0300
0300
0300
0300
0300
0300
0000
0000
0000
1FE0
1FE0
ENDCHAR
STARTCHAR char57422
ENCODING 57422
SWIDTH 24 0
DWIDTH 18 0
BBX 13 21 2 -5
BITMAP
E018
E018
E018
E018
E018
E018
E018
E018
E018
E018
E018
E018
6038
7078
3FF0
0FC0
0000
0000
0FC0
3FF0
3030
ENDCHAR
STARTCHAR char57424
ENCODING 57424
SWIDTH 24 0
DWIDTH 18 0
BBX 13 22 2 0
BITMAP
1860
0CC0
0F80
0780
0000
0000
E018
E018
E018
E018
E018
E018
E018
E018
E018
E018
E018
E018
6038
7078
3FF0
0FC0
ENDCHAR
STARTCHAR char57425
ENCODING 57425
SWIDTH 24 0
DWIDTH 18 0
BBX 13 22 2 0
BITMAP
E700
7380
3980
18C0
0000
0000
E018
E018
E018
E018
E018
E018
E018
E018
E018
E018
E018
E018
6038
7078
3FF0
0FC0
ENDCHAR
STARTCHAR char57426
ENCODING 57426
SWIDTH 24 0
DWIDTH 18 0
BBX 13 26 2 0
BITMAP
0070
00E0
01C0
0300
0000
0000
1CC0
1CC0
1CC0
0000
E018
E018
E018
E018
E018
E018
E018
E018
E018
E018
E018
E018
6038
7078
3FF0
0FC0
ENDCHAR
STARTCHAR char57427
ENCODING 57427
SWIDTH 24 0
DWIDTH 18 0
BBX 13 26 2 0
BITMAP
3860
1CE0
0FC0
0780
0000
0000
1CC0
1CC0
1CC0
0000
E018
E018
E018
E018
E018
E018
E018
E018
E018
E018
E018
E018
6038
7078
3FF0
0FC0
ENDCHAR
STARTCHAR char57428
ENCODING 57428
SWIDTH 24 0
DWIDTH 18 0
BBX 13 26 2 0
BITMAP
7800
3C00
0E00
0600
0000
0000
1CC0
1CC0
1CC0
0000
E018
E018
E018
E018
E018
E018
E018
E018
E018
E018
E018
E018
6038
7078
3FF0
0FC0
ENDCHAR
STARTCHAR char57429
ENCODING 57429
SWIDTH 24 0
DWIDTH 18 0
BBX 13 21 2 -5
BITMAP
E018
E018
E018
E018
E018
E018
E018
E018
E018
E018
E018
E018
6038
7078
3FF0
0FC0
0000
0000
0700
0700
0700
ENDCHAR
STARTCHAR char57430
ENCODING 57430
SWIDTH 24 0
DWIDTH 18 0
BBX 13 24 2 0
BITMAP
0780
0FC0
08C0
00C0
0380
0300
0300
0000
E018
E018
E018
E018
E018
E018
E018
E018
E018
E018
E018
E018
6038
7078
3FF0
0FC0
ENDCHAR
STARTCHAR char57431
ENCODING 57431
SWIDTH 30 0
DWIDTH 20 0
BBX 17 20 3 0
BITMAP
000380
000380
000380
000100
C01900
C01900
C01B00
C01E00
C01C00
C01800
C01800
C01800
C01800
C01800
C01800
C01800
E03800
707000
3FE000
1F8000
ENDCHAR
STARTCHAR char57432
ENCODING 57432
SWIDTH 30 0
DWIDTH 20 0
BBX 17 22 3 0
BITMAP
00E000
01C000
018380
030380
000380
000100
C01900
C01900
C01B00
C01E00
C01C00
C01800
C01800
C01800
C01800
C01800
C01800
C01800
E03800
707000
3FE000
1F8000
ENDCHAR
STARTCHAR char57433
ENCODING 57433
SWIDTH 30 0
DWIDTH 20 0
BBX 17 25 3 -5
BITMAP
000380
000380
000380
000100
C01900
C01900
C01B00
C01E00
C01C00
C01800
C01800
C01800
C01800
C01800
C01800
C01800
E03800
707000
3FE000
1F8000
000000
000000
070000
070000
070000
ENDCHAR
STARTCHAR char57434
ENCODING 57434
SWIDTH 30 0
DWIDTH 20 0
BBX 17 22 3 0
BITMAP
380000
1C0000
0C0380
060380
000380
000100
C01900
C01900
C01B00
C01E00
C01C00
C01800
C01800
C01800
C01800
C01800
C01800
C01800
E03800
707000
3FE000
1F8000
ENDCHAR
STARTCHAR char57435
ENCODING 57435
SWIDTH 30 0
DWIDTH 20 0
BBX 17 24 3 0
BITMAP
0F8000
0FC000
18C000
01C000
038380
070380
060380
000100
C01900
C01900
C01B00
C01E00
C01C00
C01800
C01800
C01800
C01800
C01800
C01800
C01800
E03800
707000
3FE000
1F8000
ENDCHAR
STARTCHAR char57436
ENCODING 57436
SWIDTH 30 0
DWIDTH 20 0
BBX 17 20 3 0
BITMAP
1C6000
3FE380
33C380
000380
C01900
C01900
C01B00
C01E00
C01C00
C01800
C01800
C01800
C01800
C01800
C01800
C01800
E03800
707000
3FE000
1F8000
ENDCHAR
STARTCHAR char57437
ENCODING 57437
SWIDTH 17 0
DWIDTH 16 0
BBX 15 21 1 -5
BITMAP
E00E
701C
7038
3838
1870
1C60
0EE0
07C0
0780
0380
0380
0380
0380
0380
0380
0380
0000
0000
0380
0380
0380
ENDCHAR
STARTCHAR char57438
ENCODING 57438
SWIDTH 17 0
DWIDTH 16 0
BBX 15 24 1 0
BITMAP
0780
0FC0
0C60
00C0
01C0
0300
0300
0000
E00E
701C
7038
3838
1870
1C60
0EE0
07C0
0780
0380
0380
0380
0380
0380
0380
0380
ENDCHAR
STARTCHAR char57439
ENCODING 57439
SWIDTH 17 0
DWIDTH 16 0
BBX 15 20 1 0
BITMAP
0E30
1FE0
11E0
0000
E00E
701C
7038
3838
1870
1C60
0EE0
07C0
0780
0380
0380
0380
0380
0380
0380
0380
ENDCHAR
STARTCHAR char57440
ENCODING 57440
SWIDTH 11 0
DWIDTH 14 0
BBX 13 22 1 0
BITMAP
10C0
19C0
0F80
0700
0000
0000
FFF0
FFF0
0070
00E0
01C0
01C0
0380
0700
0E00
1C00
1C00
3800
7000
E000
FFF8
FFF8
ENDCHAR
STARTCHAR char57441
ENCODING 57441
SWIDTH 11 0
DWIDTH 14 0
BBX 13 21 1 -5
BITMAP
FFF0
FFF0
0070
00E0
01C0
01C0
0380
0700
0E00
1C00
1C00
3800
7000
E000
FFF8
FFF8
0000
0000
0700
0700
0700
ENDCHAR
STARTCHAR char59395
ENCODING 59395
SWIDTH 8 0
DWIDTH 23 0
BBX 22 22 1 0
BITMAP
1E7000
3E7000
387000
307000
307000
307000
FE7038
FE7070
3070E0
3071C0
307380
307700
307F80
307F80
3079C0
3071C0
3070E0
3070E0
307070
307038
307038
30701C
ENDCHAR
STARTCHAR char59904
ENCODING 59904
SWIDTH 30 0
DWIDTH 10 0
BBX 7 4 4 17
BITMAP
1E
38
70
E0
ENDCHAR
STARTCHAR char59905
ENCODING 59905
SWIDTH 0 0
DWIDTH 0 0
BBX 7 4 -9 23
BITMAP
1E
38
70
E0
ENDCHAR
STARTCHAR char59906
ENCODING 59906
SWIDTH 30 0
DWIDTH 10 0
BBX 10 3 0 17
BITMAP
C0C0
FFC0
7F00
ENDCHAR
STARTCHAR char59907
ENCODING 59907
SWIDTH 30 0
DWIDTH 10 0
BBX 11 8 0 17
BITMAP
01E0
0380
0700
0E00
0000
C0C0
FFC0
7F00
ENDCHAR
STARTCHAR char59908
ENCODING 59908
SWIDTH 30 0
DWIDTH 10 0
BBX 11 8 0 17
BITMAP
01E0
0380
0700
0E00
0000
C0C0
FFC0
7F00
ENDCHAR
STARTCHAR char59909
ENCODING 59909
SWIDTH 30 0
DWIDTH 10 0
BBX 10 4 0 -6
BITMAP
C0C0
E1C0
FF80
3F00
ENDCHAR
STARTCHAR char59910
ENCODING 59910
SWIDTH 30 0
DWIDTH 10 0
BBX 10 4 0 -6
BITMAP
3F00
FF80
E1C0
C0C0
ENDCHAR
STARTCHAR char59911
ENCODING 59911
SWIDTH 0 0
DWIDTH 0 0
BBX 10 4 -13 23
BITMAP
C0C0
E1C0
FF80
3F00
ENDCHAR
STARTCHAR char59912
ENCODING 59912
SWIDTH 30 0
DWIDTH 10 0
BBX 11 8 -1 17
BITMAP
F000
3800
1C00
0E00
0000
6060
7FE0
3F80
ENDCHAR
STARTCHAR char59913
ENCODING 59913
SWIDTH 30 0
DWIDTH 10 0
BBX 11 8 -1 17
BITMAP
F000
3800
1C00
0E00
0000
6060
7FE0
3F80
ENDCHAR
STARTCHAR char59914
ENCODING 59914
SWIDTH 30 0
DWIDTH 10 0
BBX 10 9 0 17
BITMAP
1E00
3F00
2300
0700
0C00
0C00
C0C0
FFC0
7F00
ENDCHAR
STARTCHAR char59915
ENCODING 59915
SWIDTH 30 0
DWIDTH 10 0
BBX 10 9 0 17
BITMAP
1E00
3F00
2300
0700
0C00
0C00
C0C0
FFC0
7F00
ENDCHAR
STARTCHAR char59916
ENCODING 59916
SWIDTH 30 0
DWIDTH 10 0
BBX 10 4 0 16
BITMAP
3F00
FF80
E1C0
C0C0
ENDCHAR
STARTCHAR char59917
ENCODING 59917
SWIDTH 30 0
DWIDTH 10 0
BBX 9 4 0 17
BITMAP
1E00
7F00
6380
C180
ENDCHAR
STARTCHAR char59918
ENCODING 59918
SWIDTH 0 0
DWIDTH 0 0
BBX 10 4 -13 23
BITMAP
3F00
FF80
E1C0
C0C0
ENDCHAR
STARTCHAR char59919
ENCODING 59919
SWIDTH 30 0
DWIDTH 10 0
BBX 10 7 0 17
BITMAP
7D80
FF80
C300
0000
C0C0
FFC0
7F00
ENDCHAR
STARTCHAR char59920
ENCODING 59920
SWIDTH 30 0
DWIDTH 10 0
BBX 10 7 0 17
BITMAP
7D80
FF80
C300
0000
C0C0
FFC0
7F00
ENDCHAR
STARTCHAR char59921
ENCODING 59921
SWIDTH 30 0
DWIDTH 10 0
BBX 10 4 0 17
BITMAP
E1C0
7380
3F00
1E00
ENDCHAR
STARTCHAR char59924
ENCODING 59924
SWIDTH 0 0
DWIDTH 0 0
BBX 9 4 -13 23
BITMAP
E180
7380
3F00
1E00
ENDCHAR
STARTCHAR char59925
ENCODING 59925
SWIDTH 30 0
DWIDTH 10 0
BBX 10 4 0 17
BITMAP
1E00
3F00
7380
E1C0
ENDCHAR
STARTCHAR char59926
ENCODING 59926
SWIDTH 30 0
DWIDTH 10 0
BBX 11 8 0 17
BITMAP
01E0
0380
0700
0C00
0000
1E00
3700
E180
ENDCHAR
STARTCHAR char59927
ENCODING 59927
SWIDTH 30 0
DWIDTH 10 0
BBX 11 8 0 17
BITMAP
01E0
0380
0700
0C00
0000
1E00
3700
E180
ENDCHAR
STARTCHAR char59928
ENCODING 59928
SWIDTH 0 0
DWIDTH 0 0
BBX 9 4 -13 23
BITMAP
1E00
3F00
7380
E180
ENDCHAR
STARTCHAR char59929
ENCODING 59929
SWIDTH 30 0
DWIDTH 10 0
BBX 10 8 -1 17
BITMAP
F000
3800
1C00
0E00
0000
0F00
1B80
70C0
ENDCHAR
STARTCHAR char59930
ENCODING 59930
SWIDTH 30 0
DWIDTH 10 0
BBX 10 8 -1 17
BITMAP
F000
3800
1C00
0E00
0000
0F00
1B80
70C0
ENDCHAR
STARTCHAR char59931
ENCODING 59931
SWIDTH 30 0
DWIDTH 10 0
BBX 10 10 0 17
BITMAP
0F80
18C0
18C0
0380
0300
0200
0000
1E00
3700
E180
ENDCHAR
STARTCHAR char59932
ENCODING 59932
SWIDTH 30 0
DWIDTH 10 0
BBX 10 10 0 17
BITMAP
0F80
18C0
18C0
0380
0300
0200
0000
1E00
3700
E180
ENDCHAR
STARTCHAR char59933
ENCODING 59933
SWIDTH 30 0
DWIDTH 10 0
BBX 10 8 0 17
BITMAP
7180
7F80
CF00
0000
1E00
3F00
7380
E1C0
ENDCHAR
STARTCHAR char59934
ENCODING 59934
SWIDTH 30 0
DWIDTH 10 0
BBX 10 8 0 17
BITMAP
7180
7F80
CF00
0000
1E00
3F00
7380
E1C0
ENDCHAR
STARTCHAR char59935
ENCODING 59935
SWIDTH 30 0
DWIDTH 10 0
BBX 3 7 3 -9
BITMAP
E0
E0
E0
20
20
E0
80
ENDCHAR
STARTCHAR char59937
ENCODING 59937
SWIDTH 30 0
DWIDTH 10 0
BBX 10 3 0 17
BITMAP
C0C0
FFC0
7F00
ENDCHAR
STARTCHAR char59938
ENCODING 59938
SWIDTH 30 0
DWIDTH 10 0
BBX 9 4 0 17
BITMAP
C180
6380
7F00
1E00
ENDCHAR
STARTCHAR char59939
ENCODING 59939
SWIDTH 30 0
DWIDTH 10 0
BBX 10 4 0 16
BITMAP
3F00
FF80
E1C0
C0C0
ENDCHAR
STARTCHAR char59940
ENCODING 59940
SWIDTH 30 0
DWIDTH 10 0
BBX 9 4 0 17
BITMAP
1E00
7F00
6380
C180
ENDCHAR
STARTCHAR char59941
ENCODING 59941
SWIDTH 30 0
DWIDTH 10 0
BBX 10 5 -2 17
BITMAP
E700
7300
3380
19C0
18C0
ENDCHAR
STARTCHAR char59942
ENCODING 59942
SWIDTH 30 0
DWIDTH 10 0
BBX 10 5 -2 17
BITMAP
E700
7300
3380
19C0
18C0
ENDCHAR
STARTCHAR char59943
ENCODING 59943
SWIDTH 0 0
DWIDTH 0 0
BBX 10 4 -15 23
BITMAP
E700
7380
3980
18C0
ENDCHAR
STARTCHAR char59944
ENCODING 59944
SWIDTH 30 0
DWIDTH 10 0
BBX 8 3 1 17
BITMAP
E7
E7
E7
ENDCHAR
STARTCHAR char59945
ENCODING 59945
SWIDTH 30 0
DWIDTH 10 0
BBX 10 9 1 17
BITMAP
03C0
0700
0E00
1C00
0000
0000
E700
E700
E700
ENDCHAR
STARTCHAR char59946
ENCODING 59946
SWIDTH 30 0
DWIDTH 10 0
BBX 10 9 1 17
BITMAP
03C0
0700
0E00
1C00
0000
0000
E700
E700
E700
ENDCHAR
STARTCHAR char59947
ENCODING 59947
SWIDTH 30 0
DWIDTH 10 0
BBX 10 9 0 17
BITMAP
E1C0
7380
3F00
1E00
0000
0000
7380
7380
7380
ENDCHAR
STARTCHAR char59948
ENCODING 59948
SWIDTH 30 0
DWIDTH 10 0
BBX 10 9 0 17
BITMAP
E1C0
7380
3F00
1E00
0000
0000
7380
7380
7380
ENDCHAR
STARTCHAR char59949
ENCODING 59949
SWIDTH 0 0
DWIDTH 0 0
BBX 8 3 -12 23
BITMAP
E7
E7
E7
ENDCHAR
STARTCHAR char59950
ENCODING 59950
SWIDTH 30 0
DWIDTH 10 0
BBX 10 8 -1 17
BITMAP
F000
3800
0C00
0000
0000
39C0
39C0
39C0
ENDCHAR
STARTCHAR char59951
ENCODING 59951
SWIDTH 30 0
DWIDTH 10 0
BBX 10 9 -1 17
BITMAP
F000
3800
1C00
0E00
0000
0000
39C0
39C0
39C0
ENDCHAR
STARTCHAR char59952
ENCODING 59952
SWIDTH 30 0
DWIDTH 10 0
BBX 3 3 3 17
BITMAP
E0
E0
E0
ENDCHAR
STARTCHAR char59953
ENCODING 59953
SWIDTH 0 0
DWIDTH 0 0
BBX 3 3 -10 23
BITMAP
E0
E0
E0
ENDCHAR
STARTCHAR char59954
ENCODING 59954
SWIDTH 30 0
DWIDTH 10 0
BBX 7 4 -1 17
BITMAP
F0
38
1C
0E
ENDCHAR
STARTCHAR char59955
ENCODING 59955
SWIDTH 0 0
DWIDTH 0 0
BBX 6 4 -14 23
BITMAP
F0
78
1C
0C
ENDCHAR
STARTCHAR char59956
ENCODING 59956
SWIDTH 21 0
DWIDTH 7 0
BBX 7 6 0 16
BITMAP
7C
C6
CE
1C
38
30
ENDCHAR
STARTCHAR char59957
ENCODING 59957
SWIDTH 21 0
DWIDTH 7 0
BBX 7 7 0 16
BITMAP
78
FC
C6
0C
1C
30
30
ENDCHAR
STARTCHAR char59958
ENCODING 59958
SWIDTH 0 0
DWIDTH 0 0
BBX 6 6 -11 22
BITMAP
FC
CC
8C
18
30
30
ENDCHAR
STARTCHAR char59959
ENCODING 59959
SWIDTH 30 0
DWIDTH 10 0
BBX 4 7 6 10
BITMAP
70
70
70
30
30
60
C0
ENDCHAR
STARTCHAR char59960
ENCODING 59960
SWIDTH 30 0
DWIDTH 10 0
BBX 10 4 2 18
BITMAP
39C0
7380
6700
C600
ENDCHAR
STARTCHAR char59961
ENCODING 59961
SWIDTH 0 0
DWIDTH 0 0
BBX 10 4 -11 23
BITMAP
3BC0
7300
E600
CC00
ENDCHAR
STARTCHAR char59962
ENCODING 59962
SWIDTH 30 0
DWIDTH 10 0
BBX 8 2 1 -5
BITMAP
FF
FF
ENDCHAR
STARTCHAR char59963
ENCODING 59963
SWIDTH 30 0
DWIDTH 10 0
BBX 8 2 1 18
BITMAP
FF
FF
ENDCHAR
STARTCHAR char59964
ENCODING 59964
SWIDTH 30 0
DWIDTH 10 0
BBX 5 2 2 18
BITMAP
F8
F8
ENDCHAR
STARTCHAR char59965
ENCODING 59965
SWIDTH 30 0
DWIDTH 10 0
BBX 5 2 2 18
BITMAP
F8
F8
ENDCHAR
STARTCHAR char59966
ENCODING 59966
SWIDTH 30 0
DWIDTH 10 0
BBX 8 2 1 -5
BITMAP
FF
FF
ENDCHAR
STARTCHAR char59967
ENCODING 59967
SWIDTH 0 0
DWIDTH 0 0
BBX 8 2 -12 24
BITMAP
FF
FF
ENDCHAR
STARTCHAR char59968
ENCODING 59968
SWIDTH 30 0
DWIDTH 10 0
BBX 6 5 2 17
BITMAP
78
D8
8C
CC
78
ENDCHAR
STARTCHAR char59969
ENCODING 59969
SWIDTH 30 0
DWIDTH 10 0
BBX 9 10 2 17
BITMAP
0780
0E00
1C00
3800
0000
7800
CC00
CC00
C800
7800
ENDCHAR
STARTCHAR char59970
ENCODING 59970
SWIDTH 30 0
DWIDTH 10 0
BBX 9 10 2 17
BITMAP
0780
0E00
1C00
3800
0000
7800
CC00
CC00
C800
7800
ENDCHAR
STARTCHAR char59971
ENCODING 59971
SWIDTH 0 0
DWIDTH 0 0
BBX 6 5 -11 23
BITMAP
78
C8
8C
CC
78
ENDCHAR
STARTCHAR char59972
ENCODING 59972
SWIDTH 30 0
DWIDTH 10 0
BBX 9 3 0 17
BITMAP
7980
7F80
C700
ENDCHAR
STARTCHAR char59973
ENCODING 59973
SWIDTH 30 0
DWIDTH 10 0
BBX 9 3 0 -5
BITMAP
7980
7F80
C700
ENDCHAR
STARTCHAR char59974
ENCODING 59974
SWIDTH 0 0
DWIDTH 0 0
BBX 9 3 -13 23
BITMAP
7980
7F80
C700
ENDCHAR
STARTCHAR char60162
ENCODING 60162
SWIDTH 30 0
DWIDTH 10 0
BBX 5 4 5 18
BITMAP
78
70
E0
C0
ENDCHAR
STARTCHAR char60163
ENCODING 60163
SWIDTH 30 0
DWIDTH 20 0
BBX 18 35 1 -7
BITMAP
001E00
003800
007000
00E000
000000
000000
01E000
01E000
03F000
03F000
037000
073800
073800
063800
0E1C00
0E1C00
1C1C00
1C0E00
1C0E00
3FFE00
3FFF00
380700
700700
700380
700380
E00380
E001C0
E001C0
000180
000300
000600
000600
000700
0007C0
0003C0
ENDCHAR
STARTCHAR char60164
ENCODING 60164
SWIDTH 17 0
DWIDTH 16 0
BBX 15 28 1 -6
BITMAP
0070
00E0
01C0
0180
0000
0000
0FC0
3FF0
7878
7038
6038
0038
0078
0FF8
3FF8
7038
E038
E038
E078
70F8
7FDE
1F0E
0018
0030
0030
0030
003E
001E
ENDCHAR
STARTCHAR char60165
ENCODING 60165
SWIDTH 29 0
DWIDTH 30 0
BBX 27 26 1 -6
BITMAP
001FC000
00FFF800
03F0FC00
07801F00
0E000780
1C000380
380F01C0
303FB9C0
7070F0E0
60E070E0
E0C070E0
E1C060E0
E1C060E0
C180E0C0
E180E0C0
E180C1C0
E1C1C380
E1E3C700
70FEFE00
707C7C00
38000000
1C000000
0F000000
07E0E000
01FFF000
003F8000
ENDCHAR
STARTCHAR char60168
ENCODING 60168
SWIDTH 5 0
DWIDTH 22 0
BBX 20 20 1 0
BITMAP
03FC00
0E0700
180180
3000C0
600040
400020
C00020
800030
800010
800010
800010
800010
800030
C00020
400060
600040
3000C0
180380
0F0E00
01F800
ENDCHAR
STARTCHAR char60169
ENCODING 60169
SWIDTH 17 0
DWIDTH 16 0
BBX 14 14 1 1
BITMAP
0300
0300
0300
0300
8304
F33C
7FF8
0FC0
0780
06C0
0CC0
1860
3830
1030
ENDCHAR
STARTCHAR char60170
ENCODING 60170
SWIDTH 30 0
DWIDTH 10 0
BBX 9 4 0 17
BITMAP
C180
6380
7F00
1E00
ENDCHAR
STARTCHAR char60173
ENCODING 60173
SWIDTH 30 0
DWIDTH 10 0
BBX 8 5 1 17
BITMAP
C3
66
6E
3C
3C
ENDCHAR
STARTCHAR char60175
ENCODING 60175
SWIDTH 5 0
DWIDTH 22 0
BBX 20 20 1 0
BITMAP
03FC00
0E0700
180180
3000C0
61F040
471C20
C60E20
860630
800610
800610
800610
8C0610
8C0630
C60C20
43FC60
61F040
3000C0
180380
0F0E00
01F800
ENDCHAR
STARTCHAR char60176
ENCODING 60176
SWIDTH 0 0
DWIDTH 0 0
BBX 0 0 0 0
BITMAP
ENDCHAR
STARTCHAR char60177
ENCODING 60177
SWIDTH 0 0
DWIDTH 0 0
BBX 0 0 0 0
BITMAP
ENDCHAR
STARTCHAR char60178
ENCODING 60178
SWIDTH 0 0
DWIDTH 0 0
BBX 0 0 0 0
BITMAP
ENDCHAR
STARTCHAR char60181
ENCODING 60181
SWIDTH 30 0
DWIDTH 10 0
BBX 10 5 -2 17
BITMAP
E700
7300
3380
19C0
18C0
ENDCHAR
STARTCHAR char60182
ENCODING 60182
SWIDTH 27 0
DWIDTH 19 0
BBX 15 22 2 0
BITMAP
0380
0300
0300
0300
0300
FFFE
FFFE
8306
0300
0300
0300
0300
0300
0300
0380
0380
0380
0380
0380
0380
0380
0380
ENDCHAR
STARTCHAR char60183
ENCODING 60183
SWIDTH 30 0
DWIDTH 10 0
BBX 8 3 1 17
BITMAP
E7
E7
E7
ENDCHAR
STARTCHAR char60185
ENCODING 60185
SWIDTH 30 0
DWIDTH 10 0
BBX 3 3 3 -5
BITMAP
E0
E0
E0
ENDCHAR
STARTCHAR char60190
ENCODING 60190
SWIDTH 30 0
DWIDTH 20 0
BBX 15 35 3 -7
BITMAP
0078
00E0
01C0
0380
0000
0000
FFFC
FFFC
C000
C000
C000
C000
C000
C000
C000
C000
FFFC
FFFC
C000
C000
C000
C000
C000
C000
C000
C000
FFFE
FFFE
000C
0018
0030
0030
0038
003E
001E
ENDCHAR
STARTCHAR char60191
ENCODING 60191
SWIDTH 17 0
DWIDTH 16 0
BBX 14 28 1 -6
BITMAP
0070
00E0
00C0
0180
0000
0000
07C0
1FF0
3CF8
7038
601C
E01C
E01C
FFFC
FFFC
E000
E000
601C
7038
3C78
1FF0
0FC0
0180
0300
0300
0700
03C0
03C0
ENDCHAR
STARTCHAR char60200
ENCODING 60200
SWIDTH 1 0
DWIDTH 41 0
BBX 37 22 2 0
BITMAP
07F0007F00
1FFC01FFC0
3E3E03E3E0
780E0780F0
7007070070
6007070030
6007070030
7000070000
7800078000
3F0003F800
1FF001FF80
07FC003FE0
007E0003F0
000F000078
0003800038
E0038E0038
E0038E0038
E003870038
7007078070
3F3E03F3F0
1FFC01FFC0
07F0007F00
ENDCHAR
STARTCHAR char60201
ENCODING 60201
SWIDTH 17 0
DWIDTH 16 0
BBX 12 23 2 -6
BITMAP
0600
0600
0600
0000
0000
0000
0600
0600
0600
0E00
1E00
3E00
7600
E600
E600
C630
C630
E670
E670
7FE0
3FC0
0E00
0600
ENDCHAR
STARTCHAR char60202
ENCODING 60202
SWIDTH 30 0
DWIDTH 10 0
BBX 5 4 0 18
BITMAP
E0
70
38
18
ENDCHAR
STARTCHAR char60203
ENCODING 60203
SWIDTH 8 0
DWIDTH 23 0
BBX 20 26 1 -2
BITMAP
002000
002000
01FC00
07FF00
0FDF80
1E03C0
3801E0
3800E0
700060
700000
600000
E00000
E00000
E01FF0
E01FF0
E00070
600070
700070
700070
3800F0
3C01F0
1F9FB0
07FE30
01F800
002000
002000
ENDCHAR
STARTCHAR char60206
ENCODING 60206
SWIDTH 30 0
DWIDTH 10 0
BBX 10 4 2 18
BITMAP
39C0
7380
6700
C600
ENDCHAR
STARTCHAR char60207
ENCODING 60207
SWIDTH 15 0
DWIDTH 5 0
BBX 7 2 1 7
BITMAP
FE
FE
ENDCHAR
STARTCHAR char60208
ENCODING 60208
SWIDTH 30 0
DWIDTH 10 0
BBX 7 2 1 11
BITMAP
FE
FE
ENDCHAR
STARTCHAR char60209
ENCODING 60209
SWIDTH 30 0
DWIDTH 10 0
BBX 7 8 1 4
BITMAP
FE
FE
00
00
00
00
FE
FE
ENDCHAR
STARTCHAR char60210
ENCODING 60210
SWIDTH 15 0
DWIDTH 5 0
BBX 7 8 1 4
BITMAP
FE
FE
00
00
00
00
FE
FE
ENDCHAR
STARTCHAR char60213
ENCODING 60213
SWIDTH 24 0
DWIDTH 8 0
BBX 9 35 1 -7
BITMAP
0780
0E00
1C00
3800
0000
0000
3800
3800
3800
3800
3800
3800
3800
3800
3800
3800
3800
3800
3800
3800
3800
3800
3800
3800
3800
3800
3800
3800
3000
6000
6000
E000
E000
7800
3800
ENDCHAR
STARTCHAR char60214
ENCODING 60214
SWIDTH 24 0
DWIDTH 8 0
BBX 8 29 1 -7
BITMAP
0F
0C
18
30
00
00
30
30
30
30
30
30
30
30
30
30
30
30
30
30
30
30
30
60
E0
C0
E0
78
38
ENDCHAR
STARTCHAR char60218
ENCODING 60218
SWIDTH 14 0
DWIDTH 15 0
BBX 16 28 1 0
BITMAP
000F
001C
0038
0070
0000
0000
0060
0060
0060
0060
0060
0060
0060
0060
0060
0060
0060
0060
0060
0060
0060
C060
C060
E0E0
E0E0
F1E0
7FC0
1F00
ENDCHAR
STARTCHAR char60219
ENCODING 60219
SWIDTH 21 0
DWIDTH 7 0
BBX 9 28 -1 -6
BITMAP
0380
0700
0E00
0C00
0000
0000
1800
1800
1800
1800
1800
1800
1800
1800
1800
1800
1800
1800
1800
1800
1800
1800
1800
1800
1800
1800
F800
F000
ENDCHAR
STARTCHAR char60224
ENCODING 60224
SWIDTH 26 0
DWIDTH 29 0
BBX 28 25 1 -2
BITMAP
0001FF80
000FFFF0
003C8070
007081E0
00C083A0
01808620
03808C60
0780B860
0D80F060
1980FFC0
1981FFC0
318700C0
318E0080
619C0180
61B00300
61E00300
41FFFE00
C3FFFC00
C7001C00
CC003800
98007000
F001C000
E0078000
FFFE0000
1FF00000
ENDCHAR
STARTCHAR char60227
ENCODING 60227
SWIDTH 30 0
DWIDTH 10 0
BBX 8 2 1 18
BITMAP
FF
FF
ENDCHAR
STARTCHAR char60232
ENCODING 60232
SWIDTH 8 0
DWIDTH 23 0
BBX 21 33 1 -6
BITMAP
000F00
001E00
001800
003000
000000
01FC00
07FF00
0FDF80
1E03C0
3800E0
7000E0
700070
600070
E00030
E00038
E00038
E00038
E00038
E00038
E00030
700070
700070
3800E0
3C03C0
1F9F80
07FF00
01FC00
003000
006000
006000
006000
007C00
003C00
ENDCHAR
STARTCHAR char60233
ENCODING 60233
SWIDTH 17 0
DWIDTH 16 0
BBX 14 28 1 -6
BITMAP
0070
00E0
01C0
0180
0000
0000
0FC0
3FE0
3CF0
7038
6018
E01C
E01C
E01C
E01C
E01C
E01C
6018
7038
3CF0
1FF0
0FC0
0180
0300
0300
0300
03E0
01E0
ENDCHAR
STARTCHAR char60236
ENCODING 60236
SWIDTH 17 0
DWIDTH 16 0
BBX 8 27 4 -5
BITMAP
0F
3F
7F
7F
FF
FF
FF
FF
FF
FF
7F
7F
3F
0F
03
03
03
03
03
03
03
03
03
03
03
03
03
ENDCHAR
STARTCHAR char60237
ENCODING 60237
SWIDTH 5 0
DWIDTH 12 0
BBX 10 10 1 0
BITMAP
1F00
3F80
71C0
60C0
E0C0
E0C0
60C0
71C0
3F80
1F00
ENDCHAR
STARTCHAR char60242
ENCODING 60242
SWIDTH 30 0
DWIDTH 10 0
BBX 7 7 2 -4
BITMAP
CE
CE
CE
CE
CE
C4
C4
ENDCHAR
STARTCHAR char60246
ENCODING 60246
SWIDTH 18 0
DWIDTH 6 0
BBX 3 7 1 -4
BITMAP
E0
E0
E0
E0
60
60
40
ENDCHAR
STARTCHAR char60247
ENCODING 60247
SWIDTH 18 0
DWIDTH 6 0
BBX 3 7 1 13
BITMAP
E0
E0
E0
E0
60
60
40
ENDCHAR
STARTCHAR char60250
ENCODING 60250
SWIDTH 14 0
DWIDTH 15 0
BBX 11 11 2 13
BITMAP
0400
3380
4040
9E40
9140
9E20
9220
9140
5140
2080
1F00
ENDCHAR
STARTCHAR char60257
ENCODING 60257
SWIDTH 21 0
DWIDTH 7 0
BBX 6 9 0 7
BITMAP
04
04
0C
18
30
70
E0
C0
80
ENDCHAR
STARTCHAR char60259
ENCODING 60259
SWIDTH 30 0
DWIDTH 10 0
BBX 13 3 4 19
BITMAP
3FC0
7FF0
E038
ENDCHAR
STARTCHAR char60260
ENCODING 60260
SWIDTH 14 0
DWIDTH 15 0
BBX 13 3 1 19
BITMAP
1FC0
7FF0
E038
ENDCHAR
STARTCHAR char60261
ENCODING 60261
SWIDTH 24 0
DWIDTH 8 0
BBX 9 3 3 19
BITMAP
3E00
FF80
E380
ENDCHAR
STARTCHAR char60262
ENCODING 60262
SWIDTH 14 0
DWIDTH 15 0
BBX 9 3 3 19
BITMAP
7E00
FF00
C380
ENDCHAR
STARTCHAR char60263
ENCODING 60263
SWIDTH 21 0
DWIDTH 17 0
BBX 13 5 2 -2
BITMAP
3800
7E18
C718
C3F0
00E0
ENDCHAR
STARTCHAR char60267
ENCODING 60267
SWIDTH 30 0
DWIDTH 20 0
BBX 20 2 0 7
BITMAP
FFFFF0
FFFFF0
ENDCHAR
STARTCHAR char60270
ENCODING 60270
SWIDTH 2 0
DWIDTH 21 0
BBX 17 27 2 -5
BITMAP
E00380
E00380
E00380
E00380
E00380
E00380
E00380
E00380
E00380
E00380
E00380
E00380
E00380
E00380
E00380
E00380
600380
700700
780F00
3F7E00
1FFC00
07F000
000000
000000
07F000
0FF800
1C1C00
ENDCHAR
STARTCHAR char60271
ENCODING 60271
SWIDTH 17 0
DWIDTH 16 0
BBX 12 21 2 -5
BITMAP
C030
C030
C030
C030
C030
C030
C030
C030
C030
C030
C070
C070
E0F0
F1F0
7FB0
3E30
0000
0000
1FC0
7FE0
6060
ENDCHAR
STARTCHAR char60286
ENCODING 60286
SWIDTH 14 0
DWIDTH 15 0
BBX 16 22 1 0
BITMAP
0067
0067
0067
0061
0061
0067
0064
0060
0060
0060
0060
0060
0060
0060
0060
C060
C060
E0E0
E0E0
F1E0
7FC0
1F00
ENDCHAR
STARTCHAR char60416
ENCODING 60416
SWIDTH 14 0
DWIDTH 15 0
BBX 11 11 2 13
BITMAP
0400
3380
4040
9E40
9140
A020
9120
9140
4E40
2080
1F00
ENDCHAR
STARTCHAR char60422
ENCODING 60422
SWIDTH 24 0
DWIDTH 8 0
BBX 4 20 2 0
BITMAP
F0
F0
00
00
60
60
60
60
60
60
60
60
60
60
60
60
60
60
60
60
ENDCHAR
STARTCHAR char60423
ENCODING 60423
SWIDTH 24 0
DWIDTH 8 0
BBX 5 27 2 0
BITMAP
F8
F8
00
00
00
70
70
70
70
70
70
70
70
70
70
70
70
70
70
70
70
70
70
70
70
70
70
ENDCHAR
STARTCHAR char60424
ENCODING 60424
SWIDTH 2 0
DWIDTH 21 0
BBX 17 27 2 0
BITMAP
071800
0FF800
0CF000
000000
000000
E00380
E00380
E00380
E00380
E00380
E00380
E00380
E00380
E00380
E00380
FFFF80
FFFF80
E00380
E00380
E00380
E00380
E00380
E00380
E00380
E00380
E00380
E00380
ENDCHAR
STARTCHAR char60425
ENCODING 60425
SWIDTH 17 0
DWIDTH 16 0
BBX 12 27 2 0
BITMAP
1C60
3FC0
6380
0000
0000
C000
C000
C000
C000
C000
C000
C7C0
DFE0
D8F0
F070
E030
E030
E030
C030
C030
C030
C030
C030
C030
C030
C030
C030
ENDCHAR
STARTCHAR char60426
ENCODING 60426
SWIDTH 17 0
DWIDTH 16 0
BBX 17 27 -1 0
BITMAP
798000
FF8000
C70000
000000
000000
1C0000
1C0000
1C0000
1C0000
1C0000
1C0000
1C0000
1C0000
1C0000
1C0000
1C0000
1C0000
1C0000
1C0000
1C0000
1C0000
1C0000
1C0000
1C0000
1C0000
1FFF80
1FFF80
ENDCHAR
STARTCHAR char60427
ENCODING 60427
SWIDTH 21 0
DWIDTH 7 0
BBX 9 27 -1 0
BITMAP
7180
FF00
8F00
0000
0000
1800
1800
1800
1800
1800
1800
1800
1800
1800
1800
1800
1800
1800
1800
1800
1800
1800
1800
1800
1800
1800
1800
ENDCHAR
STARTCHAR char60428
ENCODING 60428
SWIDTH 24 0
DWIDTH 18 0
BBX 16 27 1 0
BITMAP
0F10
0FF0
18E0
0000
0000
FFFF
FFFF
0180
0180
0180
0180
0180
0180
0180
0180
0180
0180
0180
0180
0180
0180
0180
0180
0180
0180
0180
0180
ENDCHAR
STARTCHAR char60429
ENCODING 60429
SWIDTH 24 0
DWIDTH 8 0
BBX 9 25 -1 0
BITMAP
7980
FF80
C700
0000
0000
1C00
1C00
1C00
1C00
7F00
7F00
1C00
1C00
1C00
1C00
1C00
1C00
1C00
1C00
1C00
1C00
1C00
1C00
0F00
0700
ENDCHAR
STARTCHAR char60430
ENCODING 60430
SWIDTH 24 0
DWIDTH 18 0
BBX 16 27 1 0
BITMAP
0E70
0E70
0E70
0000
0000
FFFF
FFFF
0180
0180
0180
0180
0180
0180
0180
0180
0180
0180
0180
0180
0180
0180
0180
0180
0180
0180
0180
0180
ENDCHAR
STARTCHAR char60432
ENCODING 60432
SWIDTH 8 0
DWIDTH 23 0
BBX 21 31 1 -5
BITMAP
002000
002000
002000
002000
01F800
07FF00
0FFF80
1E03C0
3801E0
7800E0
700070
600070
E00030
E00038
E00038
E00038
E00038
E00038
E00030
700070
700070
7800E0
3C01E0
1E03C0
0FFF80
03FE00
007000
002000
002000
002000
002000
ENDCHAR
STARTCHAR char60433
ENCODING 60433
SWIDTH 17 0
DWIDTH 16 0
BBX 14 25 1 -5
BITMAP
0300
0300
0300
0300
0780
1FE0
3FF0
7038
6018
E01C
E01C
E01C
E01C
E01C
E01C
E01C
7038
7878
3FF0
1FE0
0300
0300
0300
0300
0300
ENDCHAR
STARTCHAR char60434
ENCODING 60434
SWIDTH 27 0
DWIDTH 19 0
BBX 16 25 1 -5
BITMAP
0180
0180
0180
0180
03C0
0FF8
3E7C
780E
7006
E007
E003
C003
C003
C003
E003
E007
7006
381E
1FFC
0FF0
0180
0180
0180
0180
0180
ENDCHAR
STARTCHAR char63032
ENCODING 63032
SWIDTH 17 0
DWIDTH 16 0
BBX 14 20 1 0
BITMAP
E7C0
7FE0
7CF0
7838
7838
7C18
6C1C
EE1C
E61C
E71C
E39C
E19C
E1DC
E0DC
60F8
7078
7038
3C78
1FF8
07DC
ENDCHAR
STARTCHAR char63033
ENCODING 63033
SWIDTH 24 0
DWIDTH 18 0
BBX 14 20 2 0
BITMAP
0F80
1FE0
3CF0
7070
7038
E038
E018
E018
E01C
E01C
E01C
E01C
E018
E018
E038
6038
7030
38F0
1FE0
0F80
ENDCHAR
STARTCHAR char63034
ENCODING 63034
SWIDTH 24 0
DWIDTH 18 0
BBX 14 20 2 0
BITMAP
0FC0
1FF0
3C78
7038
701C
601C
E01C
001C
0038
0078
01F0
03C0
0F00
1C00
3800
7000
6000
FFFC
FFFC
FFFC
ENDCHAR
STARTCHAR char63035
ENCODING 63035
SWIDTH 24 0
DWIDTH 18 0
BBX 14 20 2 0
BITMAP
0FC0
3FF0
7870
7038
6038
E018
0038
0078
03E0
03F0
0078
0018
001C
E01C
E01C
E01C
7038
78F8
3FF0
0FC0
ENDCHAR
STARTCHAR char63036
ENCODING 63036
SWIDTH 24 0
DWIDTH 18 0
BBX 14 20 2 0
BITMAP
0060
00E0
00E0
01E0
03E0
0760
0660
0C60
1C60
3860
3060
6060
E060
FFFC
FFFC
0060
0060
0060
0060
0060
ENDCHAR
STARTCHAR char63037
ENCODING 63037
SWIDTH 24 0
DWIDTH 18 0
BBX 14 20 2 0
BITMAP
3FF8
3FF8
3FF8
3000
3000
7000
7000
7FE0
7FF0
7878
6038
001C
001C
001C
001C
E01C
7038
78F8
3FF0
0FC0
ENDCHAR
STARTCHAR char63038
ENCODING 63038
SWIDTH 24 0
DWIDTH 18 0
BBX 14 20 2 0
BITMAP
07C0
1FE0
3CF0
7038
7038
6000
E000
E000
EFE0
FFF0
F878
F038
E01C
E01C
E01C
6018
7038
3CF0
3FE0
0FC0
ENDCHAR
STARTCHAR char63039
ENCODING 63039
SWIDTH 24 0
DWIDTH 18 0
BBX 14 20 2 0
BITMAP
FFFC
FFFC
FFFC
0038
0030
0060
00E0
00C0
0180
0180
0300
0300
0700
0600
0E00
0E00
0C00
1C00
1C00
1C00
ENDCHAR
STARTCHAR char63040
ENCODING 63040
SWIDTH 24 0
DWIDTH 18 0
BBX 14 20 2 0
BITMAP
0FC0
1FE0
3CF0
7038
6038
6038
7038
7078
3FF0
1FE0
3860
7038
E018
E01C
E01C
E01C
6038
78F8
3FF0
0FC0
ENDCHAR
STARTCHAR char63041
ENCODING 63041
SWIDTH 24 0
DWIDTH 18 0
BBX 14 20 2 0
BITMAP
0FC0
3FE0
78F0
7038
E018
E018
E01C
E01C
E03C
707C
3FFC
1F9C
001C
0018
0038
6038
7070
78F0
3FE0
0F80
ENDCHAR
STARTCHAR char63043
ENCODING 63043
SWIDTH 17 0
DWIDTH 16 0
BBX 14 17 1 0
BITMAP
0FC0
3FF0
7878
7038
6018
E01C
E01C
E01C
E01C
E01C
E01C
E01C
601C
7038
7878
3FF0
0FE0
ENDCHAR
STARTCHAR char63044
ENCODING 63044
SWIDTH 17 0
DWIDTH 16 0
BBX 7 16 3 0
BITMAP
06
06
0E
1E
FE
FE
06
06
06
06
06
06
06
06
06
06
ENDCHAR
STARTCHAR char63045
ENCODING 63045
SWIDTH 17 0
DWIDTH 16 0
BBX 14 16 1 0
BITMAP
0FE0
3FF8
783C
701C
601C
E01C
0038
00F0
03E0
0F80
1E00
3C00
7000
7FFC
FFFC
FFFC
ENDCHAR
STARTCHAR char63046
ENCODING 63046
SWIDTH 17 0
DWIDTH 16 0
BBX 14 21 1 -5
BITMAP
0FC0
3FF0
78F0
7038
6038
E018
E018
0038
0070
07E0
07E0
0078
0038
001C
001C
E01C
E01C
E038
7878
3FF0
1FE0
ENDCHAR
STARTCHAR char63047
ENCODING 63047
SWIDTH 17 0
DWIDTH 16 0
BBX 14 21 1 -5
BITMAP
0060
00E0
01E0
01E0
03E0
0760
0660
0C60
1C60
3860
3060
7060
E060
C060
FFFC
FFFC
0060
0060
0060
0060
0060
ENDCHAR
STARTCHAR char63048
ENCODING 63048
SWIDTH 17 0
DWIDTH 16 0
BBX 14 21 1 -5
BITMAP
3FF8
3FF8
3FF8
3000
3000
7000
7000
77C0
7FF0
7CF8
7038
001C
001C
001C
001C
E01C
E01C
7038
7878
3FF0
1FC0
ENDCHAR
STARTCHAR char63049
ENCODING 63049
SWIDTH 17 0
DWIDTH 16 0
BBX 14 20 1 0
BITMAP
07C0
1FF0
3C78
3838
7018
7000
6000
E000
E7E0
FFF0
F838
F01C
E01C
E01C
601C
601C
7038
3C78
1FF0
0FC0
ENDCHAR
STARTCHAR char63050
ENCODING 63050
SWIDTH 17 0
DWIDTH 16 0
BBX 14 21 1 -5
BITMAP
FFFC
FFFC
FFFC
0018
0038
0070
0060
00E0
00C0
01C0
0180
0380
0300
0700
0600
0600
0E00
0E00
0C00
1C00
1C00
ENDCHAR
STARTCHAR char63051
ENCODING 63051
SWIDTH 17 0
DWIDTH 16 0
BBX 14 20 1 0
BITMAP
0FC0
1FF0
3CF0
7038
7018
6018
7038
3870
1FE0
1FE0
7878
7038
E01C
E01C
E01C
E01C
7038
78F8
3FF0
0FC0
ENDCHAR
STARTCHAR char63052
ENCODING 63052
SWIDTH 17 0
DWIDTH 16 0
BBX 14 21 1 -5
BITMAP
0FC0
3FE0
7CF0
7038
E018
E018
E01C
E01C
E01C
703C
787C
3FFC
1FDC
001C
0018
0018
6038
7030
7870
3FE0
1FC0
ENDCHAR
STARTCHAR char63085
ENCODING 63085
SWIDTH 17 0
DWIDTH 16 0
BBX 14 22 1 0
BITMAP
1830
1860
0FE0
0780
0000
0000
0380
0780
07C0
0FC0
0EC0
0CE0
1C60
1860
1870
3FF0
3FF8
7038
7018
601C
E01C
C00C
ENDCHAR
STARTCHAR char63086
ENCODING 63086
SWIDTH 17 0
DWIDTH 16 0
BBX 14 20 1 0
BITMAP
1FE0
1FE0
0000
0000
0380
0780
07C0
0FC0
0EC0
0CE0
1C60
1860
1870
3FF0
3FF8
7038
7018
601C
E01C
C00C
ENDCHAR
STARTCHAR char63087
ENCODING 63087
SWIDTH 17 0
DWIDTH 16 0
BBX 15 23 1 -7
BITMAP
0380
0780
07C0
0FC0
0EC0
0CE0
1C60
1860
1870
3FF0
3FF8
7038
7018
601C
E01C
C00C
0018
0030
0030
0030
0038
003E
001E
ENDCHAR
STARTCHAR char63088
ENCODING 63088
SWIDTH 8 0
DWIDTH 23 0
BBX 21 22 1 0
BITMAP
000E00
000C00
001800
003000
000000
000000
03FFF8
03FFF8
073000
063000
063000
0E3000
0C3000
1C3FF0
1C3FF0
383000
3FF000
3FF000
703000
603000
E03FF8
E03FF8
ENDCHAR
STARTCHAR char63089
ENCODING 63089
SWIDTH 21 0
DWIDTH 17 0
BBX 15 22 1 0
BITMAP
0070
0060
00C0
0180
0000
0000
07E0
1FF8
3C38
701C
600C
6000
E000
E000
E000
E000
E00E
600C
701C
383C
1FF8
07E0
ENDCHAR
STARTCHAR char63090
ENCODING 63090
SWIDTH 21 0
DWIDTH 17 0
BBX 15 22 1 0
BITMAP
0C30
0C60
06C0
07C0
0380
0000
07E0
1FF8
3C38
701C
600C
6000
E000
E000
E000
E000
E00E
600C
701C
383C
1FF8
07E0
ENDCHAR
STARTCHAR char63091
ENCODING 63091
SWIDTH 21 0
DWIDTH 17 0
BBX 15 22 1 0
BITMAP
0380
07C0
06C0
0C60
0C30
0000
07E0
1FF8
3C38
701C
600C
6000
E000
E000
E000
E000
E00E
600C
701C
383C
1FF8
07E0
ENDCHAR
STARTCHAR char63092
ENCODING 63092
SWIDTH 21 0
DWIDTH 17 0
BBX 15 20 1 0
BITMAP
0380
0380
0380
0000
07E0
1FF8
3C38
701C
600C
6000
E000
E000
E000
E000
E00E
600C
701C
383C
1FF8
07E0
ENDCHAR
STARTCHAR char63093
ENCODING 63093
SWIDTH 21 0
DWIDTH 17 0
BBX 14 22 2 0
BITMAP
18C0
1CC0
0F80
0700
0000
0000
FFC0
FFE0
E070
E038
E018
E01C
E01C
E01C
E01C
E01C
E01C
E018
E038
E070
FFE0
FFC0
ENDCHAR
STARTCHAR char63095
ENCODING 63095
SWIDTH 17 0
DWIDTH 16 0
BBX 13 22 2 0
BITMAP
3060
38C0
1FC0
0F80
0000
0000
FFF0
FFF0
E000
E000
E000
E000
E000
FFF0
FFF0
E000
E000
E000
E000
E000
FFF8
FFF8
ENDCHAR
STARTCHAR char63096
ENCODING 63096
SWIDTH 17 0
DWIDTH 16 0
BBX 13 22 2 0
BITMAP
10C0
19C0
0F80
0700
0000
0000
FFF0
FFF0
E000
E000
E000
E000
E000
FFF0
FFF0
E000
E000
E000
E000
E000
FFF8
FFF8
ENDCHAR
STARTCHAR char63097
ENCODING 63097
SWIDTH 17 0
DWIDTH 16 0
BBX 13 20 2 0
BITMAP
0700
0700
0700
0000
FFF0
FFF0
E000
E000
E000
E000
E000
FFF0
FFF0
E000
E000
E000
E000
E000
FFF8
FFF8
ENDCHAR
STARTCHAR char63098
ENCODING 63098
SWIDTH 17 0
DWIDTH 16 0
BBX 13 20 2 0
BITMAP
3FC0
3FC0
0000
0000
FFF0
FFF0
E000
E000
E000
E000
E000
FFF0
FFF0
E000
E000
E000
E000
E000
FFF8
FFF8
ENDCHAR
STARTCHAR char63099
ENCODING 63099
SWIDTH 24 0
DWIDTH 18 0
BBX 13 23 2 -7
BITMAP
E018
F018
F018
F818
DC18
CC18
CE18
C718
C318
C398
C1D8
C0D8
C0F8
C078
C038
C038
0018
0018
0C18
0C18
0E38
07F0
03E0
ENDCHAR
STARTCHAR char63100
ENCODING 63100
SWIDTH 17 0
DWIDTH 16 0
BBX 13 23 2 -7
BITMAP
FFF0
FFF0
E000
E000
E000
E000
E000
FFF0
FFF0
E000
E000
E000
E000
E000
FFF8
FFF8
0060
00C0
00C0
00C0
00E0
00F8
0078
ENDCHAR
STARTCHAR char63101
ENCODING 63101
SWIDTH 24 0
DWIDTH 18 0
BBX 16 21 1 0
BITMAP
0C30
0FF0
03E0
0000
0000
07E0
1FF8
3C1C
700E
6006
E000
E000
E0FF
E0FF
E007
E007
7007
700F
3C1F
1FFB
07E3
ENDCHAR
STARTCHAR char63102
ENCODING 63102
SWIDTH 24 0
DWIDTH 18 0
BBX 16 22 1 0
BITMAP
01C0
03C0
0760
0670
0C30
0000
07E0
1FF8
3C1C
700E
6006
E000
E000
E0FF
E0FF
E007
E007
7007
700F
3C1F
1FFB
07E3
ENDCHAR
STARTCHAR char63103
ENCODING 63103
SWIDTH 24 0
DWIDTH 18 0
BBX 16 24 1 -8
BITMAP
07E0
1FF8
3C1C
700E
6006
E000
E000
E0FF
E0FF
E007
E007
7007
700F
3C1F
1FFB
07E3
0000
01C0
01C0
01C0
01C0
00C0
0080
0100
ENDCHAR
STARTCHAR char63104
ENCODING 63104
SWIDTH 24 0
DWIDTH 18 0
BBX 16 20 1 0
BITMAP
01C0
01C0
01C0
0000
07E0
1FF8
3C1C
700E
6006
E000
E000
E0FF
E0FF
E007
E007
7007
700F
3C1F
1FFB
07E3
ENDCHAR
STARTCHAR char63105
ENCODING 63105
SWIDTH 24 0
DWIDTH 18 0
BBX 15 16 1 0
BITMAP
601C
601C
601C
FFFE
601C
601C
601C
7FFC
7FFC
601C
601C
601C
601C
601C
601C
601C
ENDCHAR
STARTCHAR char63106
ENCODING 63106
SWIDTH 24 0
DWIDTH 18 0
BBX 13 22 2 0
BITMAP
0780
0FC0
1CE0
3860
0000
0000
E018
E018
E018
E018
E018
E018
E018
FFF8
FFF8
E018
E018
E018
E018
E018
E018
E018
ENDCHAR
STARTCHAR char63107
ENCODING 63107
SWIDTH 21 0
DWIDTH 7 0
BBX 9 22 -1 0
BITMAP
C180
6380
7F00
1E00
0000
0000
0C00
0C00
0C00
0C00
0C00
0C00
0C00
0C00
0C00
0C00
0C00
0C00
0C00
0C00
0C00
0C00
ENDCHAR
STARTCHAR char63108
ENCODING 63108
SWIDTH 24 0
DWIDTH 18 0
BBX 14 16 2 0
BITMAP
C00C
C00C
C00C
C00C
C00C
C00C
C00C
C00C
C00C
C00C
C60C
C60C
C60C
C71C
C3F8
C1F0
ENDCHAR
STARTCHAR char63109
ENCODING 63109
SWIDTH 21 0
DWIDTH 7 0
BBX 8 20 0 0
BITMAP
FF
FF
00
00
18
18
18
18
18
18
18
18
18
18
18
18
18
18
18
18
ENDCHAR
STARTCHAR char63110
ENCODING 63110
SWIDTH 21 0
DWIDTH 7 0
BBX 5 23 1 -7
BITMAP
30
30
30
30
30
30
30
30
30
30
30
30
30
30
30
30
60
C0
C0
C0
E0
F8
78
ENDCHAR
STARTCHAR char63111
ENCODING 63111
SWIDTH 21 0
DWIDTH 7 0
BBX 9 20 -1 0
BITMAP
7980
7F80
C700
0000
0C00
0C00
0C00
0C00
0C00
0C00
0C00
0C00
0C00
0C00
0C00
0C00
0C00
0C00
0C00
0C00
ENDCHAR
STARTCHAR char63112
ENCODING 63112
SWIDTH 8 0
DWIDTH 13 0
BBX 12 22 1 0
BITMAP
03C0
03E0
0660
0C30
0000
0000
0180
0180
0180
0180
0180
0180
0180
0180
0180
0180
C180
C180
C180
E380
7F00
3E00
ENDCHAR
STARTCHAR char63113
ENCODING 63113
SWIDTH 17 0
DWIDTH 16 0
BBX 13 25 2 -9
BITMAP
E038
E070
E0E0
E1C0
E380
E700
EE00
FF00
FB00
F380
E1C0
E0E0
E0E0
E070
E038
E018
0000
0000
0700
0700
0700
0100
0100
0700
0400
ENDCHAR
STARTCHAR char63114
ENCODING 63114
SWIDTH 8 0
DWIDTH 13 0
BBX 11 22 2 0
BITMAP
1C00
3800
7000
6000
0000
0000
E000
E000
E000
E000
E000
E000
E000
E000
E000
E000
E000
E000
E000
E000
FFE0
FFE0
ENDCHAR
STARTCHAR char63115
ENCODING 63115
SWIDTH 8 0
DWIDTH 13 0
BBX 10 16 2 0
BITMAP
CE00
CE00
CE00
C200
C600
CC00
C000
C000
C000
C000
C000
C000
C000
C000
FFC0
FFC0
ENDCHAR
STARTCHAR char63116
ENCODING 63116
SWIDTH 8 0
DWIDTH 13 0
BBX 11 25 2 -9
BITMAP
E000
E000
E000
E000
E000
E000
E000
E000
E000
E000
E000
E000
E000
E000
FFE0
FFE0
0000
0000
0E00
0E00
0E00
0200
0600
0C00
0800
ENDCHAR
STARTCHAR char63117
ENCODING 63117
SWIDTH 8 0
DWIDTH 13 0
BBX 10 16 2 0
BITMAP
C000
C000
C000
C000
C000
C000
C380
C380
C380
C000
C000
C000
C000
C000
FFC0
FFC0
ENDCHAR
STARTCHAR char63118
ENCODING 63118
SWIDTH 24 0
DWIDTH 18 0
BBX 13 22 2 0
BITMAP
00F0
00E0
01C0
0380
0000
0000
E018
F018
F018
F818
DC18
CC18
CE18
C718
C318
C398
C1D8
C0D8
C0F8
C078
C038
C038
ENDCHAR
STARTCHAR char63119
ENCODING 63119
SWIDTH 24 0
DWIDTH 18 0
BBX 13 22 2 0
BITMAP
1860
0CC0
0F80
0780
0000
0000
E018
F018
F018
F818
DC18
CC18
CE18
C718
C318
C398
C1D8
C0D8
C0F8
C078
C038
C038
ENDCHAR
STARTCHAR char63120
ENCODING 63120
SWIDTH 24 0
DWIDTH 18 0
BBX 13 25 2 -9
BITMAP
E018
F018
F018
F818
DC18
CC18
CE18
C718
C318
C398
C1D8
C0D8
C0F8
C078
C038
C038
0000
0000
0700
0700
0700
0100
0100
0700
0400
ENDCHAR
STARTCHAR char63121
ENCODING 63121
SWIDTH 24 0
DWIDTH 18 0
BBX 16 21 1 0
BITMAP
0C30
0FF0
03C0
0000
0000
07E0
1FF8
3C1C
700E
6007
E007
E003
C003
C003
E003
E007
6007
700E
3C1C
1FF8
07E0
ENDCHAR
STARTCHAR char63122
ENCODING 63122
SWIDTH 24 0
DWIDTH 18 0
BBX 16 22 1 0
BITMAP
01CE
039C
0318
0630
0000
0000
07E0
1FF8
3C1C
700E
6007
E007
E003
C003
C003
E003
E007
6007
700E
3C1C
1FF8
07E0
ENDCHAR
STARTCHAR char63123
ENCODING 63123
SWIDTH 24 0
DWIDTH 18 0
BBX 16 20 1 0
BITMAP
0FF0
0FF0
0000
0000
07E0
1FF8
3C1C
700E
6007
E007
E003
C003
C003
E003
E007
6007
700E
3C1C
1FF8
07E0
ENDCHAR
STARTCHAR char63124
ENCODING 63124
SWIDTH 27 0
DWIDTH 19 0
BBX 17 22 1 0
BITMAP
003800
007000
006000
00C000
000000
000000
03E100
1FFB00
3C3E00
380E00
701F00
603300
E06300
E0C380
E18380
E30300
660300
7C0700
780E00
3C1E00
7FF800
47F000
ENDCHAR
STARTCHAR char63125
ENCODING 63125
SWIDTH 24 0
DWIDTH 18 0
BBX 13 22 3 0
BITMAP
01E0
01C0
0380
0700
0000
0000
FFC0
FFF0
C0F0
C030
C030
C030
C070
FFE0
FFC0
C070
C030
C030
C030
C030
C030
C038
ENDCHAR
STARTCHAR char63126
ENCODING 63126
SWIDTH 24 0
DWIDTH 18 0
BBX 13 22 3 0
BITMAP
30C0
1980
1F00
0F00
0000
0000
FFC0
FFF0
C0F0
C030
C030
C030
C070
FFE0
FFC0
C070
C030
C030
C030
C030
C030
C038
ENDCHAR
STARTCHAR char63127
ENCODING 63127
SWIDTH 24 0
DWIDTH 18 0
BBX 13 25 3 -9
BITMAP
FFC0
FFF0
C0F0
C030
C030
C030
C070
FFE0
FFC0
C070
C030
C030
C030
C030
C030
C038
0000
0000
0E00
0E00
0E00
0200
0200
0E00
0800
ENDCHAR
STARTCHAR char63128
ENCODING 63128
SWIDTH 17 0
DWIDTH 16 0
BBX 14 22 1 0
BITMAP
00F0
00E0
01C0
0180
0200
0000
0FC0
3FF0
7070
6038
6018
6000
7C00
3FC0
07F0
0078
E018
E01C
E018
7038
3FF0
0FC0
ENDCHAR
STARTCHAR char63129
ENCODING 63129
SWIDTH 17 0
DWIDTH 16 0
BBX 14 22 1 -6
BITMAP
0FC0
3FF0
7070
6038
6018
6000
7C00
3FC0
07F0
0078
E018
E01C
E018
7038
3FF0
0FC0
0200
0780
01C0
00C0
11C0
1F80
ENDCHAR
STARTCHAR char63130
ENCODING 63130
SWIDTH 17 0
DWIDTH 16 0
BBX 14 22 1 0
BITMAP
0780
0780
0DC0
1CC0
1860
0000
0FC0
3FF0
7070
6038
6018
6000
7C00
3FC0
07F0
0078
E018
E01C
E018
7038
3FF0
0FC0
ENDCHAR
STARTCHAR char63131
ENCODING 63131
SWIDTH 17 0
DWIDTH 16 0
BBX 14 24 1 -8
BITMAP
0FC0
3FF0
7070
6038
6018
6000
7C00
3FC0
07F0
0078
E018
E01C
E018
7038
3FF0
0FC0
0000
0700
0700
0700
0300
0100
0300
0600
ENDCHAR
STARTCHAR char63133
ENCODING 63133
SWIDTH 11 0
DWIDTH 14 0
BBX 14 22 0 0
BITMAP
1860
0CC0
07C0
0780
0000
0000
FFFC
FFFC
0300
0300
0300
0300
0300
0300
0300
0300
0300
0300
0300
0300
0300
0300
ENDCHAR
STARTCHAR char63134
ENCODING 63134
SWIDTH 11 0
DWIDTH 14 0
BBX 14 25 0 -9
BITMAP
FFFC
FFFC
0300
0300
0300
0300
0300
0300
0300
0300
0300
0300
0300
0300
0300
0300
0000
0000
0380
0380
0380
0180
0100
0300
0200
ENDCHAR
STARTCHAR char63135
ENCODING 63135
SWIDTH 24 0
DWIDTH 18 0
BBX 13 22 2 0
BITMAP
3060
18E0
1FC0
0780
0000
0000
E018
E018
E018
E018
E018
E018
E018
E018
E018
E018
E018
E018
6038
7078
3FF0
0FC0
ENDCHAR
STARTCHAR char63136
ENCODING 63136
SWIDTH 24 0
DWIDTH 18 0
BBX 14 22 2 0
BITMAP
039C
0738
0E70
0C60
0000
0000
E018
E018
E018
E018
E018
E018
E018
E018
E018
E018
E018
E018
6038
7078
3FF0
0FC0
ENDCHAR
STARTCHAR char63137
ENCODING 63137
SWIDTH 24 0
DWIDTH 18 0
BBX 13 20 2 0
BITMAP
1FE0
1FE0
0000
0000
E018
E018
E018
E018
E018
E018
E018
E018
E018
E018
E018
E018
6038
7078
3FF0
0FC0
ENDCHAR
STARTCHAR char63138
ENCODING 63138
SWIDTH 24 0
DWIDTH 18 0
BBX 13 22 2 -6
BITMAP
E018
E018
E018
E018
E018
E018
E018
E018
E018
E018
E018
E018
6038
7078
3FF0
0FC0
0300
0600
0600
0600
07C0
03C0
ENDCHAR
STARTCHAR char63139
ENCODING 63139
SWIDTH 24 0
DWIDTH 18 0
BBX 13 22 2 0
BITMAP
0780
0C80
08C0
0F80
0700
0000
E018
E018
E018
E018
E018
E018
E018
E018
E018
E018
E018
E018
6038
7078
3FF0
0FC0
ENDCHAR
STARTCHAR char63140
ENCODING 63140
SWIDTH 24 0
DWIDTH 18 0
BBX 13 20 2 0
BITMAP
1E60
3FE0
31C0
0000
E018
E018
E018
E018
E018
E018
E018
E018
E018
E018
E018
E018
6038
7078
3FF0
0FC0
ENDCHAR
STARTCHAR char63141
ENCODING 63141
SWIDTH 8 0
DWIDTH 23 0
BBX 21 22 1 0
BITMAP
000E00
001C00
001800
003000
000000
000000
E07038
E07030
60F030
60F870
70D870
70D860
319C60
318CE0
398CE0
3B8CC0
1B0EC0
1B07C0
1F07C0
0E0780
0E0380
0E0380
ENDCHAR
STARTCHAR char63142
ENCODING 63142
SWIDTH 8 0
DWIDTH 23 0
BBX 21 22 1 0
BITMAP
007000
00F800
019800
030C00
000000
000000
E07038
E07030
60F030
60F870
70D870
70D860
319C60
318CE0
398CE0
3B8CC0
1B0EC0
1B07C0
1F07C0
0E0780
0E0380
0E0380
ENDCHAR
STARTCHAR char63143
ENCODING 63143
SWIDTH 8 0
DWIDTH 23 0
BBX 21 20 1 0
BITMAP
019C00
019C00
019C00
000000
E07038
E07030
60F030
60F870
70D870
70D860
319C60
318CE0
398CE0
3B8CC0
1B0EC0
1B07C0
1F07C0
0E0780
0E0380
0E0380
ENDCHAR
STARTCHAR char63144
ENCODING 63144
SWIDTH 8 0
DWIDTH 23 0
BBX 21 22 1 0
BITMAP
038000
018000
00C000
006000
000000
000000
E07038
E07030
60F030
60F870
70D870
70D860
319C60
318CE0
398CE0
3B8CC0
1B0EC0
1B07C0
1F07C0
0E0780
0E0380
0E0380
ENDCHAR
STARTCHAR char63145
ENCODING 63145
SWIDTH 17 0
DWIDTH 16 0
BBX 15 22 1 0
BITMAP
0380
07C0
0CC0
1860
0000
0000
E00E
701C
7038
3838
1870
1C60
0EE0
07C0
0780
0380
0380
0380
0380
0380
0380
0380
ENDCHAR
STARTCHAR char63146
ENCODING 63146
SWIDTH 17 0
DWIDTH 16 0
BBX 15 22 1 0
BITMAP
1C00
0C00
0600
0300
0000
0000
E00E
701C
7038
3838
1870
1C60
0EE0
07C0
0780
0380
0380
0380
0380
0380
0380
0380
ENDCHAR
STARTCHAR char63147
ENCODING 63147
SWIDTH 11 0
DWIDTH 14 0
BBX 13 22 1 0
BITMAP
00E0
01C0
0180
0300
0000
0000
FFF0
FFF0
0070
00E0
01C0
01C0
0380
0700
0E00
1C00
1C00
3800
7000
E000
FFF8
FFF8
ENDCHAR
STARTCHAR char63148
ENCODING 63148
SWIDTH 11 0
DWIDTH 14 0
BBX 13 20 1 0
BITMAP
0700
0700
0700
0000
FFF0
FFF0
0070
00E0
01C0
01C0
0380
0700
0E00
1C00
1C00
3800
7000
E000
FFF8
FFF8
ENDCHAR
STARTCHAR char63149
ENCODING 63149
SWIDTH 21 0
DWIDTH 7 0
BBX 3 20 2 0
BITMAP
E0
E0
E0
00
60
60
60
60
60
60
60
60
60
60
60
60
60
60
60
60
ENDCHAR
STARTCHAR char63166
ENCODING 63166
SWIDTH 21 0
DWIDTH 7 0
BBX 5 22 -1 -6
BITMAP
18
18
18
18
18
18
18
18
18
18
18
18
18
18
18
18
18
18
18
18
F8
F0
ENDCHAR
STARTCHAR char63196
ENCODING 63196
SWIDTH 2 0
DWIDTH 11 0
BBX 7 20 2 0
BITMAP
06
06
0E
1E
FE
FE
06
06
06
06
06
06
06
06
06
06
06
06
06
06
ENDCHAR
STARTCHAR char63198
ENCODING 63198
SWIDTH 5 0
DWIDTH 22 0
BBX 22 2 0 7
BITMAP
FFFFFC
FFFFFC
ENDCHAR
STARTCHAR char63268
ENCODING 63268
SWIDTH 30 0
DWIDTH 20 0
BBX 17 26 1 -2
BITMAP
012000
012000
07F000
1FFC00
3F3E00
392700
712700
712300
712300
712000
7D2000
3FA000
1FF000
07FE00
013F00
012780
012380
E12380
612380
712380
792780
3D3F00
1FFE00
07F800
012000
012000
ENDCHAR
STARTCHAR char63280
ENCODING 63280
SWIDTH 24 0
DWIDTH 18 0
BBX 14 17 2 0
BITMAP
1FC0
3FF0
7870
7038
E038
E018
E018
E01C
E01C
E01C
E01C
E018
E018
6038
7078
3FF0
1FC0
ENDCHAR
STARTCHAR char63281
ENCODING 63281
SWIDTH 2 0
DWIDTH 11 0
BBX 7 16 2 0
BITMAP
06
06
0E
1E
FE
FE
06
06
06
06
06
06
06
06
06
06
ENDCHAR
STARTCHAR char63282
ENCODING 63282
SWIDTH 24 0
DWIDTH 18 0
BBX 14 16 2 0
BITMAP
0FE0
3FF8
783C
701C
601C
E01C
0038
00F0
03E0
0F80
1E00
3C00
7000
7FFC
FFFC
FFFC
ENDCHAR
STARTCHAR char63283
ENCODING 63283
SWIDTH 24 0
DWIDTH 18 0
BBX 14 21 2 -5
BITMAP
0FC0
3FF0
7CF0
7038
6038
E018
E018
0038
0070
03E0
03F0
0078
0038
001C
001C
E01C
E01C
6038
7878
3FF0
1FE0
ENDCHAR
STARTCHAR char63284
ENCODING 63284
SWIDTH 24 0
DWIDTH 18 0
BBX 14 21 2 -5
BITMAP
0060
00E0
00E0
01E0
03E0
0360
0660
0E60
1C60
1860
3860
7060
6060
C060
FFFC
FFFC
0060
0060
0060
0060
0060
ENDCHAR
STARTCHAR char63285
ENCODING 63285
SWIDTH 24 0
DWIDTH 18 0
BBX 14 21 2 -5
BITMAP
3FF8
3FF8
3FF8
3000
3000
7000
7000
77C0
7FF0
7CF8
7038
001C
001C
001C
001C
E01C
E01C
6038
7878
3FF0
1FC0
ENDCHAR
STARTCHAR char63286
ENCODING 63286
SWIDTH 24 0
DWIDTH 18 0
BBX 14 20 2 0
BITMAP
07C0
1FE0
3CF0
7038
7038
6000
E000
E000
EFE0
FFF0
F878
F038
E01C
E01C
E01C
6018
7038
3CF0
3FE0
0FC0
ENDCHAR
STARTCHAR char63287
ENCODING 63287
SWIDTH 24 0
DWIDTH 18 0
BBX 14 21 2 -5
BITMAP
FFFC
FFFC
FFFC
0038
0030
0060
00E0
00C0
01C0
0180
0380
0300
0700
0600
0600
0E00
0C00
0C00
1C00
1C00
1C00
ENDCHAR
STARTCHAR char63288
ENCODING 63288
SWIDTH 24 0
DWIDTH 18 0
BBX 14 20 2 0
BITMAP
0FC0
1FE0
3CF0
7038
6038
6038
7038
7078
3FF0
1FE0
3860
7038
E018
E01C
E01C
E01C
6038
78F8
3FF0
0FC0
ENDCHAR
STARTCHAR char63289
ENCODING 63289
SWIDTH 24 0
DWIDTH 18 0
BBX 14 21 2 -5
BITMAP
0FC0
3FE0
7CF0
7038
E038
E018
E01C
E01C
E01C
E03C
787C
3FFC
1F9C
001C
0018
0038
6038
7070
78F0
3FE0
1FC0
ENDCHAR
STARTCHAR char63329
ENCODING 63329
SWIDTH 17 0
DWIDTH 16 0
BBX 14 16 1 0
BITMAP
0380
0780
07C0
0FC0
0EC0
0CE0
1C60
1860
1870
3FF0
3FF8
7038
7018
601C
E01C
C00C
ENDCHAR
STARTCHAR char63330
ENCODING 63330
SWIDTH 17 0
DWIDTH 16 0
BBX 13 16 2 0
BITMAP
FFC0
FFE0
E0F0
E070
E030
E030
E060
FFC0
FFF0
E070
E038
E038
E038
E070
FFF0
FFC0
ENDCHAR
STARTCHAR char63331
ENCODING 63331
SWIDTH 21 0
DWIDTH 17 0
BBX 15 16 1 0
BITMAP
07E0
1FF8
3C38
701C
600C
6000
E000
E000
E000
E000
E00E
600C
701C
383C
1FF8
07E0
ENDCHAR
STARTCHAR char63332
ENCODING 63332
SWIDTH 21 0
DWIDTH 17 0
BBX 14 16 2 0
BITMAP
FFC0
FFE0
E070
E038
E018
E01C
E01C
E01C
E01C
E01C
E01C
E018
E038
E070
FFE0
FFC0
ENDCHAR
STARTCHAR char63333
ENCODING 63333
SWIDTH 17 0
DWIDTH 16 0
BBX 13 16 2 0
BITMAP
FFF0
FFF0
E000
E000
E000
E000
E000
FFF0
FFF0
E000
E000
E000
E000
E000
FFF8
FFF8
ENDCHAR
STARTCHAR char63334
ENCODING 63334
SWIDTH 14 0
DWIDTH 15 0
BBX 12 16 2 0
BITMAP
FFF0
FFF0
E000
E000
E000
E000
E000
FFE0
FFE0
E000
E000
E000
E000
E000
E000
E000
ENDCHAR
STARTCHAR char63335
ENCODING 63335
SWIDTH 24 0
DWIDTH 18 0
BBX 16 16 1 0
BITMAP
07E0
1FF8
3C1C
700E
6006
E000
E000
E0FF
E0FF
E007
E007
7007
700F
3C1F
1FFB
07E3
ENDCHAR
STARTCHAR char63336
ENCODING 63336
SWIDTH 24 0
DWIDTH 18 0
BBX 13 16 2 0
BITMAP
E018
E018
E018
E018
E018
E018
E018
FFF8
FFF8
E018
E018
E018
E018
E018
E018
E018
ENDCHAR
STARTCHAR char63337
ENCODING 63337
SWIDTH 21 0
DWIDTH 7 0
BBX 2 16 3 0
BITMAP
C0
C0
C0
C0
C0
C0
C0
C0
C0
C0
C0
C0
C0
C0
C0
C0
ENDCHAR
STARTCHAR char63338
ENCODING 63338
SWIDTH 8 0
DWIDTH 13 0
BBX 9 16 1 0
BITMAP
0180
0180
0180
0180
0180
0180
0180
0180
0180
0180
C180
C180
C180
E380
7F00
3E00
ENDCHAR
STARTCHAR char63339
ENCODING 63339
SWIDTH 17 0
DWIDTH 16 0
BBX 13 16 2 0
BITMAP
E038
E070
E0E0
E1C0
E380
E700
EE00
FF00
FB00
F380
E1C0
E0E0
E0E0
E070
E038
E018
ENDCHAR
STARTCHAR char63340
ENCODING 63340
SWIDTH 8 0
DWIDTH 13 0
BBX 11 16 2 0
BITMAP
E000
E000
E000
E000
E000
E000
E000
E000
E000
E000
E000
E000
E000
E000
FFE0
FFE0
ENDCHAR
STARTCHAR char63341
ENCODING 63341
SWIDTH 30 0
DWIDTH 20 0
BBX 16 16 2 0
BITMAP
F007
F00F
F00F
F80F
D81B
D81B
DC1B
CC33
CC33
C673
C663
C663
C3E3
C3C3
C3C3
C183
ENDCHAR
STARTCHAR char63342
ENCODING 63342
SWIDTH 24 0
DWIDTH 18 0
BBX 13 16 2 0
BITMAP
E018
F018
F018
F818
DC18
CC18
CE18
C718
C318
C398
C1D8
C0D8
C0F8
C078
C038
C038
ENDCHAR
STARTCHAR char63343
ENCODING 63343
SWIDTH 24 0
DWIDTH 18 0
BBX 16 16 1 0
BITMAP
07E0
1FF8
3C1C
700E
6007
E007
E003
C003
C003
E003
E007
6007
700E
3C1C
1FF8
07E0
ENDCHAR
STARTCHAR char63344
ENCODING 63344
SWIDTH 17 0
DWIDTH 16 0
BBX 12 16 3 0
BITMAP
FF80
FFE0
C0E0
C070
C070
C070
C0E0
FFE0
FF80
C000
C000
C000
C000
C000
C000
C000
ENDCHAR
STARTCHAR char63345
ENCODING 63345
SWIDTH 24 0
DWIDTH 18 0
BBX 16 17 1 -1
BITMAP
07E0
1FF8
3C1C
700E
6007
E007
E003
C003
C003
E003
E007
6027
707E
3C3C
1FFE
07E7
0002
ENDCHAR
STARTCHAR char63346
ENCODING 63346
SWIDTH 24 0
DWIDTH 18 0
BBX 13 16 3 0
BITMAP
FFC0
FFF0
C0F0
C030
C030
C030
C070
FFE0
FFC0
C070
C030
C030
C030
C030
C030
C038
ENDCHAR
STARTCHAR char63347
ENCODING 63347
SWIDTH 17 0
DWIDTH 16 0
BBX 14 16 1 0
BITMAP
0FC0
3FF0
7070
6038
6018
6000
7C00
3FC0
07F0
0078
E018
E01C
E018
7038
3FF0
0FC0
ENDCHAR
STARTCHAR char63348
ENCODING 63348
SWIDTH 11 0
DWIDTH 14 0
BBX 14 16 0 0
BITMAP
FFFC
FFFC
0300
0300
0300
0300
0300
0300
0300
0300
0300
0300
0300
0300
0300
0300
ENDCHAR
STARTCHAR char63349
ENCODING 63349
SWIDTH 24 0
DWIDTH 18 0
BBX 13 16 2 0
BITMAP
E018
E018
E018
E018
E018
E018
E018
E018
E018
E018
E018
E018
6038
7078
3FF0
0FC0
ENDCHAR
STARTCHAR char63350
ENCODING 63350
SWIDTH 17 0
DWIDTH 16 0
BBX 14 16 1 0
BITMAP
E00C
601C
701C
7018
3038
3830
3830
1870
1C60
0C60
0CE0
0EC0
06C0
07C0
0380
0380
ENDCHAR
STARTCHAR char63351
ENCODING 63351
SWIDTH 8 0
DWIDTH 23 0
BBX 21 16 1 0
BITMAP
E07038
E07030
60F030
60F870
70D870
70D860
319C60
318CE0
398CE0
3B8CC0
1B0EC0
1B07C0
1F07C0
0E0780
0E0380
0E0380
ENDCHAR
STARTCHAR char63352
ENCODING 63352
SWIDTH 17 0
DWIDTH 16 0
BBX 14 16 1 0
BITMAP
E01C
7038
3838
1C70
1CE0
0EC0
07C0
0380
0780
07C0
0EE0
1C60
3870
3038
701C
E01C
ENDCHAR
STARTCHAR char63353
ENCODING 63353
SWIDTH 17 0
DWIDTH 16 0
BBX 15 16 1 0
BITMAP
E00E
701C
7038
3838
1870
1C60
0EE0
07C0
0780
0380
0380
0380
0380
0380
0380
0380
ENDCHAR
STARTCHAR char63354
ENCODING 63354
SWIDTH 11 0
DWIDTH 14 0
BBX 13 16 1 0
BITMAP
FFF0
FFF0
0070
00E0
01C0
01C0
0380
0700
0E00
1C00
1C00
3800
7000
E000
FFF8
FFF8
ENDCHAR
STARTCHAR char63394
ENCODING 63394
SWIDTH 14 0
DWIDTH 15 0
BBX 13 20 1 -2
BITMAP
0200
0200
0F80
3FE0
3AF0
7230
E238
E238
E200
C200
C200
E200
E238
E238
7230
7AF0
3FE0
0FC0
0200
0200
ENDCHAR
STARTCHAR char63456
ENCODING 63456
SWIDTH 17 0
DWIDTH 16 0
BBX 14 22 1 0
BITMAP
3C00
1C00
0E00
0700
0000
0000
0380
0780
07C0
0FC0
0EC0
0CE0
1C60
1860
1870
3FF0
3FF8
7038
7018
601C
E01C
C00C
ENDCHAR
STARTCHAR char63457
ENCODING 63457
SWIDTH 17 0
DWIDTH 16 0
BBX 14 22 1 0
BITMAP
0070
00E0
00C0
0180
0000
0000
0380
0780
07C0
0FC0
0EC0
0CE0
1C60
1860
1870
3FF0
3FF8
7038
7018
601C
E01C
C00C
ENDCHAR
STARTCHAR char63458
ENCODING 63458
SWIDTH 17 0
DWIDTH 16 0
BBX 14 22 1 0
BITMAP
0780
07C0
0CC0
1860
0000
0000
0380
0780
07C0
0FC0
0EC0
0CE0
1C60
1860
1870
3FF0
3FF8
7038
7018
601C
E01C
C00C
ENDCHAR
STARTCHAR char63459
ENCODING 63459
SWIDTH 17 0
DWIDTH 16 0
BBX 14 20 1 0
BITMAP
0E30
1FE0
11E0
0000
0380
0780
07C0
0FC0
0EC0
0CE0
1C60
1860
1870
3FF0
3FF8
7038
7018
601C
E01C
C00C
ENDCHAR
STARTCHAR char63460
ENCODING 63460
SWIDTH 17 0
DWIDTH 16 0
BBX 14 20 1 0
BITMAP
0CE0
0CE0
0CE0
0000
0380
0780
07C0
0FC0
0EC0
0CE0
1C60
1860
1870
3FF0
3FF8
7038
7018
601C
E01C
C00C
ENDCHAR
STARTCHAR char63461
ENCODING 63461
SWIDTH 17 0
DWIDTH 16 0
BBX 14 22 1 0
BITMAP
0780
04C0
0C40
07C0
0380
0000
0380
0780
07C0
0FC0
0EC0
0CE0
1C60
1860
1870
3FF0
3FF8
7038
7018
601C
E01C
C00C
ENDCHAR
ENDFONT
